<svg width="16" height="16" viewBox="0 0 16 16" fill="none" xmlns="http://www.w3.org/2000/svg">
<path d="M1 8C1 8.15912 1.06146 8.31172 1.17085 8.42424C1.28024 8.53676 1.42861 8.59997 1.58331 8.59997H13.0083L8.7537 12.9752C8.69951 13.031 8.65652 13.0971 8.62719 13.17C8.59786 13.2428 8.58276 13.3209 8.58276 13.3997C8.58276 13.4785 8.59786 13.5566 8.62719 13.6294C8.65652 13.7023 8.69951 13.7684 8.7537 13.8242C8.8079 13.8799 8.87224 13.9241 8.94305 13.9543C9.01386 13.9845 9.08975 14 9.1664 14C9.24304 14 9.31894 13.9845 9.38975 13.9543C9.46056 13.9241 9.5249 13.8799 9.57909 13.8242L14.8289 8.42448C14.8832 8.36876 14.9262 8.30259 14.9555 8.22975C14.9849 8.15692 15 8.07884 15 8C15 7.92115 14.9849 7.84308 14.9555 7.77025C14.9262 7.69741 14.8832 7.63124 14.8289 7.57552L9.57909 2.17582C9.46964 2.06325 9.32119 2 9.1664 2C9.01161 2 8.86316 2.06325 8.7537 2.17582C8.64425 2.2884 8.58276 2.44109 8.58276 2.6003C8.58276 2.75951 8.64425 2.9122 8.7537 3.02478L13.0083 7.40003L1.58331 7.40003C1.42861 7.40003 1.28024 7.46324 1.17085 7.57576C1.06146 7.68827 1 7.84088 1 8Z" fill="currentColor"/>
</svg>
