<svg width="16" height="16" viewBox="0 0 16 16" fill="none" xmlns="http://www.w3.org/2000/svg">
<path d="M12.1719 10.4717C12.4478 10.4718 12.6717 10.6958 12.6719 10.9717C12.6719 11.2477 12.4479 11.4715 12.1719 11.4717H8.41211C8.13602 11.4716 7.91211 11.2478 7.91211 10.9717C7.91224 10.6957 8.1361 10.4717 8.41211 10.4717H12.1719Z" fill="currentColor"></path>
<path d="M12.1719 8.7207C12.4478 8.72087 12.6717 8.94483 12.6719 9.2207C12.6719 9.49674 12.4479 9.72054 12.1719 9.7207H8.41211C8.13602 9.72064 7.91211 9.4968 7.91211 9.2207C7.91231 8.94477 8.13615 8.72077 8.41211 8.7207H12.1719Z" fill="currentColor"></path>
<path fill-rule="evenodd" clip-rule="evenodd" d="M5.83301 2.5C6.04929 2.50056 6.26025 2.57446 6.43359 2.70996L8.16699 4.07129H13.5C13.7651 4.07129 14.0195 4.1816 14.207 4.37793C14.3946 4.5744 14.5 4.84129 14.5 5.11914V12.5107C14.4996 12.773 14.3997 13.0245 14.2227 13.21C14.0457 13.3953 13.8059 13.4996 13.5557 13.5H2.5C2.23485 13.5 1.98049 13.3897 1.79297 13.1934C1.60543 12.9969 1.5 12.73 1.5 12.4521V3.54785C1.5 3.27001 1.60543 3.00311 1.79297 2.80664C1.98049 2.61026 2.23485 2.5 2.5 2.5H5.83301ZM2.5 12.4521H13.5V5.11914H8.16699C7.95071 5.11858 7.73975 5.04468 7.56641 4.90918L5.83301 3.54785H2.5V12.4521Z" fill="currentColor"></path>
</svg>
