<svg width="12" height="14" viewBox="0 0 12 14" fill="none" xmlns="http://www.w3.org/2000/svg">
<path d="M11.8405 3.92673L8.02227 0.1575C7.97158 0.107512 7.91141 0.0678742 7.84519 0.0408498C7.77898 0.0138254 7.70801 -5.54539e-05 7.63636 1.66491e-07H1.09091C0.801582 1.66491e-07 0.524105 0.113461 0.31952 0.315424C0.114935 0.517386 0 0.791305 0 1.07692V12.9231C0 13.2087 0.114935 13.4826 0.31952 13.6846C0.524105 13.8865 0.801582 14 1.09091 14H10.9091C11.1984 14 11.4759 13.8865 11.6805 13.6846C11.8851 13.4826 12 13.2087 12 12.9231V4.30769C12.0001 4.23696 11.986 4.16691 11.9586 4.10154C11.9312 4.03618 11.8911 3.97677 11.8405 3.92673ZM8.18182 1.83817L10.138 3.76923H8.18182V1.83817ZM10.9091 12.9231H1.09091V1.07692H7.09091V4.30769C7.09091 4.4505 7.14838 4.58746 7.25067 4.68844C7.35296 4.78942 7.4917 4.84615 7.63636 4.84615H10.9091V12.9231ZM8.02227 7.69596C8.07295 7.74599 8.11315 7.80538 8.14058 7.87075C8.168 7.93611 8.18212 8.00617 8.18212 8.07692C8.18212 8.14767 8.168 8.21773 8.14058 8.2831C8.11315 8.34846 8.07295 8.40786 8.02227 8.45789C7.97159 8.50791 7.91143 8.5476 7.84522 8.57467C7.779 8.60175 7.70803 8.61568 7.63636 8.61568C7.56469 8.61568 7.49373 8.60175 7.42751 8.57467C7.3613 8.5476 7.30113 8.50791 7.25045 8.45789L6.54545 7.76125V10.7692C6.54545 10.912 6.48799 11.049 6.38569 11.15C6.2834 11.251 6.14466 11.3077 6 11.3077C5.85534 11.3077 5.7166 11.251 5.61431 11.15C5.51201 11.049 5.45455 10.912 5.45455 10.7692V7.76125L4.74955 8.45789C4.69887 8.50791 4.6387 8.5476 4.57249 8.57467C4.50627 8.60175 4.43531 8.61568 4.36364 8.61568C4.29197 8.61568 4.221 8.60175 4.15478 8.57467C4.08857 8.5476 4.02841 8.50791 3.97773 8.45789C3.92705 8.40786 3.88685 8.34846 3.85942 8.2831C3.83199 8.21773 3.81788 8.14767 3.81788 8.07692C3.81788 8.00617 3.83199 7.93611 3.85942 7.87075C3.88685 7.80538 3.92705 7.74599 3.97773 7.69596L5.61409 6.08058C5.66475 6.03051 5.72491 5.9908 5.79112 5.9637C5.85734 5.9366 5.92832 5.92265 6 5.92265C6.07168 5.92265 6.14266 5.9366 6.20888 5.9637C6.27509 5.9908 6.33525 6.03051 6.38591 6.08058L8.02227 7.69596Z" fill="currentColor"/>
</svg>
