<svg width="16" height="16" viewBox="0 0 16 16" fill="none" xmlns="http://www.w3.org/2000/svg">
<path d="M14.6512 9.13905C14.8355 8.92031 15.1622 8.89236 15.3809 9.07659C15.5997 9.26085 15.6276 9.58761 15.4434 9.80637L12.932 12.7879C12.8356 12.9023 12.6944 12.9695 12.5449 12.9721C12.3953 12.9747 12.252 12.9124 12.1517 12.8015L10.5829 11.0654C10.3912 10.8532 10.4078 10.5257 10.62 10.334C10.8322 10.1422 11.1597 10.1588 11.3514 10.371L12.5221 11.6667L14.6512 9.13905Z" fill="currentColor"/>
<path fill-rule="evenodd" clip-rule="evenodd" d="M13.9518 2.54627C13.9588 2.54634 13.9658 2.54643 13.9727 2.54677C13.975 2.54689 13.9773 2.54714 13.9796 2.54728C13.9851 2.54763 13.9906 2.54796 13.9961 2.54848C14.0016 2.549 14.007 2.54969 14.0125 2.55038C14.0152 2.55073 14.018 2.55106 14.0208 2.55145C14.027 2.55235 14.0333 2.55337 14.0395 2.55449C14.0413 2.55482 14.0431 2.55515 14.0449 2.5555C14.0508 2.55662 14.0566 2.55785 14.0623 2.55917C14.0652 2.55982 14.0681 2.56049 14.0709 2.56119C14.0758 2.56239 14.0807 2.56371 14.0855 2.56504C14.0887 2.56593 14.0919 2.56681 14.0951 2.56776C14.1004 2.56933 14.1056 2.57102 14.1108 2.57276C14.1134 2.57364 14.1161 2.57449 14.1187 2.57541C14.1236 2.57712 14.1284 2.57894 14.1332 2.58079C14.1367 2.58214 14.1402 2.58353 14.1436 2.58496C14.1474 2.58651 14.1512 2.58812 14.1549 2.58976C14.159 2.59157 14.1631 2.59341 14.1672 2.59533C14.1705 2.59686 14.1737 2.59847 14.1769 2.60007C14.1816 2.60239 14.1862 2.60474 14.1909 2.60721C14.1931 2.6084 14.1953 2.60959 14.1975 2.61081C14.2029 2.61377 14.2082 2.61682 14.2134 2.61998C14.2152 2.62101 14.2169 2.62209 14.2186 2.62314C14.2242 2.62662 14.2298 2.63018 14.2353 2.63389C14.2362 2.63451 14.2372 2.63515 14.2381 2.63578C14.2441 2.63987 14.25 2.64407 14.2559 2.64843C14.2567 2.64909 14.2576 2.64978 14.2585 2.65045C14.2642 2.65473 14.2698 2.65912 14.2753 2.66366C14.2765 2.66462 14.2776 2.6656 14.2788 2.66657C14.284 2.67093 14.2892 2.67538 14.2942 2.67997C14.2951 2.68072 14.2959 2.68149 14.2967 2.68225C14.3018 2.68691 14.3068 2.69164 14.3117 2.69654C14.3149 2.69964 14.3179 2.70289 14.3209 2.70608C14.3235 2.70875 14.3261 2.71132 14.3286 2.71405C14.329 2.71445 14.3293 2.7149 14.3297 2.71531C14.3318 2.71766 14.3339 2.72013 14.336 2.72252C14.3548 2.74402 14.3716 2.76662 14.3863 2.79016C14.3876 2.79215 14.3889 2.79409 14.3901 2.7961C14.3979 2.80889 14.4049 2.82198 14.4114 2.83523C14.4123 2.83692 14.4131 2.83859 14.414 2.84029C14.4168 2.84621 14.4195 2.85219 14.4221 2.85818C14.4228 2.85989 14.4236 2.86158 14.4243 2.8633C14.4264 2.86814 14.4283 2.87302 14.4301 2.87791C14.4315 2.88133 14.4328 2.88475 14.4341 2.88821C14.4352 2.89145 14.4362 2.89475 14.4374 2.89801C14.439 2.90292 14.4407 2.90783 14.4422 2.9128C14.4433 2.91637 14.4442 2.91997 14.4453 2.92355C14.4464 2.92771 14.4477 2.93186 14.4487 2.93607C14.4498 2.94016 14.4506 2.94428 14.4516 2.94839C14.4544 2.96088 14.457 2.97351 14.4589 2.98632C14.4595 2.99019 14.4599 2.99408 14.4604 2.99795C14.461 3.00262 14.4617 3.00728 14.4621 3.01199C14.4638 3.02896 14.4646 3.04598 14.4647 3.06301C14.4647 3.06334 14.4647 3.06368 14.4647 3.06402V7.35399C14.4647 7.64 14.2329 7.87186 13.9468 7.87186C13.6608 7.87186 13.429 7.64 13.429 7.35399V4.24131L8.08233 9.1424C7.88434 9.32389 7.58039 9.32389 7.38239 9.1424L2.03575 4.24131V11.8679H9.28598C9.572 11.8679 9.80386 12.0997 9.80386 12.3857C9.80386 12.6718 9.572 12.9036 9.28598 12.9036H2.03575C1.76105 12.9036 1.49762 12.7945 1.30338 12.6002C1.10914 12.406 1 12.1426 1 11.8679V3.06168C1.00007 3.0451 1.00094 3.02852 1.00259 3.01199C1.00306 3.00729 1.0037 3.00262 1.0043 2.99795C1.00479 2.99408 1.00517 2.99019 1.00575 2.98632C1.00768 2.97351 1.01024 2.96088 1.01309 2.94839C1.01402 2.94428 1.01489 2.94016 1.01593 2.93607C1.01605 2.93558 1.01619 2.9351 1.01631 2.93461L1.02206 2.91407C1.02219 2.91364 1.02231 2.91322 1.02244 2.9128C1.02396 2.90783 1.02565 2.90292 1.02731 2.89801C1.02841 2.89475 1.02943 2.89145 1.0306 2.88821C1.03185 2.88475 1.0332 2.88133 1.03452 2.87791C1.0364 2.87302 1.0383 2.86814 1.04033 2.8633C1.04106 2.86158 1.04187 2.85989 1.04261 2.85818C1.0452 2.85219 1.04786 2.84621 1.0507 2.84029C1.05152 2.83859 1.0524 2.83692 1.05323 2.83523C1.05976 2.82198 1.06679 2.80889 1.07453 2.7961C1.07575 2.79409 1.07708 2.79215 1.07833 2.79016C1.09303 2.76662 1.10983 2.74402 1.12871 2.72252C1.13081 2.72013 1.13283 2.71766 1.13497 2.71531C1.13535 2.71489 1.13572 2.71447 1.13611 2.71405C1.1386 2.71133 1.14122 2.70874 1.14376 2.70608C1.14639 2.70332 1.14896 2.7005 1.15166 2.6978L1.15463 2.69483C1.15901 2.69051 1.16353 2.68638 1.16803 2.68225C1.16884 2.6815 1.16962 2.68071 1.17043 2.67997C1.1755 2.67538 1.18065 2.67093 1.18586 2.66657C1.18702 2.6656 1.18817 2.66462 1.18934 2.66366C1.19486 2.65912 1.20048 2.65473 1.20615 2.65045C1.20705 2.64977 1.20796 2.6491 1.20887 2.64843C1.2147 2.64408 1.22059 2.63986 1.22657 2.63578C1.2275 2.63515 1.22842 2.63451 1.22935 2.63389C1.23487 2.63018 1.24047 2.62662 1.2461 2.62314C1.24781 2.62209 1.24951 2.62101 1.25122 2.61998C1.25649 2.61682 1.2618 2.61377 1.26716 2.61081C1.26936 2.60959 1.27157 2.6084 1.27379 2.60721C1.27841 2.60474 1.28308 2.60239 1.28776 2.60007C1.29099 2.59846 1.29423 2.59686 1.2975 2.59533C1.30157 2.59341 1.30566 2.59156 1.30976 2.58976C1.31349 2.58812 1.31724 2.58651 1.32102 2.58496C1.3245 2.58353 1.328 2.58214 1.33151 2.58079C1.33629 2.57894 1.34108 2.57712 1.34592 2.57541C1.34857 2.57448 1.35123 2.57364 1.35389 2.57276C1.35908 2.57102 1.3643 2.56933 1.36957 2.56776C1.37276 2.56681 1.37597 2.56593 1.37918 2.56504C1.384 2.56371 1.38884 2.56239 1.39372 2.56119C1.39658 2.56048 1.39944 2.55982 1.40231 2.55917C1.40809 2.55785 1.41391 2.55662 1.41976 2.5555C1.42157 2.55515 1.42338 2.55482 1.4252 2.55449C1.4314 2.55337 1.43763 2.55235 1.44391 2.55145C1.44667 2.55106 1.44943 2.55073 1.45219 2.55038C1.45763 2.54969 1.46308 2.549 1.46856 2.54848C1.47406 2.54796 1.47956 2.54763 1.48506 2.54728C1.48736 2.54714 1.48965 2.54689 1.49196 2.54677C1.4989 2.54643 1.50586 2.54634 1.51282 2.54627C1.5145 2.54625 1.51619 2.54614 1.51787 2.54614H13.9468C13.9485 2.54614 13.9502 2.54625 13.9518 2.54627ZM7.73236 8.05804L12.6154 3.58189H2.84929L7.73236 8.05804Z" fill="currentColor"/>
</svg>
