<svg width="16" height="16" viewBox="0 0 16 16" fill="none" xmlns="http://www.w3.org/2000/svg">
<path fill-rule="evenodd" clip-rule="evenodd" d="M13.9879 2.6449C13.9949 2.64497 14.0018 2.64507 14.0088 2.64542C14.0111 2.64554 14.0134 2.64579 14.0157 2.64594C14.0212 2.64629 14.0268 2.64663 14.0323 2.64716C14.0378 2.64769 14.0432 2.64839 14.0487 2.6491C14.0515 2.64945 14.0542 2.64979 14.057 2.65019C14.0633 2.65111 14.0695 2.65214 14.0758 2.65329C14.0776 2.65362 14.0794 2.65396 14.0812 2.65432C14.0871 2.65546 14.0929 2.65672 14.0987 2.65806C14.1016 2.65873 14.1045 2.65941 14.1073 2.66012C14.1122 2.66135 14.1171 2.66269 14.1219 2.66406C14.1251 2.66496 14.1283 2.66586 14.1315 2.66683C14.1368 2.66843 14.142 2.67016 14.1473 2.67192C14.1499 2.67282 14.1526 2.67369 14.1552 2.67463C14.1601 2.67637 14.1649 2.67823 14.1697 2.68011C14.1732 2.68149 14.1767 2.68291 14.1802 2.68437C14.184 2.68595 14.1878 2.6876 14.1915 2.68927C14.1956 2.69111 14.1998 2.69299 14.2039 2.69494C14.2071 2.6965 14.2103 2.69815 14.2136 2.69978C14.2183 2.70215 14.2229 2.70455 14.2276 2.70707C14.2298 2.70828 14.232 2.7095 14.2342 2.71074C14.2396 2.71376 14.2449 2.71686 14.2502 2.72009C14.2519 2.72115 14.2536 2.72224 14.2553 2.72332C14.261 2.72686 14.2666 2.73049 14.2721 2.73428C14.2731 2.73492 14.274 2.73557 14.2749 2.73621C14.2809 2.74037 14.2869 2.74466 14.2927 2.74911C14.2936 2.74979 14.2945 2.75049 14.2954 2.75117C14.3011 2.75554 14.3067 2.76001 14.3123 2.76465C14.3134 2.76563 14.3146 2.76663 14.3158 2.76761C14.321 2.77206 14.3261 2.7766 14.3312 2.78128C14.3321 2.78205 14.3329 2.78284 14.3337 2.78361C14.3388 2.78836 14.3438 2.79318 14.3488 2.79818C14.3519 2.80135 14.3549 2.80467 14.358 2.80792C14.3605 2.81063 14.3632 2.81326 14.3657 2.81604C14.3661 2.81646 14.3664 2.81691 14.3668 2.81733C14.3689 2.81973 14.371 2.82224 14.3731 2.82468C14.392 2.84661 14.4088 2.86967 14.4236 2.89368C14.4248 2.89571 14.4262 2.89769 14.4274 2.89974C14.4352 2.91278 14.4422 2.92614 14.4488 2.93965C14.4496 2.94138 14.4505 2.94308 14.4513 2.94481C14.4541 2.95085 14.4568 2.95695 14.4594 2.96306C14.4602 2.96481 14.461 2.96653 14.4617 2.96828C14.4637 2.97322 14.4656 2.9782 14.4675 2.98318C14.4688 2.98667 14.4702 2.99016 14.4715 2.99369C14.4726 2.997 14.4736 3.00036 14.4747 3.00369C14.4764 3.00869 14.4781 3.0137 14.4796 3.01877C14.4807 3.02241 14.4817 3.02608 14.4827 3.02974C14.4838 3.03398 14.4851 3.03821 14.4862 3.0425C14.4872 3.04668 14.4881 3.05089 14.489 3.05508C14.4919 3.06782 14.4944 3.08069 14.4964 3.09377C14.4969 3.09771 14.4973 3.10168 14.4978 3.10563C14.4984 3.11039 14.4991 3.11515 14.4996 3.11995C14.5013 3.13725 14.5021 3.15462 14.5021 3.17198C14.5021 3.17233 14.5022 3.17267 14.5022 3.17302V7.26688C14.5022 7.55862 14.2697 7.79513 13.9829 7.79513C13.6961 7.79513 13.4636 7.55862 13.4636 7.26688V4.37387L8.10204 9.37308C7.9035 9.55821 7.5987 9.55821 7.40015 9.37308L2.03863 4.37387V12.1531H9.30904C9.59585 12.1531 9.82836 12.3896 9.82836 12.6814C9.82836 12.9731 9.59585 13.2096 9.30904 13.2096H2.03863C1.76317 13.2096 1.499 13.0983 1.30422 12.9001C1.10944 12.702 1 12.4333 1 12.1531V3.17063C1.00007 3.15372 1.00094 3.1368 1.0026 3.11995C1.00307 3.11515 1.00372 3.11039 1.00431 3.10563C1.00481 3.10168 1.00518 3.09771 1.00577 3.09377C1.0077 3.0807 1.01027 3.06782 1.01312 3.05508C1.01406 3.05089 1.01493 3.04668 1.01598 3.0425C1.0161 3.04201 1.01623 3.04152 1.01636 3.04102L1.02212 3.02006C1.02225 3.01963 1.02238 3.0192 1.0225 3.01877C1.02403 3.0137 1.02572 3.00869 1.02739 3.00369C1.02849 3.00036 1.02951 2.997 1.03068 2.99369C1.03193 2.99016 1.03329 2.98667 1.03461 2.98318C1.0365 2.9782 1.03841 2.97322 1.04044 2.96828C1.04117 2.96653 1.04198 2.96481 1.04273 2.96306C1.04533 2.95695 1.048 2.95085 1.05084 2.94481C1.05166 2.94308 1.05254 2.94138 1.05338 2.93965C1.05993 2.92614 1.06697 2.91278 1.07474 2.89974C1.07596 2.89769 1.0773 2.89571 1.07854 2.89368C1.09329 2.86967 1.11014 2.84661 1.12907 2.82468C1.13117 2.82224 1.1332 2.81973 1.13534 2.81733C1.13573 2.8169 1.1361 2.81647 1.13649 2.81604C1.13899 2.81327 1.14161 2.81062 1.14416 2.80792C1.1468 2.8051 1.14937 2.80222 1.15208 2.79947L1.15506 2.79644C1.15945 2.79203 1.16399 2.78782 1.1685 2.78361C1.16931 2.78285 1.17009 2.78204 1.17091 2.78128C1.17599 2.7766 1.18116 2.77206 1.18638 2.76761C1.18754 2.76663 1.18869 2.76563 1.18986 2.76465C1.1954 2.76001 1.20104 2.75554 1.20672 2.75117C1.20763 2.75048 1.20854 2.7498 1.20945 2.74911C1.2153 2.74467 1.22121 2.74037 1.2272 2.73621C1.22813 2.73557 1.22906 2.73492 1.22999 2.73428C1.23553 2.73049 1.24114 2.72686 1.24679 2.72332C1.2485 2.72224 1.2502 2.72115 1.25192 2.72009C1.2572 2.71686 1.26253 2.71376 1.2679 2.71074C1.27011 2.7095 1.27233 2.70828 1.27455 2.70707C1.27919 2.70455 1.28387 2.70215 1.28856 2.69978C1.2918 2.69814 1.29505 2.69651 1.29833 2.69494C1.30241 2.69299 1.30651 2.6911 1.31063 2.68927C1.31437 2.6876 1.31812 2.68595 1.32191 2.68437C1.32541 2.68291 1.32891 2.68149 1.33243 2.68011C1.33722 2.67823 1.34203 2.67637 1.34689 2.67463C1.34954 2.67369 1.35221 2.67282 1.35487 2.67192C1.36008 2.67015 1.36531 2.66843 1.3706 2.66683C1.3738 2.66586 1.37702 2.66496 1.38023 2.66406C1.38507 2.66269 1.38992 2.66135 1.39481 2.66012C1.39768 2.6594 1.40056 2.65873 1.40343 2.65806C1.40923 2.65671 1.41506 2.65546 1.42093 2.65432C1.42274 2.65396 1.42456 2.65362 1.42638 2.65329C1.4326 2.65214 1.43885 2.65111 1.44515 2.65019C1.44791 2.64979 1.45068 2.64945 1.45345 2.6491C1.4589 2.64839 1.46437 2.64769 1.46987 2.64716C1.47537 2.64663 1.4809 2.64629 1.48641 2.64594C1.48872 2.64579 1.49101 2.64554 1.49332 2.64542C1.50029 2.64507 1.50727 2.64498 1.51424 2.6449C1.51593 2.64489 1.51762 2.64478 1.51932 2.64478H13.9829C13.9846 2.64478 13.9862 2.64489 13.9879 2.6449ZM7.7511 8.26701L12.6478 3.70126H2.85443L7.7511 8.26701Z" fill="currentColor"/>
<path fill-rule="evenodd" clip-rule="evenodd" d="M12.8793 8.71955C14.0983 8.71955 15.0864 9.72468 15.0864 10.9646C15.0864 12.2045 14.0983 13.2096 12.8793 13.2096C11.6604 13.2096 10.6722 12.2045 10.6722 10.9646C10.6722 9.72468 11.6604 8.71955 12.8793 8.71955ZM12.8793 9.77603C12.234 9.77603 11.7109 10.3082 11.7109 10.9646C11.7109 11.621 12.234 12.1531 12.8793 12.1531C13.5247 12.1531 14.0478 11.621 14.0478 10.9646C14.0478 10.3082 13.5247 9.77603 12.8793 9.77603Z" fill="currentColor"/>
</svg>
