<svg width="16" height="16" viewBox="0 0 16 16" fill="none" xmlns="http://www.w3.org/2000/svg">
<path fill-rule="evenodd" clip-rule="evenodd" d="M6.89046 6.94128C8.68267 6.94128 10.1355 8.39417 10.1356 10.1864C10.1356 11.9786 8.68267 13.4315 6.89046 13.4315C6.18876 13.4315 5.5391 13.2087 5.00827 12.8301L2.99614 14.8422C2.78586 15.0525 2.44494 15.0525 2.23466 14.8422C2.02437 14.632 2.02437 14.291 2.23466 14.0808L4.24672 12.0686C3.86813 11.5377 3.64536 10.8881 3.64536 10.1864C3.64536 8.39418 5.09825 6.9413 6.89046 6.94128ZM6.89046 8.01821C5.69302 8.01822 4.72229 8.98895 4.72228 10.1864C4.72228 11.3838 5.69302 12.3545 6.89046 12.3546C8.08791 12.3546 9.05863 11.3838 9.05863 10.1864C9.05863 8.98894 8.0879 8.01821 6.89046 8.01821Z" fill="currentColor"/>
<path d="M12.8461 1C13.4409 1 13.9231 1.48215 13.9231 2.07692V13.9231C13.9231 14.2087 13.8096 14.4826 13.6076 14.6846C13.4057 14.8865 13.1318 15 12.8461 15H9.98556C9.68817 15 9.4471 14.7589 9.4471 14.4615C9.4471 14.1642 9.68817 13.9231 9.98556 13.9231H12.8461V2.07692H3.15383V7.02404C3.15383 7.32142 2.91275 7.5625 2.61537 7.5625C2.31798 7.5625 2.0769 7.32142 2.0769 7.02404V2.07692C2.0769 1.79131 2.19038 1.5174 2.39234 1.31544C2.59431 1.11348 2.86821 1 3.15383 1H12.8461Z" fill="currentColor"/>
</svg>
