<svg width="17" height="17" viewBox="0 0 17 17" fill="none" xmlns="http://www.w3.org/2000/svg">
<g clip-path="url(#clip0_18785_37402)">
<path d="M8.80713 7.78918C9.0341 7.46621 9.29646 7.21768 9.59326 7.04309C9.89007 6.86851 10.2 6.78137 10.5229 6.78137C11.0642 6.78137 11.483 6.97345 11.7798 7.35754C12.0766 7.73287 12.225 8.28257 12.2251 9.00696V11.0763C12.2251 11.8707 12.038 12.4736 11.6626 12.8839C11.2872 13.2855 10.7061 13.4865 9.92041 13.4865C9.15223 13.4864 8.58887 13.2894 8.23096 12.8966C7.87315 12.5037 7.69483 11.9057 7.69482 11.1027V4.38489L8.80713 4.38489V7.78918ZM15.1411 6.78137C15.534 6.78137 15.9794 6.8378 16.4771 6.95129L16.4507 7.93372C15.9443 7.82022 15.5078 7.76282 15.1411 7.76282C14.731 7.76283 14.417 7.87683 14.1987 8.10364C13.9893 8.33055 13.8843 8.65353 13.8843 9.07239V11.1808C13.8843 11.6171 13.9933 11.9489 14.2114 12.1759C14.4384 12.3941 14.7483 12.504 15.1411 12.504C15.3855 12.504 15.5994 12.4911 15.7827 12.465C15.966 12.4388 16.1888 12.3942 16.4507 12.3331L16.4771 13.3156C15.9447 13.429 15.495 13.4854 15.1284 13.4855C13.557 13.4855 12.771 12.6915 12.771 11.1027V9.16418C12.7711 7.5755 13.5611 6.7814 15.1411 6.78137ZM7.14893 13.3292H5.94385L5.38037 11.338H2.2251L1.66162 13.3292H0.522949L3.14111 4.7511H4.51611L7.14893 13.3292ZM10.2612 7.77649C10.0081 7.77649 9.7506 7.87261 9.48877 8.06458C9.22686 8.25664 8.99919 8.51896 8.80713 8.85071V11.2335C8.80713 11.6613 8.90318 11.989 9.09521 12.2159C9.29598 12.4429 9.57127 12.5558 9.92041 12.5558C10.7149 12.5558 11.1118 12.1064 11.1118 11.2072V9.16418C11.1117 8.23913 10.8285 7.77659 10.2612 7.77649ZM2.49951 10.3429H5.10596L3.80908 5.77258L2.49951 10.3429Z" fill="currentColor"/>
</g>
<defs>
<clipPath id="clip0_18785_37402">
<rect width="16" height="16" fill="white" transform="translate(0.5 0.935669)"/>
</clipPath>
</defs>
</svg>
