<svg width="16" height="16" viewBox="0 0 16 16" fill="currentColor" xmlns="http://www.w3.org/2000/svg">
<path d="M10.9228 4.16101C11.2859 4.02099 11.7273 3.9375 12.2097 4.02648C12.696 4.11618 13.1881 4.37469 13.6575 4.859C14.1269 5.34331 14.3774 5.85113 14.4644 6.35286C14.5506 6.85056 14.4698 7.30598 14.3341 7.68058C14.1991 8.05328 14.0061 8.35707 13.8507 8.56502C13.7723 8.66996 13.7015 8.75316 13.6491 8.81131C13.6228 8.84044 13.6009 8.86348 13.5849 8.88001C13.5768 8.88826 13.5702 8.89494 13.5652 8.89993C13.5643 8.90081 13.5635 8.90161 13.5627 8.90239L13.2609 9.21371C13.2548 9.22086 13.2485 9.22799 13.2419 9.23484C13.2353 9.24165 13.2284 9.24811 13.2215 9.25442L7.92029 14.7254L7.92013 14.7257C7.74977 14.9012 7.51882 14.9999 7.27804 15H4.73864C4.49754 15 4.26631 14.9012 4.09583 14.7253C3.92535 14.5494 3.82955 14.3108 3.82955 14.062V11.442L3.82982 11.4187C3.83571 11.1787 3.9306 10.9497 4.09544 10.7795L4.09566 10.7793L9.73809 4.95764C9.73901 4.95664 9.74 4.95553 9.74109 4.95437C9.74592 4.9492 9.75239 4.94238 9.76039 4.93411C9.77641 4.91754 9.79876 4.89502 9.82698 4.86793C9.88333 4.81382 9.96398 4.74074 10.0657 4.65983C10.2672 4.4995 10.5616 4.30033 10.9228 4.16101ZM4.73864 11.4424V14.062H7.27765L12.277 8.90256L9.73859 6.28353L4.73864 11.4424ZM12.0497 4.94985C11.764 4.89716 11.4902 4.94354 11.2411 5.03962C10.9902 5.1364 10.7754 5.27959 10.6208 5.40258C10.5444 5.46331 10.4852 5.51719 10.4463 5.55457C10.4269 5.57319 10.4127 5.5876 10.4041 5.59648C10.3998 5.60089 10.397 5.60395 10.3955 5.60547C10.3949 5.60612 10.3946 5.6065 10.3945 5.60655C10.3914 5.60996 10.3882 5.61333 10.385 5.61663L10.3815 5.62024L12.9198 8.23922L12.9233 8.23561L12.9331 8.22582C12.9331 8.22577 12.9335 8.22541 12.9341 8.22479C12.9356 8.22333 12.9386 8.22033 12.9429 8.21592C12.9515 8.20705 12.9654 8.1924 12.9834 8.17241C13.0197 8.13224 13.0718 8.07112 13.1307 7.99236C13.2499 7.83283 13.3887 7.61112 13.4825 7.3522C13.5756 7.09517 13.6206 6.81265 13.5695 6.5179C13.5191 6.22717 13.3691 5.88788 13.0147 5.52223C12.6603 5.15656 12.3314 5.00182 12.0497 4.94985ZM4.7671 2.83655C4.65483 3.17616 4.48525 3.54842 4.22728 3.81448C3.9696 4.08022 3.60933 4.25488 3.28051 4.37055C3.60943 4.48642 3.96984 4.66135 4.2275 4.92741C4.48492 5.19322 4.65413 5.56485 4.76622 5.90408C4.87849 5.56475 5.048 5.19298 5.30571 4.92718C5.56356 4.66124 5.92414 4.48649 6.2532 4.37083C5.92444 4.25496 5.56427 4.08016 5.30671 3.81437C5.04888 3.5483 4.87938 3.17611 4.7671 2.83655ZM7.48306 5.04746L7.48289 5.0474L7.48278 5.04746L7.48273 5.0474C7.48249 5.04743 7.48218 5.04753 7.48178 5.04757C7.48027 5.04774 7.47758 5.048 7.47379 5.04843C7.46622 5.04929 7.45426 5.0507 7.43839 5.05273C7.40661 5.05679 7.35935 5.06333 7.30051 5.07282C7.18228 5.0919 7.02011 5.12258 6.84397 5.1686C6.46646 5.26722 6.12077 5.41282 5.94841 5.59058C5.7761 5.7683 5.63479 6.12483 5.53898 6.51418C5.49426 6.69589 5.46444 6.86321 5.44587 6.98517C5.43663 7.04586 5.4303 7.0946 5.42634 7.12738C5.42436 7.14375 5.42296 7.1561 5.42212 7.1639C5.4217 7.1678 5.42139 7.17058 5.42123 7.17215L5.42112 7.17358L5.41946 7.18812C5.41502 7.22299 5.4068 7.25725 5.39493 7.29025C5.34729 7.42272 5.26151 7.53702 5.14907 7.61772C5.03664 7.69841 4.90296 7.74166 4.76599 7.74166C4.62902 7.74166 4.4953 7.69842 4.38286 7.61772C4.27042 7.53702 4.18465 7.42272 4.137 7.29025C4.12341 7.25246 4.11457 7.21301 4.11075 7.17289C4.11073 7.17266 4.11068 7.1723 4.11064 7.17192C4.11048 7.17036 4.11023 7.16757 4.10981 7.16368C4.10897 7.15587 4.10762 7.14351 4.10565 7.12715C4.1017 7.09437 4.09533 7.04562 4.08612 6.98494C4.06761 6.863 4.0379 6.69574 3.99329 6.51407C3.89768 6.12473 3.75658 5.76814 3.58441 5.59035C3.41221 5.41255 3.06675 5.26673 2.68947 5.16785C2.51341 5.12172 2.35132 5.09095 2.23314 5.07179C2.17434 5.06225 2.12708 5.05573 2.09532 5.05164C2.07946 5.0496 2.06748 5.04815 2.05991 5.04729C2.05616 5.04686 2.0535 5.04659 2.05198 5.04643C2.05156 5.04638 2.05122 5.04628 2.05098 5.04626H2.05082C2.01207 5.04229 1.9739 5.03322 1.9374 5.01924C1.809 4.97005 1.69826 4.88152 1.62007 4.76551C1.54189 4.64949 1.5 4.51155 1.5 4.37026C1.5 4.22898 1.5419 4.09107 1.62007 3.97507L1.63511 3.9536C1.71217 3.8481 1.81702 3.76739 1.9374 3.72128L1.95122 3.71624C1.97898 3.70665 2.00758 3.69984 2.03661 3.69592L2.0512 3.6942C2.05144 3.69418 2.05179 3.69413 2.0522 3.69409C2.05372 3.69393 2.05639 3.69366 2.06014 3.69323C2.0677 3.69237 2.07968 3.69097 2.09554 3.68894C2.1273 3.68487 2.17451 3.67829 2.23331 3.66878C2.35147 3.64969 2.51358 3.61905 2.68963 3.57301C3.06689 3.47435 3.41236 3.32874 3.58463 3.15108C3.75694 2.97337 3.89825 2.61684 3.99407 2.22748C4.03878 2.04578 4.0686 1.87845 4.08717 1.75649C4.09641 1.69581 4.10274 1.64706 4.1067 1.61428C4.10868 1.59792 4.11008 1.58557 4.11092 1.57776C4.11134 1.57389 4.11159 1.57114 4.11175 1.56957L4.11186 1.56837C4.1157 1.52839 4.12451 1.48908 4.13805 1.45141C4.1857 1.31894 4.27153 1.20464 4.38397 1.12394L4.40528 1.10929C4.51311 1.03804 4.63863 1 4.76705 1C4.89547 1 5.02098 1.03804 5.12882 1.10929L5.15013 1.12394L5.17093 1.13946C5.26637 1.21369 5.34084 1.31292 5.38667 1.42679L5.39604 1.45141L5.40087 1.46561C5.41168 1.4989 5.41888 1.53334 5.42223 1.56831C5.42226 1.56856 5.42229 1.56894 5.42234 1.56946C5.4225 1.57102 5.42276 1.57381 5.42318 1.5777C5.42402 1.58551 5.42541 1.59786 5.42739 1.61423C5.43136 1.64701 5.43773 1.69575 5.44698 1.75643C5.46556 1.87838 5.49536 2.04567 5.54009 2.22737C5.63592 2.61671 5.77725 2.97336 5.94958 3.1512C6.12189 3.32902 6.46743 3.47486 6.84469 3.57375C7.02075 3.6199 7.18289 3.65064 7.30106 3.66982C7.35986 3.67936 7.40708 3.68593 7.43884 3.69002C7.4547 3.69207 7.46667 3.69351 7.47424 3.69438C7.47799 3.69481 7.48065 3.69507 7.48217 3.69523L7.48312 3.69535C7.52191 3.69931 7.56014 3.70843 7.5967 3.72243C7.71708 3.76854 7.82193 3.84924 7.89899 3.95474L7.91402 3.97616L7.92823 3.9982C7.99725 4.10946 8.0341 4.23895 8.0341 4.3714C8.03409 4.51268 7.9922 4.65059 7.91402 4.7666C7.83584 4.88261 7.7251 4.97119 7.5967 5.02038C7.56014 5.03438 7.52198 5.04345 7.48317 5.0474L7.48306 5.04746Z" fill="currentColor"/>
</svg>
