<svg width="16" height="16" viewBox="0 0 16 16" fill="none" xmlns="http://www.w3.org/2000/svg">
  <path d="M6 1.5C6.5 4.5 7 6 7.5 6.8C8 7.5 9 8 12 8.5C9 9 8 9.5 7.5 10.2C7 11 6.5 12.5 6 15.5C5.5 12.5 5 11 4.5 10.2C4 9.5 3 9 0 8.5C3 8 4 7.5 4.5 6.8C5 6 5.5 4.5 6 1.5Z" fill="currentColor"/>
  <path d="M12.5 0C12.75 1.75 13 2.5 13.25 2.9C13.5 3.25 14 3.5 16 3.75C14 4 13.5 4.25 13.25 4.6C13 5 12.75 5.75 12.5 7.5C12.25 5.75 12 5 11.75 4.6C11.5 4.25 11 4 9 3.75C11 3.5 11.5 3.25 11.75 2.9C12 2.5 12.25 1.75 12.5 0Z" fill="currentColor"/>
</svg>
