<svg width="16" height="16" viewBox="0 0 16 16" fill="none" xmlns="http://www.w3.org/2000/svg">
<path d="M7.28205 2.3057C7.39764 2.3057 7.51043 2.34151 7.60527 2.40827C7.70011 2.47505 7.77242 2.5696 7.81245 2.67916L8.666 5.01939C9.04396 6.05575 9.85252 6.87268 10.8782 7.25456L13.1945 8.11695C13.3029 8.1574 13.3965 8.23046 13.4626 8.32628C13.5287 8.4221 13.5641 8.53607 13.5641 8.65285C13.5641 8.76963 13.5287 8.8836 13.4626 8.97942C13.3965 9.07524 13.3029 9.1483 13.1945 9.18874L10.8782 10.0511C9.85252 10.433 9.04396 11.25 8.666 12.2863L7.81245 14.6265C7.77242 14.7361 7.70011 14.8307 7.60527 14.8974C7.51043 14.9642 7.39764 15 7.28205 15C7.16647 15 7.05367 14.9642 6.95883 14.8974C6.864 14.8307 6.79168 14.7361 6.75165 14.6265L5.89811 12.2863C5.52014 11.25 4.71158 10.433 3.68586 10.0511L1.36963 9.18874C1.26119 9.1483 1.16761 9.07524 1.10152 8.97942C1.03544 8.8836 1 8.76963 1 8.65285C1 8.53607 1.03544 8.4221 1.10152 8.32628C1.16761 8.23046 1.26119 8.1574 1.36963 8.11695L3.68586 7.25456C4.71158 6.87268 5.52014 6.05575 5.89811 5.01939L6.75165 2.67916C6.79168 2.5696 6.864 2.47505 6.95883 2.40827C7.05367 2.34151 7.16647 2.3057 7.28205 2.3057ZM12.7744 1C12.8153 1 12.8553 1.01269 12.8889 1.03634C12.9225 1.06 12.9481 1.09351 12.9623 1.13233L13.2924 2.0375C13.4087 2.35638 13.6575 2.60777 13.9731 2.72528L14.869 3.05886C14.9075 3.07319 14.9406 3.09908 14.964 3.13303C14.9874 3.16697 15 3.20733 15 3.2487C15 3.29007 14.9874 3.33044 14.964 3.36438C14.9406 3.39833 14.9075 3.42422 14.869 3.43855L13.9731 3.77213C13.6575 3.88964 13.4087 4.14103 13.2924 4.45991L12.9623 5.36508C12.9481 5.4039 12.9225 5.43741 12.8889 5.46107C12.8553 5.48472 12.8153 5.49741 12.7744 5.49741C12.7334 5.49741 12.6935 5.48472 12.6599 5.46107C12.6263 5.43741 12.6006 5.4039 12.5865 5.36508L12.2563 4.45991C12.14 4.14103 11.8912 3.88964 11.5756 3.77213L10.6797 3.43855C10.6413 3.42422 10.6081 3.39833 10.5847 3.36438C10.5613 3.33044 10.5487 3.29007 10.5487 3.2487C10.5487 3.20733 10.5613 3.16697 10.5847 3.13303C10.6081 3.09908 10.6413 3.07319 10.6797 3.05886L11.5756 2.72528C11.8912 2.60777 12.14 2.35638 12.2563 2.0375L12.5865 1.13233C12.6006 1.09351 12.6263 1.06 12.6599 1.03634C12.6935 1.01269 12.7334 1 12.7744 1Z" fill="currentColor"/>
</svg>
