<svg width="16" height="16" viewBox="0 0 16 16" fill="none" xmlns="http://www.w3.org/2000/svg">
<path d="M14.7583 10.594C14.6843 10.5456 14.5998 10.5174 14.5126 10.5119C14.4253 10.5065 14.3382 10.5241 14.2592 10.5631C14.0617 10.6601 13.8437 10.7037 13.6255 10.6898C13.4074 10.6758 13.1962 10.6049 13.0116 10.4834C12.8269 10.362 12.6749 10.1941 12.5695 9.99521C12.4641 9.79637 12.4088 9.57309 12.4088 9.34612C12.4088 9.11916 12.4641 8.89587 12.5695 8.69703C12.6749 8.49819 12.8269 8.33025 13.0116 8.20882C13.1962 8.08739 13.4074 8.01642 13.6255 8.0025C13.8437 7.98857 14.0617 8.03216 14.2592 8.12919C14.3383 8.16815 14.4255 8.1857 14.5128 8.18021C14.6002 8.17472 14.6847 8.14637 14.7587 8.0978C14.8326 8.04923 14.8935 7.98201 14.9357 7.90241C14.9779 7.82281 15 7.73342 15 7.64256V4.76918C15 4.48356 14.8907 4.20963 14.6963 4.00767C14.5018 3.80571 14.2381 3.69225 13.963 3.69225H11.6156C11.6252 3.60285 11.63 3.51297 11.6299 3.42301C11.6294 3.09208 11.5638 2.76473 11.4372 2.46103C11.3106 2.15733 11.1256 1.88368 10.8936 1.65685C10.5723 1.34347 10.1721 1.13102 9.73939 1.04409C9.30664 0.957165 8.85904 0.999321 8.4484 1.16568C8.03777 1.33203 7.68091 1.61579 7.41915 1.98408C7.15739 2.35237 7.00143 2.79013 6.96934 3.24667C6.95938 3.39517 6.96242 3.54431 6.97841 3.69225H4.63033C4.35531 3.69225 4.09156 3.80571 3.89709 4.00767C3.70262 4.20963 3.59337 4.48356 3.59337 4.76918V6.93784C3.50729 6.92782 3.42074 6.92288 3.33412 6.92303C3.01547 6.92357 2.70028 6.99166 2.40786 7.12314C2.11543 7.25461 1.85193 7.44671 1.6335 7.68765C1.4135 7.929 1.2441 8.21512 1.136 8.52792C1.0279 8.84073 0.983463 9.17342 1.00549 9.50497C1.04264 10.0888 1.2815 10.639 1.67813 11.0545C2.07477 11.4701 2.60252 11.7229 3.16432 11.7665C3.30731 11.7772 3.45094 11.774 3.59337 11.7571V13.9231C3.59337 14.2087 3.70262 14.4826 3.89709 14.6846C4.09156 14.8865 4.35531 15 4.63033 15H13.963C14.2381 15 14.5018 14.8865 14.6963 14.6846C14.8907 14.4826 15 14.2087 15 13.9231V11.0497C15.0001 10.9587 14.9779 10.8692 14.9356 10.7895C14.8934 10.7098 14.8323 10.6426 14.7583 10.594ZM13.963 13.9231H4.63033V11.0497C4.63036 10.9588 4.60825 10.8694 4.56606 10.7898C4.52386 10.7102 4.46296 10.643 4.38902 10.5944C4.31508 10.5459 4.2305 10.5175 4.14317 10.512C4.05584 10.5065 3.96859 10.5241 3.88955 10.5631C3.69199 10.6601 3.474 10.7037 3.25587 10.6898C3.03774 10.6758 2.82653 10.6049 2.6419 10.4834C2.45726 10.362 2.30518 10.1941 2.19981 9.99521C2.09443 9.79637 2.03917 9.57309 2.03917 9.34612C2.03917 9.11916 2.09443 8.89587 2.19981 8.69703C2.30518 8.49819 2.45726 8.33025 2.6419 8.20882C2.82653 8.08739 3.03774 8.01642 3.25587 8.0025C3.474 7.98857 3.69199 8.03216 3.88955 8.12919C3.96859 8.16815 4.05584 8.1857 4.14317 8.18021C4.2305 8.17472 4.31508 8.14637 4.38902 8.0978C4.46296 8.04923 4.52386 7.98201 4.56606 7.90241C4.60825 7.82281 4.63036 7.73342 4.63033 7.64256V4.76918H7.65633C7.74382 4.76921 7.8299 4.74624 7.90654 4.70242C7.98319 4.6586 8.04791 4.59535 8.09468 4.51856C8.14145 4.44177 8.16875 4.35394 8.17404 4.26324C8.17932 4.17254 8.16242 4.08193 8.12491 3.99984C8.03148 3.79467 7.98951 3.56828 8.00292 3.34174C8.01632 3.1152 8.08466 2.89586 8.20159 2.70411C8.31851 2.51236 8.48022 2.35442 8.67168 2.24498C8.86314 2.13554 9.07814 2.07816 9.29668 2.07816C9.51523 2.07816 9.73023 2.13554 9.92169 2.24498C10.1131 2.35442 10.2749 2.51236 10.3918 2.70411C10.5087 2.89586 10.577 3.1152 10.5905 3.34174C10.6039 3.56828 10.5619 3.79467 10.4685 3.99984C10.4309 4.08193 10.414 4.17254 10.4193 4.26324C10.4246 4.35394 10.4519 4.44177 10.4987 4.51856C10.5455 4.59535 10.6102 4.6586 10.6868 4.70242C10.7635 4.74624 10.8495 4.76921 10.937 4.76918H13.963V6.93851C13.8206 6.92157 13.677 6.91841 13.534 6.92909C12.9305 6.97347 12.3673 7.25952 11.963 7.72692C11.5588 8.19431 11.3451 8.8065 11.3672 9.43435C11.3892 10.0622 11.6452 10.6566 12.0811 11.0922C12.517 11.5278 13.0988 11.7706 13.7038 11.7692C13.7904 11.7694 13.877 11.7644 13.963 11.7544V13.9231Z" fill="currentColor"/>
</svg>
