<svg width="16" height="16" viewBox="0 0 16 16" fill="none" xmlns="http://www.w3.org/2000/svg">
<path d="M14.8487 14.166L8.44127 1.32869C8.31536 1.05052 8.18904 1 8.03773 1C7.91181 1 7.76009 1.05055 7.60878 1.30321C6.7008 2.74363 6.29725 4.41168 6.29725 6.15528C6.29725 8.58133 7.53332 10.8558 9.34963 14.5197C9.5514 14.9244 9.70275 15 10.0558 15H14.4952C14.8233 15 15 14.8738 15 14.6208C15 14.4946 14.9746 14.4187 14.8487 14.166ZM5.54062 8.10108C5.03581 7.34308 4.88446 7.29253 4.75855 7.29253C4.63226 7.29253 4.55678 7.34308 4.3296 7.79787L1.12629 14.2165C1.0254 14.4187 1 14.4947 1 14.5957C1 14.7979 1.17675 15 1.55486 15H6.07008C6.37274 15 6.59991 14.7473 6.72623 14.2671C6.87755 13.6606 6.928 13.1298 6.928 12.4984C6.928 10.7293 6.14594 9.01071 5.54062 8.10108Z" fill="currentColor"/>
</svg>
