<svg width="16" height="16" viewBox="0 0 16 16" fill="currentColor" xmlns="http://www.w3.org/2000/svg">
<path fill-rule="evenodd" clip-rule="evenodd" d="M3.04082 1.96552C3.02458 1.96552 3.00901 1.97187 2.99752 1.98319C2.98604 1.99451 2.97959 2.00986 2.97959 2.02586V13.9741C2.97959 13.9901 2.98604 14.0055 2.99752 14.0168C3.00901 14.0281 3.02458 14.0345 3.04082 14.0345H12.9592C12.9754 14.0345 12.991 14.0281 13.0025 14.0168C13.014 14.0055 13.0204 13.9901 13.0204 13.9741V5.76724H9.65306C9.38255 5.76724 9.16327 5.5511 9.16327 5.28448V1.96552H3.04082ZM10.1429 4.80172H12.3277L10.1429 2.64824V4.80172ZM14 13.9741V5.28448L9.65306 1H3.04082C2.76477 1 2.50004 1.10808 2.30485 1.30047C2.10966 1.49285 2 1.75379 2 2.02586V13.9741C2 14.2462 2.10966 14.5071 2.30485 14.6995C2.50004 14.8919 2.76478 15 3.04082 15H12.9592C13.2352 15 13.5 14.8919 13.6952 14.6995C13.8903 14.5071 14 14.2462 14 13.9741ZM6.0316 4.90417C6.45607 4.90417 6.86296 5.07081 7.16279 5.36711L7.16469 5.369L10.9114 9.12291C11.3188 9.53213 11.5462 10.084 11.5439 10.6576C11.5415 11.2313 11.3099 11.781 10.8991 12.1869C10.4883 12.5929 9.93154 12.8222 9.35012 12.8245C8.76871 12.8268 8.21011 12.602 7.79595 12.1994L7.79389 12.1974L4.69801 9.1425C4.54508 8.99159 4.54522 8.74706 4.69833 8.59632C4.85144 8.44559 5.09954 8.44572 5.25247 8.59663L8.34724 11.6504C8.61408 11.9094 8.97334 12.0536 9.34692 12.0521C9.72095 12.0506 10.0794 11.9031 10.3442 11.6414C10.609 11.3797 10.7587 11.025 10.7602 10.6545C10.7617 10.284 10.6151 9.92818 10.3525 9.66436L6.60708 5.91173C6.45413 5.76104 6.24717 5.67658 6.0316 5.67658C5.81563 5.67658 5.60829 5.76135 5.45527 5.91258C5.30221 6.06383 5.21603 6.26919 5.21603 6.48353C5.21603 6.69787 5.30221 6.90323 5.45527 7.05448L5.45716 7.05636L9.20016 10.8062C9.23988 10.8433 9.29236 10.8636 9.34664 10.8632C9.40195 10.8628 9.45509 10.841 9.49452 10.802C9.53398 10.763 9.55652 10.7101 9.55694 10.6545C9.55736 10.5993 9.53589 10.5463 9.49744 10.5068L6.35554 7.35052C6.20398 7.19827 6.20634 6.95375 6.36081 6.80436C6.51528 6.65498 6.76337 6.65731 6.91493 6.80956L10.058 9.96696L10.0598 9.96879C10.2418 10.1541 10.3426 10.4025 10.3406 10.6603C10.3386 10.9181 10.2341 11.165 10.0493 11.3476C9.86439 11.5302 9.61403 11.6338 9.35221 11.6356C9.0904 11.6375 8.83856 11.5374 8.65109 11.3574L8.64519 11.3516L4.8994 7.59895C4.60023 7.30278 4.43236 6.90161 4.43236 6.48353C4.43236 6.06498 4.6006 5.66337 4.90041 5.36711C5.20024 5.07081 5.60713 4.90417 6.0316 4.90417Z" fill="currentColor"/>
</svg>
