<svg width="16" height="16" viewBox="0 0 16 16" fill="none" xmlns="http://www.w3.org/2000/svg">
  <path
    d="M15.5 8C15.4993 7.36392 15.3112 6.74103 14.9572 6.20341C14.6033 5.66578 14.0981 5.23541 13.5001 4.96209V4.87866C13.4995 4.25992 13.2915 3.6578 12.907 3.16139C12.5225 2.66497 11.9817 2.30064 11.3649 2.12229C10.748 1.94394 10.0877 1.96106 9.48176 2.1711C8.8758 2.38115 8.35634 2.77296 8.00023 3.28858C7.64413 2.77296 7.12466 2.38115 6.5187 2.1711C5.91274 1.96106 5.25247 1.94394 4.6356 2.12229C4.01872 2.30064 3.47801 2.66497 3.09347 3.16139C2.70893 3.6578 2.50098 4.25992 2.50041 4.87866V4.96209C1.90189 5.23466 1.39619 5.66477 1.04208 6.20242C0.687975 6.74008 0.5 7.36321 0.5 7.9994C0.5 8.63559 0.687975 9.25872 1.04208 9.79638C1.39619 10.334 1.90189 10.7641 2.50041 11.0367V11.1213C2.50098 11.7401 2.70893 12.3422 3.09347 12.8386C3.47801 13.335 4.01872 13.6994 4.6356 13.8777C5.25247 14.0561 5.91274 14.0389 6.5187 13.8289C7.12466 13.6189 7.64413 13.227 8.00023 12.7114C8.35634 13.227 8.8758 13.6189 9.48176 13.8289C10.0877 14.0389 10.748 14.0561 11.3649 13.8777C11.9817 13.6994 12.5225 13.335 12.907 12.8386C13.2915 12.3422 13.4995 11.7401 13.5001 11.1213V11.0367C14.098 10.7636 14.6031 10.3334 14.9571 9.79602C15.311 9.2586 15.4993 8.6359 15.5 8ZM5.50031 13.0422C5.00717 13.0421 4.53144 12.867 4.16449 12.5506C3.79755 12.2342 3.56526 11.7987 3.51225 11.3278C3.67393 11.35 3.83704 11.3612 4.00036 11.3614H4.50034C4.63295 11.3614 4.76012 11.3109 4.85389 11.2208C4.94765 11.1307 5.00033 11.0086 5.00033 10.8812C5.00033 10.7539 4.94765 10.6317 4.85389 10.5417C4.76012 10.4516 4.63295 10.401 4.50034 10.401H4.00036C3.4101 10.4017 2.83864 10.2017 2.38715 9.83658C1.93565 9.47141 1.63325 8.96458 1.53349 8.40583C1.43372 7.84708 1.54302 7.27245 1.84204 6.78367C2.14105 6.29488 2.6105 5.92349 3.16726 5.73523C3.26468 5.7021 3.34901 5.6408 3.40867 5.55975C3.46832 5.4787 3.50036 5.38189 3.50037 5.28263V4.87866C3.50037 4.36922 3.71108 3.88065 4.08614 3.52043C4.4612 3.16021 4.9699 2.95783 5.50031 2.95783C6.03073 2.95783 6.53942 3.16021 6.91448 3.52043C7.28954 3.88065 7.50025 4.36922 7.50025 4.87866V8.97602C6.95121 8.50175 6.23875 8.23958 5.50031 8.2401C5.36771 8.2401 5.24054 8.2907 5.14677 8.38075C5.053 8.47081 5.00033 8.59295 5.00033 8.72031C5.00033 8.84767 5.053 8.96981 5.14677 9.05987C5.24054 9.14992 5.36771 9.20052 5.50031 9.20052C6.03073 9.20052 6.53942 9.40289 6.91448 9.76311C7.28954 10.1233 7.50025 10.6119 7.50025 11.1213C7.50025 11.6308 7.28954 12.1193 6.91448 12.4796C6.53942 12.8398 6.03073 13.0422 5.50031 13.0422ZM12.0001 10.401H11.5001C11.3675 10.401 11.2403 10.4516 11.1466 10.5417C11.0528 10.6317 11.0001 10.7539 11.0001 10.8812C11.0001 11.0086 11.0528 11.1307 11.1466 11.2208C11.2403 11.3109 11.3675 11.3614 11.5001 11.3614H12.0001C12.1634 11.3612 12.3265 11.35 12.4882 11.3278C12.4467 11.6968 12.2948 12.0463 12.0508 12.3341C11.8068 12.6219 11.4813 12.8356 11.1136 12.9495C10.7458 13.0634 10.3516 13.0725 9.97854 12.9758C9.6055 12.879 9.26963 12.6806 9.01153 12.4044C8.75344 12.1282 8.58416 11.7861 8.52418 11.4195C8.4642 11.0529 8.51607 10.6775 8.67353 10.3386C8.83099 9.99968 9.0873 9.71184 9.41146 9.50988C9.73563 9.30791 10.1138 9.20046 10.5002 9.20052C10.6328 9.20052 10.7599 9.14992 10.8537 9.05987C10.9475 8.96981 11.0001 8.84767 11.0001 8.72031C11.0001 8.59295 10.9475 8.47081 10.8537 8.38075C10.7599 8.2907 10.6328 8.2401 10.5002 8.2401C9.76172 8.23958 9.04925 8.50175 8.50022 8.97602V4.87866C8.50022 4.36922 8.71093 3.88065 9.08599 3.52043C9.46105 3.16021 9.96974 2.95783 10.5002 2.95783C11.0306 2.95783 11.5393 3.16021 11.9143 3.52043C12.2894 3.88065 12.5001 4.36922 12.5001 4.87866V5.28263C12.5001 5.38189 12.5321 5.4787 12.5918 5.55975C12.6515 5.6408 12.7358 5.7021 12.8332 5.73523C13.39 5.92349 13.8594 6.29488 14.1584 6.78367C14.4574 7.27245 14.5668 7.84708 14.467 8.40583C14.3672 8.96458 14.0648 9.47141 13.6133 9.83658C13.1618 10.2017 12.5904 10.4017 12.0001 10.401ZM13.0001 7.27969C13.0001 7.40705 12.9474 7.52919 12.8536 7.61925C12.7599 7.7093 12.6327 7.7599 12.5001 7.7599H12.2501C11.6534 7.7599 11.0811 7.53223 10.6592 7.12698C10.2372 6.72172 10.0002 6.17208 10.0002 5.59897V5.35887C10.0002 5.23151 10.0528 5.10936 10.1466 5.01931C10.2404 4.92925 10.3676 4.87866 10.5002 4.87866C10.6328 4.87866 10.7599 4.92925 10.8537 5.01931C10.9475 5.10936 11.0001 5.23151 11.0001 5.35887V5.59897C11.0001 5.91736 11.1318 6.22272 11.3662 6.44786C11.6007 6.673 11.9186 6.79948 12.2501 6.79948H12.5001C12.6327 6.79948 12.7599 6.85008 12.8536 6.94013C12.9474 7.03019 13.0001 7.15233 13.0001 7.27969ZM3.75037 7.7599H3.50037C3.36777 7.7599 3.2406 7.7093 3.14683 7.61925C3.05307 7.52919 3.00039 7.40705 3.00039 7.27969C3.00039 7.15233 3.05307 7.03019 3.14683 6.94013C3.2406 6.85008 3.36777 6.79948 3.50037 6.79948H3.75037C4.08188 6.79948 4.39981 6.673 4.63422 6.44786C4.86864 6.22272 5.00033 5.91736 5.00033 5.59897V5.35887C5.00033 5.23151 5.053 5.10936 5.14677 5.01931C5.24054 4.92925 5.36771 4.87866 5.50031 4.87866C5.63292 4.87866 5.76009 4.92925 5.85385 5.01931C5.94762 5.10936 6.0003 5.23151 6.0003 5.35887V5.59897C6.0003 6.17208 5.76325 6.72172 5.34131 7.12698C4.91936 7.53223 4.34709 7.7599 3.75037 7.7599Z"
    fill="currentColor" />
</svg>