<svg width="16" height="16" viewBox="0 0 16 16" fill="none" xmlns="http://www.w3.org/2000/svg">
<path d="M13.9231 3.66667L11.2308 3.66667V3.125C11.2308 2.69402 11.0606 2.2807 10.7576 1.97595C10.4547 1.6712 10.0438 1.5 9.61539 1.5L6.38462 1.5C5.95619 1.5 5.54531 1.6712 5.24237 1.97595C4.93942 2.2807 4.76923 2.69402 4.76923 3.125V3.66667H2.07692C1.79131 3.66667 1.51739 3.7808 1.31542 3.98397C1.11346 4.18713 1 4.46268 1 4.75L1 13.4167C1 13.704 1.11346 13.9795 1.31542 14.1827C1.51739 14.3859 1.79131 14.5 2.07692 14.5H13.9231C14.2087 14.5 14.4826 14.3859 14.6846 14.1827C14.8865 13.9795 15 13.704 15 13.4167V4.75C15 4.46268 14.8865 4.18713 14.6846 3.98397C14.4826 3.7808 14.2087 3.66667 13.9231 3.66667ZM5.84615 3.125C5.84615 2.98134 5.90288 2.84357 6.00387 2.74198C6.10485 2.6404 6.24181 2.58333 6.38462 2.58333L9.61539 2.58333C9.75819 2.58333 9.89515 2.6404 9.99614 2.74198C10.0971 2.84357 10.1538 2.98134 10.1538 3.125V3.66667H5.84615V3.125ZM13.9231 4.75V7.56734C12.1056 8.56251 10.0693 9.08371 8 9.08333C5.93083 9.08371 3.89452 8.56276 2.07692 7.56802L2.07692 4.75L13.9231 4.75ZM13.9231 13.4167H2.07692L2.07692 8.78813C3.9211 9.69555 5.94703 10.1671 8 10.1667C10.053 10.1667 12.0789 9.69497 13.9231 8.78745V13.4167ZM6.38462 7.45833C6.38462 7.31467 6.44135 7.1769 6.54233 7.07532C6.64331 6.97374 6.78027 6.91667 6.92308 6.91667L9.07692 6.91667C9.21973 6.91667 9.35669 6.97374 9.45767 7.07532C9.55865 7.1769 9.61539 7.31467 9.61539 7.45833C9.61539 7.60199 9.55865 7.73977 9.45767 7.84135C9.35669 7.94293 9.21973 8 9.07692 8H6.92308C6.78027 8 6.64331 7.94293 6.54233 7.84135C6.44135 7.73977 6.38462 7.60199 6.38462 7.45833Z" fill="currentColor"/>
</svg>
