<svg width="16" height="16" viewBox="0 0 16 16" fill="none" xmlns="http://www.w3.org/2000/svg">
<path d="M9.20318 1.39129C10.4146 0.985756 11.5764 0.883708 12.5552 1.14038L12.5695 1.14419L12.578 1.14621L12.587 1.14886C12.8607 1.22313 13.1126 1.32379 13.3418 1.44863L13.3512 1.45342L13.3587 1.45792C13.6856 1.63857 13.9659 1.86882 14.1976 2.1422L14.2072 2.15279L14.2194 2.1683C14.2481 2.20285 14.2759 2.23809 14.303 2.27398L14.3043 2.27524L14.305 2.27608L14.3107 2.28423C14.3762 2.37187 14.4372 2.46342 14.4936 2.55868L14.4986 2.56525H14.4975C14.5143 2.59382 14.5308 2.62274 14.5467 2.65197L14.5483 2.65496C14.5486 2.65543 14.5488 2.65591 14.5491 2.65637L14.5539 2.66466C14.5579 2.6719 14.5614 2.67917 14.5653 2.68644L14.5684 2.69216C14.5857 2.72488 14.6024 2.758 14.6187 2.79152L14.6247 2.80355L14.6258 2.80621C14.6414 2.83866 14.6564 2.87148 14.671 2.90466L14.6734 2.90931L14.6758 2.9155C14.7199 3.01676 14.7597 3.12136 14.7948 3.22912C14.7979 3.23851 14.801 3.24792 14.8039 3.25735L14.8045 3.25784L14.8049 3.25947L14.8066 3.26582C14.8392 3.36928 14.8677 3.47562 14.8921 3.58464L14.8934 3.58865L14.8937 3.58943L14.9022 3.62998L14.9033 3.63625C14.911 3.67323 14.9183 3.71053 14.9251 3.74811L14.9264 3.75397H14.9278V3.76264C14.9485 3.87909 14.9646 3.99839 14.9762 4.12037L14.9763 4.12126C14.9879 4.24244 14.9948 4.3669 14.9972 4.49323L14.9975 4.49574L14.9975 4.49652L14.9981 4.50268L14.9975 4.51019C14.9984 4.56578 14.9984 4.62186 14.9975 4.67839V4.68922L14.9975 4.6952C14.995 4.82302 14.9879 4.95322 14.9764 5.0856V5.08859C14.9598 5.27829 14.9336 5.47252 14.8981 5.67079L14.8938 5.69669L14.888 5.72619C14.8072 6.15822 14.6814 6.60912 14.5091 7.07416L14.5024 7.09363L14.4979 7.10674L14.4918 7.09624C14.4908 7.09535 14.4901 7.09414 14.4898 7.0928L14.3662 6.87907L14.2394 6.66348L14.108 6.4527L14.1046 6.44731L13.9698 6.23986L13.9689 6.23852L13.8273 6.02701L13.7427 5.90657L13.6815 5.8178L13.6797 5.81529L13.5293 5.61058L13.4405 5.49216L13.3749 5.40329L13.3733 5.40112L13.3738 5.39864C13.3738 5.39858 13.3738 5.39871 13.3738 5.39864L13.3927 5.28683V5.28277L13.4076 5.17655L13.4193 5.08859L13.4204 5.08101L13.4209 5.07801L13.4224 5.07062L13.4329 4.96529L13.4393 4.8619L13.4456 4.76269L13.4477 4.66332L13.4477 4.66244V4.6571L13.4498 4.56846L13.4479 4.50268L13.4477 4.49697V4.4755L13.4435 4.38457L13.4376 4.31446L13.4371 4.30866V4.29796L13.4287 4.21174L13.4182 4.13144L13.4055 4.05125L13.3946 3.98373L13.3929 3.97324L13.3845 3.94395L13.3759 3.89897L13.3591 3.82973L13.3589 3.82888L13.3415 3.77089H13.3399V3.76554L13.3399 3.76456V3.76127L13.3191 3.69676L13.2979 3.63331L13.2812 3.59355L13.2748 3.5744L13.2496 3.51764L13.2246 3.46363L13.2242 3.46282L13.2237 3.46168L13.1969 3.4101L13.1695 3.35963L13.1401 3.31126L13.1085 3.26484L13.0769 3.22062L13.0115 3.13619L12.9398 3.06032L12.8873 3.01199L12.8327 2.96367L12.7737 2.91726L12.719 2.8795L12.7127 2.87518L12.6643 2.84393L12.6474 2.833L12.6075 2.81201L12.5777 2.795L12.5041 2.75713L12.4263 2.72349L12.344 2.69182L12.2788 2.67288L12.2557 2.66447L12.1627 2.63909L12.0657 2.61589L11.9625 2.59482L11.9551 2.59367L11.8548 2.57791L11.7408 2.56523L11.6207 2.55679L11.4965 2.55259H11.3661L11.2322 2.55467L11.0929 2.56523L11.0243 2.5713L10.9491 2.57795L10.8036 2.5948L10.6515 2.61804L10.4972 2.64766L10.3388 2.68147L10.3381 2.68162L10.1773 2.71923L10.1762 2.71951L10.0114 2.76387L9.84463 2.81241L9.83846 2.81439L9.67358 2.86736L9.50233 2.92871L9.37138 2.97941L9.33077 2.99487L9.32701 2.99633L9.1517 3.06814L8.97446 3.14413L8.7945 3.22673L8.61708 3.31442L8.61511 3.31546L8.61378 3.31616L8.4333 3.40842L8.2515 3.50574L8.06975 3.60722L7.88807 3.715L7.7613 3.79322L7.7041 3.82711L7.65611 3.8578L7.52248 3.94332L7.48678 3.96853L7.34296 4.06372L7.33948 4.06617L7.22247 4.14834L7.16108 4.19067L6.98148 4.31961L6.81072 4.44772L6.80398 4.45278L6.71947 4.51829L6.62646 4.59021L6.49455 4.6973L6.48138 4.70799L6.48068 4.70856L6.45099 4.73191L6.27786 4.8776L6.1067 5.02769L5.93842 5.18134L5.93762 5.18208L5.77057 5.33647L5.60789 5.4971L5.60579 5.49918L5.44513 5.65994L5.28883 5.82469L5.21061 5.90935L5.13391 5.9902L5.13235 5.99187L4.98239 6.16297L4.8346 6.33404L4.83294 6.33655L4.6886 6.50977L4.66328 6.54141L4.547 6.68524L4.49423 6.75489L4.41952 6.85263L4.41177 6.8628L4.27865 7.04028L4.14975 7.22001L4.02502 7.39979L3.90464 7.58146L3.79239 7.75704L3.78838 7.76328L3.78729 7.76506L3.67903 7.94419L3.6785 7.94509L3.61508 8.05295L3.57067 8.12703L3.57026 8.12773L3.49255 8.27065L3.46934 8.30858L3.46757 8.31202L3.37635 8.48836L3.37587 8.48924L3.37514 8.48994L3.37383 8.49129L3.2834 8.67213L3.26863 8.70389L3.19887 8.85185L3.11899 9.03059L3.07419 9.13515L3.04252 9.20903L2.97536 9.38326L2.97497 9.38436L2.90978 9.5568L2.9098 9.55987L2.90981 9.56628H2.90792L2.8502 9.73123L2.83758 9.77324L2.79742 9.90026L2.77421 9.98253L2.74881 10.0673L2.71926 10.1813L2.7066 10.2299L2.6746 10.3679L2.67279 10.3758L2.66855 10.3927L2.63688 10.549L2.60944 10.703L2.6093 10.7041L2.58833 10.8531L2.58795 10.8565L2.57776 10.9503L2.57156 10.9978L2.57143 10.9987L2.56096 11.1393L2.56093 11.1399L2.56096 11.1463L2.55245 11.2778L2.55242 11.2985L2.55245 11.3197V11.326L2.55032 11.4108L2.55245 11.4993V11.5376L2.55876 11.6595L2.56023 11.6729L2.56087 11.6785L2.56932 11.778L2.57987 11.8518L2.584 11.8891L2.58411 11.8899L2.60303 11.9974L2.62414 12.1008L2.64668 12.1951L2.64742 12.198L2.6747 12.2884L2.69648 12.3497L2.69772 12.3533L2.69796 12.3539L2.70373 12.3732L2.7043 12.3751L2.73596 12.4553L2.7717 12.531L2.80747 12.6047L2.84544 12.668L2.84633 12.6695V12.6735L2.86074 12.6952L2.88742 12.7352L2.93178 12.7965L2.97787 12.8531L3.0264 12.9059L3.07689 12.9585L3.07927 12.9607L3.12904 13.0065L3.12953 13.0069L3.18435 13.0533L3.24322 13.0975L3.29644 13.1323L3.29841 13.1336L3.30366 13.1376L3.30649 13.1397L3.37369 13.1796L3.39172 13.1892L3.4454 13.2176L3.51926 13.2535L3.59886 13.287L3.66248 13.3109L3.68359 13.3188L3.76483 13.344L3.77195 13.3462L3.86703 13.3716L3.96601 13.3926L4.07146 13.4116L4.11528 13.4179L4.11598 13.4179L4.18152 13.4285L4.27639 13.4372L4.2972 13.439L4.35544 13.4431L4.41753 13.4475L4.54428 13.4517L4.67516 13.4496L4.81231 13.4433L4.9517 13.4348L5.09723 13.42L5.24508 13.3989L5.39662 13.3737L5.39992 13.373L5.40219 13.3747L5.4058 13.3775L5.41063 13.3811L5.43433 13.3989L5.43562 13.3998L5.43614 13.4002L5.43838 13.4021L5.48938 13.4406L5.49332 13.4433L5.49467 13.4442L5.49522 13.4445L5.50193 13.4496H5.5062V13.4528L5.51878 13.4623H5.5181L5.60799 13.5302L5.60933 13.5312L5.61177 13.533L5.81644 13.6813L5.89554 13.7373L5.9982 13.8082L6.02564 13.8293L6.17358 13.9265L6.23698 13.971L6.2452 13.9762L6.45051 14.1084L6.45451 14.1109L6.51173 14.1465L6.66387 14.2415L6.66505 14.2422L6.87946 14.3684L6.88436 14.3712L6.90012 14.3803L7.09156 14.4912C7.09335 14.4908 7.09516 14.4913 7.09654 14.4923H7.1285L7.10693 14.5L7.09409 14.5047L7.03487 14.5258L7.03386 14.5262L7.00109 14.5377C6.9546 14.5545 6.90826 14.5708 6.86207 14.5866L6.81924 14.602L6.81821 14.6023L6.66258 14.6528L6.60556 14.6718L6.49066 14.7059H6.49675L6.4488 14.7184L6.41182 14.728C6.35677 14.7436 6.30193 14.7585 6.24737 14.7728L6.2373 14.7755L6.22455 14.7787C6.18699 14.7884 6.14954 14.7978 6.11221 14.8068L6.07573 14.816H6.08202L6.02628 14.8283L6.02558 14.8285L5.98848 14.8367L5.96852 14.8412L5.81831 14.8729L5.76931 14.8817C5.72976 14.8893 5.69037 14.8967 5.65112 14.9035L5.61096 14.9111L5.59059 14.9139C5.53949 14.9224 5.48865 14.9303 5.4381 14.9376L5.40572 14.9428L5.38036 14.9456C5.34417 14.9504 5.30814 14.955 5.27224 14.9592L5.20469 14.9682L5.20081 14.9685L5.15918 14.9714C5.11866 14.9755 5.07834 14.979 5.03822 14.9822L5.00564 14.9852L4.94211 14.9894L4.90361 14.9912C4.8751 14.9928 4.84671 14.9942 4.81842 14.9954L4.81084 14.9957H4.80922L4.80828 14.9958C4.74677 14.9982 4.68578 14.9996 4.62536 14.9998L4.6225 15H4.61256C4.56009 15.0001 4.50805 14.9996 4.45642 14.9982L4.42776 14.9979L4.40785 14.9966C4.37708 14.9956 4.34645 14.9942 4.31599 14.9926L4.24155 14.9894L4.20155 14.9852L4.17831 14.9831C4.15713 14.9814 4.13602 14.9795 4.115 14.9774L4.05987 14.9725L4.01706 14.9682L3.88008 14.9492L3.87931 14.9492L3.83756 14.9429L3.83684 14.9427L3.70577 14.9195L3.66335 14.9111L3.53431 14.8835L3.49388 14.8729L3.36914 14.8411L3.35448 14.8367L3.32659 14.8284L3.32589 14.8281L3.28517 14.816H3.28731L3.20699 14.7906L3.20558 14.7901L3.16933 14.776C3.14633 14.7681 3.12348 14.7598 3.10077 14.7515L3.05034 14.7334L3.04913 14.7331L3.01107 14.7182L2.8968 14.6716L2.86059 14.6525L2.75066 14.6018L2.72137 14.5846C2.70309 14.5751 2.68493 14.5655 2.66688 14.5557L2.60873 14.5255L2.57249 14.5042L2.47095 14.4428L2.41819 14.406C2.40154 14.3948 2.38501 14.3836 2.36862 14.3722L2.33973 14.3538L2.21451 14.2584L2.20611 14.252L2.156 14.2095C2.147 14.202 2.13804 14.1943 2.12913 14.1867L2.09377 14.1567L2.07835 14.1421C2.05624 14.1221 2.03443 14.102 2.01293 14.0814L1.97941 14.0507L1.94841 14.0177C1.90619 13.9748 1.86523 13.9305 1.82556 13.8849L1.78443 13.8388L1.7673 13.8174L1.67209 13.6946L1.67145 13.6936L1.6694 13.6896L1.66181 13.6787C1.64239 13.6519 1.62336 13.6247 1.60472 13.5971L1.5829 13.5659L1.58112 13.5634L1.56603 13.5397L1.56464 13.5375L1.55985 13.53L1.51736 13.4614L1.51673 13.4602L1.51497 13.4566L1.51332 13.4533C1.51197 13.4511 1.5106 13.4488 1.50926 13.4466L1.503 13.4388L1.50241 13.4381L1.50206 13.4372L1.49858 13.4285C1.49774 13.4271 1.4969 13.4256 1.49605 13.4241L1.49423 13.4214L1.48812 13.4104C1.48543 13.4058 1.48275 13.4011 1.48008 13.3964L1.4708 13.381L1.46597 13.3714C1.4606 13.3618 1.45526 13.3521 1.44998 13.3423L1.44123 13.3282L1.4259 13.2994L1.42464 13.297L1.42413 13.2961L1.42158 13.291L1.4198 13.2875L1.40716 13.2621L1.40685 13.2615L1.40257 13.2529L1.39806 13.2428C1.39013 13.2269 1.38231 13.2109 1.37461 13.1949L1.37294 13.1915L1.37156 13.1888L1.37119 13.188L1.3666 13.1789L1.35227 13.1481L1.34833 13.1422L1.3479 13.1415L1.3418 13.1323H1.34413L1.33298 13.1052L1.31921 13.0731C1.31726 13.0686 1.31529 13.0641 1.31336 13.0595L1.29276 13.0142L1.28432 12.9909L1.27539 12.9694L1.27362 12.9653L1.27011 12.9568L1.25461 12.9124L1.25231 12.906C1.24627 12.8897 1.2403 12.8733 1.23446 12.8568L1.22514 12.8345L1.21438 12.8023L1.19531 12.7409L1.17423 12.6775L1.1739 12.6765V12.6721L1.16733 12.6474C1.15959 12.6207 1.15209 12.5936 1.14488 12.5664L1.13609 12.5355L1.13181 12.5184L1.12741 12.4978C1.11772 12.4584 1.10859 12.4187 1.10004 12.3786L1.09382 12.3579L1.09364 12.3571L1.08642 12.3124C1.07905 12.2749 1.07217 12.2372 1.06578 12.1992L1.06413 12.1926L1.06217 12.1848H1.06297L1.05995 12.1636C1.05511 12.1334 1.05057 12.103 1.04635 12.0725L1.03866 12.025L1.03648 11.9992L1.03497 11.9839C1.02721 11.9182 1.02083 11.8519 1.01582 11.785L1.01533 11.7791L1.01503 11.7744C1.01291 11.7453 1.01104 11.7161 1.00944 11.6868L1.00899 11.6796L1.00897 11.6777C1.0059 11.6197 1.00385 11.5612 1.00279 11.5023L1.00263 11.4998V11.4949C0.998829 11.2674 1.00985 11.0339 1.03522 10.7957L1.0386 10.7587L1.0417 10.7376C1.04795 10.6837 1.05492 10.6295 1.06262 10.5751L1.06272 10.5743C1.07146 10.5126 1.08115 10.4506 1.09174 10.3883L1.0936 10.3735L1.106 10.3075C1.1108 10.2811 1.11579 10.2547 1.12092 10.2283L1.12113 10.2271C1.15042 10.0761 1.18505 9.92355 1.2248 9.76999C1.27826 9.56355 1.34112 9.35457 1.41299 9.14463L1.41475 9.13904L1.41742 9.13051L1.41874 9.12637L1.4251 9.1095C1.47086 8.97759 1.5202 8.84504 1.57303 8.71216L1.57816 8.69893L1.57925 8.6965C1.58925 8.67143 1.59936 8.64636 1.60961 8.62135C2.19019 7.20194 3.16719 5.744 4.45548 4.45527L4.51599 4.39509C4.53755 4.37377 4.55919 4.35254 4.58085 4.33139H4.57951L4.5889 4.32355C5.29278 3.63723 6.04419 3.04312 6.81014 2.55469H6.79449L6.82693 2.54397C6.89588 2.50016 6.96497 2.45723 7.03413 2.41514L7.03693 2.41344C7.10826 2.37005 7.17969 2.3276 7.25117 2.28607L7.2518 2.2857C7.7074 2.02109 8.16583 1.7943 8.62033 1.60824C8.81543 1.52837 9.00998 1.45596 9.20318 1.39129ZM10.4113 3.44094C10.4133 3.43893 10.4163 3.43846 10.4187 3.43972L10.4198 3.44042L10.4812 3.49037C13.0742 5.61151 14.8458 8.59112 14.9905 11.085L14.9936 11.1438C15.0097 11.4802 14.9954 11.7989 14.9524 12.0981L14.9519 12.1014C14.9275 12.2708 14.8938 12.4339 14.8513 12.5904L14.8533 12.5909L14.8492 12.5992L14.8488 12.6001L14.8484 12.6009C14.7739 12.8718 14.6728 13.1228 14.5465 13.3524L14.5445 13.357L14.5442 13.3576L14.5438 13.3582L14.542 13.3605C14.5286 13.3848 14.5148 13.4089 14.5008 13.4327L14.4958 13.4419L14.4943 13.4454L14.4919 13.4482L14.4911 13.4496H14.4946L14.4848 13.4596C14.4671 13.4892 14.4488 13.5183 14.4301 13.5471L14.4214 13.5609L14.3748 13.6308L14.3601 13.6505C14.3404 13.6783 14.3202 13.7057 14.2997 13.7327L14.2817 13.7579L14.2467 13.8005C14.2298 13.8215 14.2126 13.8421 14.1952 13.8625L14.1799 13.8809L14.1715 13.8901C14.1452 13.9201 14.1184 13.9496 14.091 13.9785L14.074 13.9974L14.0208 14.0506L13.9617 14.1078L13.9333 14.1329C13.8878 14.1743 13.8409 14.2143 13.7928 14.2529L13.7837 14.2604L13.7202 14.3112L13.6596 14.3536C13.6234 14.3795 13.5864 14.4046 13.5487 14.4291L13.5252 14.4447L13.4554 14.4892L13.3874 14.5275L13.3574 14.5437C13.3439 14.5512 13.3304 14.5586 13.3168 14.5658L13.3133 14.5677L13.3112 14.5688C13.2853 14.5825 13.2592 14.5959 13.2329 14.609L13.1672 14.6419L13.0951 14.6737L13.0168 14.7076L12.9404 14.7373L12.9328 14.7401C12.9092 14.7491 12.8854 14.7578 12.8614 14.7663L12.86 14.7669L12.8586 14.7674C12.8125 14.7838 12.7657 14.7993 12.7184 14.814L12.7013 14.8199L12.6684 14.8291C12.64 14.8375 12.6114 14.8456 12.5825 14.8533L12.536 14.8665L12.5004 14.8745C12.4701 14.8819 12.4397 14.8891 12.4089 14.8958L12.3645 14.9067L12.3363 14.9116L12.3253 14.9134C12.2878 14.9209 12.2498 14.9279 12.2116 14.9345L12.1908 14.9385L12.1901 14.9387L12.1619 14.9427C12.1184 14.9496 12.0745 14.9558 12.0302 14.9615L12.0129 14.9639L12.0122 14.964L11.9819 14.9674C11.9668 14.9692 11.9518 14.9708 11.9366 14.9725L11.9176 14.9746L11.8308 14.983L11.8018 14.9848C11.7663 14.9876 11.7306 14.99 11.6947 14.9919L11.6446 14.9957H11.6431L11.588 14.9968C11.5507 14.998 11.5131 14.9989 11.4753 14.9993L11.4541 15L11.429 14.9997C11.3791 14.9998 11.3288 14.9993 11.278 14.998L11.2614 14.9979L11.19 14.9957H11.1893L11.0652 14.9894H11.0646L11.0083 14.9851C10.9914 14.9838 10.9744 14.9826 10.9574 14.9812L10.8656 14.9746L10.8016 14.9668C10.7683 14.9632 10.7349 14.9595 10.7015 14.9554L10.6645 14.9513L10.6124 14.944C10.6043 14.9429 10.5962 14.9417 10.5882 14.9406L10.5735 14.9386L10.5693 14.938C10.541 14.934 10.5127 14.9298 10.4842 14.9254L10.4599 14.9217L10.4591 14.9217L10.3661 14.9069L10.2518 14.8857L10.202 14.8755C10.175 14.8701 10.1479 14.8647 10.1208 14.859L10.0424 14.8433L9.97788 14.8276C9.93658 14.8181 9.89516 14.8082 9.85373 14.798L9.8307 14.7925L9.7955 14.7833C9.77075 14.777 9.74593 14.7705 9.72111 14.7639L9.61911 14.7375L9.51958 14.7079L9.40331 14.674L9.30474 14.6426L9.30373 14.6422L9.30041 14.6412L9.26503 14.6298H9.26586L9.18746 14.6041L9.13521 14.5852C9.10308 14.5742 9.07088 14.5629 9.03873 14.5514L8.96957 14.528L8.87003 14.4898L8.75161 14.4454L8.66278 14.4084C8.64973 14.4031 8.63668 14.3978 8.62363 14.3925L8.53366 14.3565L8.4321 14.312L8.31367 14.2613L8.24933 14.2305C8.22253 14.2182 8.19581 14.2058 8.16903 14.1934L8.09368 14.1597L7.99193 14.1089L7.87363 14.0518L7.77193 13.9988L7.65357 13.9375L7.552 13.8824L7.43708 13.8198L7.43555 13.8189L7.43473 13.8184L7.41385 13.8071H7.4148L7.33344 13.7605L7.33191 13.7597L7.33051 13.7589L7.31127 13.7478L7.21564 13.692L7.11562 13.6336L7.11406 13.6327L7.11296 13.6321L7.0939 13.621L6.99769 13.5629L6.89777 13.5004L6.89616 13.4994L6.89074 13.496L6.87748 13.4877L6.8391 13.4635L6.83851 13.4631L6.83799 13.4626L6.83646 13.461L6.83392 13.4595L6.82652 13.455L6.81112 13.4454L6.80946 13.4444L6.7862 13.4296L6.78293 13.4274L6.77974 13.4253L6.75435 13.4083L6.71851 13.3851L6.7168 13.384L6.70052 13.3735L6.68967 13.3659C6.68119 13.3604 6.67272 13.3548 6.66424 13.3492L6.62128 13.3217L6.56409 13.2835L6.56139 13.281L6.53336 13.262C6.51722 13.2512 6.50109 13.2403 6.48498 13.2293L6.42611 13.1894L6.42446 13.1883L6.42213 13.1868L6.40738 13.1768L6.35045 13.1376L6.34579 13.1344L6.344 13.1332L6.32678 13.1218H6.32817L6.27898 13.0861C6.23855 13.0574 6.19819 13.0285 6.15791 12.9993L6.13698 12.9853L6.07118 12.9365L5.96965 12.8604L5.92538 12.8287L5.86381 12.7799L5.75395 12.6953L5.73515 12.6798C5.70547 12.6565 5.67581 12.6331 5.64624 12.6094L5.63971 12.6043L5.52126 12.5091L5.51069 12.5006L5.49659 12.4894L5.40066 12.4096L5.30549 12.3292L5.278 12.306L5.21571 12.251C5.19057 12.2293 5.16549 12.2074 5.14046 12.1854L5.10465 12.1558L5.03532 12.0921C5.0196 12.078 5.00389 12.0639 4.98822 12.0498L4.90571 11.9759L4.89489 11.9651L4.85665 11.9293C4.7884 11.866 4.7206 11.802 4.65333 11.7372L4.63495 11.7199L4.61109 11.6964C4.53402 11.6216 4.45764 11.5457 4.38197 11.4688L4.32815 11.415L4.23512 11.3178L4.1461 11.2245L4.14418 11.2226L4.10191 11.1781L3.96877 11.0323L3.96246 11.0259L3.90156 10.9567C3.86947 10.9209 3.83756 10.8848 3.80581 10.8485L3.78462 10.8248L3.70633 10.7338L3.69917 10.7253C3.67572 10.6979 3.65239 10.6704 3.62913 10.6428L3.61113 10.6216L3.60225 10.6111L3.5752 10.5793L3.44808 10.425L3.44579 10.4222L3.44153 10.4158L3.43994 10.4134L3.44069 10.4107L3.46606 10.3155L3.48087 10.2562L3.49144 10.2181L3.52109 10.1187L3.55224 10.021L3.55285 10.0191L3.55357 10.0168L3.57975 9.93639L3.58246 9.92806L3.58617 9.91693L3.58668 9.9154L3.62051 9.81384L3.65862 9.70794L3.70084 9.60238L3.70287 9.59435L3.70314 9.59347L3.7433 9.49617L3.77288 9.42222L3.78774 9.38824L3.83426 9.28031L3.84694 9.25078L3.88509 9.17015L3.88544 9.16939L3.9233 9.08615L3.92743 9.07692L3.93309 9.06566L3.93589 9.06006L3.93766 9.05656L4.01458 8.90263L4.04584 8.84007L4.10512 8.72782L4.10993 8.71872L4.11587 8.72712L4.11639 8.72782L4.24002 8.90186L4.24058 8.90263L4.36735 9.0759L4.43923 9.16901L4.49869 9.2469L4.50056 9.24938L4.63577 9.42056L4.7753 9.59187L4.91681 9.76088L5.00148 9.85666L5.05209 9.91317L5.0628 9.92596L5.21063 10.0908L5.36275 10.2535L5.4198 10.3127L5.51283 10.4079L5.51357 10.4088L5.51745 10.4146L5.67548 10.5706L5.71986 10.6129L5.83612 10.725L5.83742 10.7262L5.99764 10.8739L5.99884 10.875L6.16371 11.0231L6.17842 11.0342H6.17643L6.33057 11.1688L6.49796 11.307L6.49968 11.3084L6.67094 11.4459L6.84247 11.5777L6.84433 11.5791L6.84554 11.5801L7.01733 11.71L7.12094 11.7819L7.19281 11.8348L7.36828 11.9553L7.54373 12.0738L7.72108 12.1857L7.89863 12.2957L7.94076 12.3188L7.96233 12.3307H7.96073L8.07611 12.3992L8.23896 12.4901L8.25378 12.4987L8.43108 12.5937L8.5516 12.655L8.60583 12.6842L8.60665 12.6847L8.7819 12.7691L8.95513 12.8495L9.12833 12.9255L9.13025 12.9263L9.30118 12.9951L9.47077 13.0608L9.5045 13.0731L9.6396 13.122L9.80645 13.177L9.96918 13.2256L10.1297 13.27L10.1307 13.2703L10.1382 13.2722L10.2881 13.3101L10.4445 13.344L10.5959 13.3735L10.7443 13.3968L10.867 13.4137L10.8904 13.4179L11.0294 13.4327L11.1668 13.4433L11.1722 13.4435L11.2998 13.4496L11.4274 13.4517H11.4284L11.5531 13.4496H11.554L11.6711 13.4433L11.7871 13.4327L11.8947 13.4179L11.9534 13.4084L11.998 13.4011L12.0972 13.38L12.1902 13.3567L12.2807 13.3294L12.3466 13.3073L12.363 13.3019L12.4429 13.2704L12.519 13.2365L12.5904 13.2008L12.6579 13.1628L12.7209 13.1229L12.7527 13.1002L12.7801 13.0807L12.79 13.0727L12.7974 13.0667H12.7965L12.8117 13.0553L12.8367 13.0366L12.8894 12.9902L12.94 12.9417L12.9885 12.8911L13.0349 12.8384L13.079 12.7816L13.1211 12.7225L13.161 12.6596L13.199 12.5941L13.2347 12.5228L13.2663 12.4489L13.2979 12.3688L13.3275 12.2842L13.3528 12.1957L13.378 12.1031L13.3815 12.0853L13.3971 12.0038L13.4076 11.9405L13.416 11.8982L13.4287 11.7885L13.4288 11.7879L13.4393 11.6746L13.4477 11.5564L13.4498 11.434L13.4477 11.3051L13.4435 11.1722L13.4334 11.0469L13.4329 11.041V11.0367L13.4285 10.9945L13.4181 10.8954L13.418 10.8946L13.4118 10.8532L13.3992 10.7525L13.3991 10.7517L13.3988 10.7497L13.3738 10.6018L13.3443 10.4496L13.3105 10.2957L13.3042 10.2723L13.2703 10.1368L13.2695 10.134L13.2263 9.97542L13.2259 9.97407L13.1774 9.81161L13.1309 9.67193L13.1225 9.64463L13.0627 9.48171L13.0611 9.47733L12.9978 9.30633L12.9747 9.25364L12.9283 9.13585L12.928 9.13502L12.852 8.96188L12.7718 8.78642L12.691 8.62084H12.6903L12.6889 8.61646L12.687 8.61053L12.5986 8.43585L12.5796 8.4041L12.5034 8.25806L12.4633 8.18831L12.4041 8.0805L12.3998 8.07325L12.2984 7.90499L12.2964 7.90169L12.2115 7.76423L12.2096 7.76118L12.2036 7.75151L12.1907 7.72745L12.0769 7.55036L12.0752 7.5487L12.0745 7.54774L11.9582 7.3744L11.8378 7.19896L11.7807 7.12075L11.7117 7.02438L11.7109 7.02339L11.6243 6.90715L11.582 6.85015L11.4468 6.67675L11.3113 6.50783L11.3106 6.507L11.3094 6.50553L11.17 6.33641L11.1695 6.33594L11.1212 6.28153L11.1191 6.27927L11.1185 6.27848L11.1099 6.26883L11.0269 6.17022L11.0262 6.16933L11.0255 6.16851L10.8783 6.0045L10.7515 5.86703L10.728 5.83934L10.574 5.67887L10.5593 5.66414L10.4176 5.52038L10.26 5.36686L10.2591 5.36602L10.1534 5.26449L10.0985 5.21176L9.9418 5.07171L9.93977 5.06983L9.93346 5.06357L9.76668 4.91572L9.76578 4.91494L9.59983 4.77414L9.5976 4.7723L9.42903 4.63494L9.42851 4.63454L9.25746 4.49931L9.08405 4.36818L9.08233 4.36687L8.9107 4.23917L8.76083 4.13568L8.73596 4.11701L8.73538 4.11662L8.72698 4.11074L8.73603 4.10582L8.84598 4.0466L8.95818 3.98943L9.01876 3.95912H9.01393L9.04293 3.94702L9.06833 3.93643L9.17823 3.88361L9.28616 3.8349L9.39403 3.78624L9.5015 3.74196L9.60771 3.69733L9.71143 3.65712L9.78163 3.63131H9.77628L9.81473 3.61911L9.9189 3.583L10.0205 3.55122L10.1199 3.5195L10.2195 3.49193L10.3168 3.46443L10.4078 3.44113L10.4086 3.44094H10.4113ZM11.895 8.72788L11.9542 8.83994L12.0113 8.95213L12.0643 9.06223L12.1145 9.1713L12.1159 9.17257L12.1268 9.18338H12.1213L12.1658 9.28018L12.2124 9.38824L12.2589 9.4961L12.2997 9.60015H12.3003L12.3014 9.60448L12.3415 9.70781L12.3796 9.81371L12.3802 9.81555L12.4155 9.91743L12.4494 10.019L12.4558 10.038L12.4804 10.1161L12.4811 10.1184L12.5086 10.2181L12.5171 10.2455L12.5362 10.3155L12.5585 10.4088C12.5604 10.4106 12.561 10.4133 12.5601 10.4156L12.5599 10.4163C12.5597 10.4167 12.5594 10.4171 12.5592 10.4174C12.5579 10.419 12.5567 10.4205 12.5554 10.4221L12.5287 10.4564L12.4645 10.5333C12.341 10.6828 12.2142 10.83 12.0843 10.9749L12.0676 10.9939L12.0621 10.9996C11.9604 11.1125 11.8569 11.2238 11.7516 11.3335L11.7227 11.3642L11.7005 11.3865C11.4728 11.6214 11.2369 11.8487 10.9942 12.0674L10.9938 12.0682L10.9929 12.069L10.9624 12.096C10.9236 12.1307 10.8846 12.1653 10.8454 12.1996L10.828 12.2148L10.8169 12.2249H10.8188L10.8048 12.236L10.803 12.2376L10.7922 12.2458C10.7509 12.2817 10.7094 12.3173 10.6676 12.3527L10.6334 12.3821L10.6221 12.3911C10.5549 12.4476 10.4872 12.5034 10.419 12.5585L10.4179 12.5596L10.4153 12.5619L10.412 12.561L10.4092 12.5603L10.3175 12.5359L10.3169 12.5357L10.2196 12.5103L10.1201 12.4827L10.0205 12.451L9.95281 12.4284L9.91903 12.4171L9.81543 12.3833L9.71157 12.3451L9.60581 12.3049L9.50106 12.2609L9.49991 12.2605L9.44398 12.2376L9.44277 12.2372L9.39447 12.2161L9.2875 12.17L9.28623 12.1695L9.1762 12.1186L9.17537 12.1182L9.0738 12.0706L9.07215 12.0698L9.06853 12.0674L9.06573 12.0655L8.9562 12.0129L8.84605 11.9556L8.73608 11.8985L8.73271 11.8968V11.893V11.8908L8.73265 11.8876L8.73533 11.8857L8.94125 11.7385L8.9534 11.7298L8.95735 11.727L9.17295 11.5668L9.17925 11.5621L9.17983 11.5617L9.39893 11.3909L9.61663 11.2133L9.83013 11.0294L10.0413 10.8413L10.09 10.7948L10.2464 10.6467L10.2799 10.6132L10.2894 10.6037L10.2907 10.6024L10.2926 10.6006L10.443 10.4541L10.4493 10.448L10.57 10.3234L10.5803 10.3127L10.5821 10.3108L10.648 10.2429L10.6732 10.2155L10.7641 10.1162L10.8404 10.0357L11.0283 9.82446L11.0388 9.8118L11.1298 9.70597L11.2105 9.61281L11.2184 9.6025L11.2202 9.60015L11.3052 9.49464L11.3897 9.39307L11.3936 9.38722L11.4785 9.27898L11.555 9.18085L11.5609 9.1732L11.7257 8.9513L11.8842 8.72712L11.8902 8.71872L11.895 8.72788ZM3.56875 1.11054C4.35559 0.93085 5.27857 0.970375 6.27576 1.23435L6.29568 1.23912H6.29373C6.54036 1.30502 6.79152 1.38459 7.04625 1.47798L7.09637 1.49651L7.09751 1.49708C7.0985 1.4977 7.09926 1.49859 7.09976 1.49959L7.10703 1.50223L7.09839 1.50711C7.09769 1.50775 7.09686 1.50821 7.09595 1.50849L7.09507 1.50902L6.91587 1.61094L6.87842 1.63227L6.6639 1.76059L6.54211 1.83466L6.38069 1.93607L6.29826 1.98897L6.21145 2.04478L6.12253 2.1044L6.03619 2.16233L5.87599 2.27408L5.87437 2.27575L5.87354 2.27643L5.754 2.36094L5.73182 2.37702L5.72727 2.3803L5.61779 2.45964L5.59668 2.47519L5.55863 2.50394H5.55951L5.54408 2.51513L5.54234 2.51663L5.53571 2.52124L5.49983 2.54836V2.55014L5.49637 2.55189L5.49278 2.55365L5.48319 2.56091L5.47513 2.56739H5.47848L5.46141 2.57878L5.45984 2.58009L5.45631 2.5822L5.44534 2.58952L5.41059 2.61575L5.40258 2.62288L5.40038 2.62483L5.3994 2.62469L5.39698 2.62591L5.39526 2.62679L5.39336 2.62654L5.38354 2.62532L5.37643 2.62444L5.28129 2.60753L5.22729 2.6001L5.1735 2.59271L5.06567 2.58005L4.96046 2.56951L4.85916 2.56107L4.8096 2.55795L4.75732 2.55469L4.6603 2.55257H4.60531L4.56554 2.55047L4.54697 2.55253L4.47256 2.55257L4.38181 2.55677L4.293 2.56318L4.20869 2.57156L4.12651 2.5821L4.04831 2.5948L3.97257 2.60742L3.90703 2.62238L3.89859 2.62433L3.82891 2.64125L3.76268 2.65985L3.76149 2.66018L3.7282 2.66986L3.69598 2.67923L3.63519 2.70017L3.57624 2.72334L3.51916 2.74874L3.46428 2.77408L3.41175 2.80138L3.36117 2.82879L3.31282 2.85826L3.26645 2.8899L3.22281 2.92105L3.18633 2.95022L3.13798 2.98893L3.06247 3.06027L2.99075 3.13621L2.92318 3.22071L2.89167 3.26484L2.86027 3.31082L2.84559 3.33819L2.83354 3.35818L2.83281 3.35945L2.80333 3.41001L2.77599 3.46262L2.76714 3.48324L2.76353 3.4917L2.76319 3.49242L2.75063 3.51752L2.72747 3.57437L2.70435 3.63331L2.69942 3.64807L2.69803 3.6523L2.68106 3.69682L2.66214 3.76199L2.66116 3.7656L2.64737 3.8149L2.64312 3.82966L2.62414 3.89927L2.61091 3.96547L2.60966 3.97182L2.60941 3.97299L2.59502 4.04894L2.59461 4.05121L2.58197 4.13144L2.58089 4.1422L2.57991 4.15221L2.57934 4.15792L2.5714 4.21174L2.563 4.29782L2.56302 4.32506L2.55876 4.38456L2.55456 4.4755L2.55245 4.56843V4.66333L2.55456 4.76269L2.56052 4.85595L2.5609 4.86177L2.5682 4.95171L2.56933 4.96529L2.5778 5.04989L2.57977 5.06982L2.5799 5.07104L2.59256 5.17648L2.60944 5.28635L2.62847 5.39847L2.62891 5.40112L2.62732 5.40328L2.60406 5.435L2.47273 5.60806L2.4709 5.61051L2.32077 5.81779L2.17513 6.02679L2.17364 6.02981L2.06081 6.19622L2.0318 6.23765L2.03122 6.23856L2.02955 6.24109L1.9446 6.37379L1.89393 6.4498L1.83049 6.55344L1.76079 6.66334L1.76014 6.66447L1.72066 6.73307L1.63469 6.87773L1.63396 6.87899L1.61497 6.91281L1.54307 7.03974L1.51244 7.0928C1.51216 7.09414 1.51148 7.09535 1.51048 7.09624L1.50469 7.10629L1.49992 7.09388L1.47878 7.03887L1.43436 6.91193L1.42166 6.87808L1.37298 6.73192L1.35956 6.68761C1.35357 6.66891 1.34765 6.65023 1.34182 6.63157L1.31585 6.5521L1.28618 6.44824L1.26505 6.37208L1.22698 6.2367L1.21636 6.19422L1.17622 6.02502L1.17408 6.01656L1.13175 5.81964L1.13161 5.81898V5.81464L1.1303 5.80773C1.12118 5.7619 1.11257 5.71624 1.10445 5.67079L1.09584 5.62526L1.09162 5.60834L1.06403 5.43223L1.06207 5.40353C1.05738 5.36955 1.053 5.33567 1.04888 5.30193L1.0471 5.28824L1.04148 5.24512L1.04072 5.23943L1.04064 5.23869L1.03982 5.23243L1.03438 5.17809L1.02439 5.07801L1.02376 5.0723L1.02227 5.05689L1.02166 5.05086L1.02104 5.04419L1.01825 4.98298C1.01575 4.94706 1.01359 4.91128 1.01177 4.87568L1.01122 4.86718L1 4.85595H1.00885L1.00687 4.76306L1.00475 4.68268V4.65003C1.00434 4.61167 1.00434 4.57351 1.00475 4.53556V4.47506L1.00718 4.42295C1.00811 4.39447 1.00922 4.36611 1.01062 4.33787L1.01109 4.32506L1.01107 4.29756L1.01744 4.21038L1.02119 4.15792L1.02162 4.1518L1.02168 4.15115L1.0238 4.12983L1.03226 4.0494L1.0407 3.97984V3.97128L1.05067 3.91308C1.05228 3.90167 1.05394 3.89027 1.05563 3.87889L1.06105 3.83433L1.06191 3.82709L1.06401 3.8123L1.07465 3.75906L1.08732 3.69354L1.09578 3.64912L1.10002 3.62998L1.11272 3.57075L1.1237 3.5213L1.12541 3.51341L1.13179 3.48804L1.14031 3.45822L1.14411 3.44462C1.14929 3.42483 1.15458 3.40512 1.16005 3.38552L1.16578 3.36267L1.1678 3.35448L1.16894 3.34998L1.17417 3.33334L1.1801 3.31403L1.18236 3.30666L1.18261 3.30582L1.18399 3.30134L1.19745 3.25921L1.20194 3.24568C1.20572 3.2339 1.20959 3.22216 1.21348 3.21045L1.22064 3.1854L1.23978 3.13006L1.26937 3.05394L1.2736 3.04129L1.28608 3.01207C1.29691 2.98504 1.308 2.95819 1.31945 2.93159L1.32649 2.91425L1.33071 2.90167L1.33118 2.90061L1.34038 2.88397C1.34132 2.88187 1.34228 2.87977 1.34323 2.87768L1.35061 2.85928H1.34968L1.35428 2.8501L1.35567 2.84659L1.36899 2.82066L1.38167 2.79318L1.39021 2.77467H1.38903L1.39462 2.76513L1.40822 2.74184C1.41125 2.73587 1.41428 2.72989 1.41734 2.72394L1.42194 2.71474L1.42368 2.71122L1.42688 2.70565C1.43088 2.698 1.43491 2.69036 1.43897 2.68276L1.44519 2.67032L1.44696 2.66682L1.45577 2.65127L1.46424 2.63435L1.4647 2.63344L1.4654 2.63274L1.46697 2.63113L1.46783 2.62977C1.47309 2.62036 1.4784 2.61096 1.48375 2.60161L1.48536 2.5984L1.48575 2.59771L1.4873 2.59536C1.48983 2.59095 1.49244 2.58659 1.49499 2.5822L1.50039 2.57257L1.50196 2.56951L1.50535 2.56435L1.50606 2.56319H1.50459L1.51079 2.55383L1.51475 2.54787L1.51522 2.54718L1.51711 2.54338L1.51852 2.54056V2.5378L1.52119 2.53777L1.53308 2.51663L1.53844 2.50701L1.53895 2.50614L1.54018 2.50394L1.54482 2.49645L1.61526 2.38972H1.61385L1.62084 2.3802L1.62243 2.37704L1.62319 2.37702L1.70372 2.2675L1.70433 2.26678L1.70635 2.26475L1.71475 2.25415C1.7323 2.23133 1.75017 2.20875 1.76837 2.18645L1.79477 2.15312L1.82205 2.12248C1.84101 2.10052 1.86032 2.07885 1.87994 2.05744L1.8986 2.03652L1.91083 2.02427C1.9298 2.00418 1.94907 1.98432 1.96864 1.96475C1.97581 1.95758 1.98302 1.95044 1.99026 1.94335L2.00661 1.92635L2.03249 1.90284C2.05755 1.87924 2.083 1.8561 2.10883 1.83342H2.10782L2.1205 1.82288L2.13056 1.81446C2.16266 1.78683 2.19536 1.75993 2.2286 1.7337L2.24185 1.72281L2.25731 1.71132C2.37039 1.62431 2.48989 1.54523 2.61539 1.47409L2.63591 1.46206L2.64885 1.45539C2.68951 1.43299 2.73078 1.4114 2.77265 1.39064L2.77779 1.3879L2.78492 1.3846C2.82786 1.36354 2.87144 1.34334 2.91561 1.324L2.92399 1.3201L2.93036 1.31752C2.99514 1.28953 3.06126 1.26342 3.1286 1.23912H3.12656L3.15946 1.22813C3.22187 1.20625 3.28535 1.18595 3.34983 1.16722H3.34465L3.38703 1.1566C3.44107 1.14149 3.4958 1.12747 3.55122 1.11455L3.55937 1.11241L3.56875 1.11054Z" fill="currentColor"/>
</svg>
