<svg width="16" height="16" viewBox="0 0 16 16" fill="none" xmlns="http://www.w3.org/2000/svg">
<path d="M10.5 9.81478C10.5 9.9523 10.4473 10.0842 10.3536 10.1814C10.2598 10.2787 10.1326 10.3333 10 10.3333H6C5.86739 10.3333 5.74021 10.2787 5.64645 10.1814C5.55268 10.0842 5.5 9.9523 5.5 9.81478C5.5 9.67726 5.55268 9.54537 5.64645 9.44813C5.74021 9.35089 5.86739 9.29626 6 9.29626H10C10.1326 9.29626 10.2598 9.35089 10.3536 9.44813C10.4473 9.54537 10.5 9.67726 10.5 9.81478ZM10 7.22217H6C5.86739 7.22217 5.74021 7.2768 5.64645 7.37404C5.55268 7.47128 5.5 7.60317 5.5 7.74069C5.5 7.87821 5.55268 8.0101 5.64645 8.10734C5.74021 8.20458 5.86739 8.25921 6 8.25921H10C10.1326 8.25921 10.2598 8.20458 10.3536 8.10734C10.4473 8.0101 10.5 7.87821 10.5 7.74069C10.5 7.60317 10.4473 7.47128 10.3536 7.37404C10.2598 7.2768 10.1326 7.22217 10 7.22217ZM13.5 3.07399V13.963C13.5 14.238 13.3946 14.5018 13.2071 14.6963C13.0196 14.8907 12.7652 15 12.5 15H3.5C3.23478 15 2.98043 14.8907 2.79289 14.6963C2.60536 14.5018 2.5 14.238 2.5 13.963V3.07399C2.5 2.79895 2.60536 2.53518 2.79289 2.34069C2.98043 2.14621 3.23478 2.03695 3.5 2.03695H5.76625C6.04719 1.71075 6.39139 1.44976 6.77633 1.27107C7.16127 1.09237 7.57826 1 8 1C8.42174 1 8.83873 1.09237 9.22367 1.27107C9.6086 1.44976 9.95281 1.71075 10.2338 2.03695H12.5C12.7652 2.03695 13.0196 2.14621 13.2071 2.34069C13.3946 2.53518 13.5 2.79895 13.5 3.07399ZM6 4.11104H10C10 3.56096 9.78929 3.0334 9.41421 2.64444C9.03914 2.25547 8.53043 2.03695 8 2.03695C7.46957 2.03695 6.96086 2.25547 6.58579 2.64444C6.21071 3.0334 6 3.56096 6 4.11104ZM12.5 3.07399H10.8281C10.9419 3.40703 11 3.75774 11 4.11104V4.62956C11 4.76708 10.9473 4.89897 10.8536 4.99621C10.7598 5.09345 10.6326 5.14808 10.5 5.14808H5.5C5.36739 5.14808 5.24021 5.09345 5.14645 4.99621C5.05268 4.89897 5 4.76708 5 4.62956V4.11104C5.00001 3.75774 5.05814 3.40703 5.17188 3.07399H3.5V13.963H12.5V3.07399Z" fill="currentColor"/>
</svg>
