<svg width="16" height="16" viewBox="0 0 16 16" fill="none" xmlns="http://www.w3.org/2000/svg">
<path d="M8.84245 4.50002V7.6697L11.3716 9.2498C11.499 9.32948 11.5908 9.45859 11.6268 9.60874C11.6628 9.75888 11.64 9.91776 11.5635 10.0504C11.487 10.1831 11.363 10.2787 11.2188 10.3161C11.0746 10.3536 10.9221 10.3299 10.7947 10.2502L7.99378 8.50022C7.91089 8.44836 7.8423 8.37503 7.79469 8.28737C7.74708 8.19972 7.72207 8.10072 7.7221 8.00001V4.50002C7.7221 4.34531 7.78112 4.19693 7.88617 4.08754C7.99122 3.97814 8.13371 3.91668 8.28227 3.91668C8.43084 3.91668 8.57333 3.97814 8.67838 4.08754C8.78343 4.19693 8.84245 4.34531 8.84245 4.50002ZM8.28227 1.00002C7.39859 0.997729 6.52325 1.17796 5.70691 1.53029C4.89056 1.88262 4.14943 2.40004 3.52639 3.05262C3.01733 3.58929 2.56499 4.10554 2.12035 4.64585V3.33335C2.12035 3.17864 2.06133 3.03027 1.95628 2.92087C1.85123 2.81148 1.70874 2.75002 1.56017 2.75002C1.41161 2.75002 1.26912 2.81148 1.16407 2.92087C1.05902 3.03027 1 3.17864 1 3.33335V6.25001C1 6.40472 1.05902 6.5531 1.16407 6.66249C1.26912 6.77189 1.41161 6.83335 1.56017 6.83335H4.36105C4.50962 6.83335 4.6521 6.77189 4.75715 6.66249C4.86221 6.5531 4.92122 6.40472 4.92122 6.25001C4.92122 6.0953 4.86221 5.94693 4.75715 5.83754C4.6521 5.72814 4.50962 5.66668 4.36105 5.66668H2.75055C3.2512 5.05272 3.74976 4.4745 4.31834 3.87512C5.09688 3.0644 6.08758 2.51057 7.16666 2.28283C8.24574 2.05509 9.36535 2.16353 10.3856 2.59462C11.4058 3.02571 12.2814 3.76032 12.903 4.70667C13.5246 5.65301 13.8646 6.76912 13.8805 7.91554C13.8965 9.06195 13.5876 10.1878 12.9926 11.1525C12.3975 12.1172 11.5427 12.8779 10.5348 13.3395C9.52702 13.8011 8.41089 13.9433 7.32594 13.7481C6.24098 13.553 5.23531 13.0292 4.43457 12.2423C4.38106 12.1896 4.3181 12.1485 4.2493 12.1211C4.18051 12.0938 4.10721 12.0808 4.03361 12.083C3.96 12.0852 3.88753 12.1024 3.82033 12.1338C3.75312 12.1651 3.6925 12.2099 3.64193 12.2656C3.59135 12.3214 3.55181 12.3869 3.52557 12.4586C3.49932 12.5302 3.48689 12.6065 3.48897 12.6832C3.49105 12.7598 3.5076 12.8353 3.53769 12.9053C3.56778 12.9753 3.61081 13.0384 3.66433 13.091C4.4622 13.8751 5.43221 14.4439 6.48972 14.7478C7.54722 15.0517 8.66008 15.0814 9.73117 14.8345C10.8023 14.5875 11.799 14.0713 12.6345 13.3309C13.4699 12.5905 14.1187 11.6485 14.5241 10.587C14.9295 9.52544 15.0793 8.37674 14.9604 7.24108C14.8414 6.10543 14.4574 5.01735 13.8418 4.0718C13.2261 3.12625 12.3976 2.35197 11.4286 1.81653C10.4595 1.28109 9.37931 1.00077 8.28227 1.00002Z" fill="currentColor"/>
</svg>
