<svg width="12" height="12" viewBox="0 0 12 12" fill="currentColor" xmlns="http://www.w3.org/2000/svg">
<path d="M11.8402 0.93162L8.40738 4.36372H10.3634C10.5081 4.36372 10.6468 4.42118 10.7491 4.52347C10.8514 4.62576 10.9088 4.76449 10.9088 4.90915C10.9088 5.0538 10.8514 5.19253 10.7491 5.29482C10.6468 5.39711 10.5081 5.45457 10.3634 5.45457H7.09085C6.9462 5.45457 6.80747 5.39711 6.70518 5.29482C6.60289 5.19253 6.54543 5.0538 6.54543 4.90915V1.63658C6.54543 1.49193 6.60289 1.3532 6.70518 1.25091C6.80747 1.14862 6.9462 1.09116 7.09085 1.09116C7.23551 1.09116 7.37424 1.14862 7.47653 1.25091C7.57882 1.3532 7.63628 1.49193 7.63628 1.63658V3.59262L11.0684 0.159841C11.1707 0.0574964 11.3095 -2.8531e-09 11.4543 0C11.599 2.8531e-09 11.7378 0.0574964 11.8402 0.159841C11.9425 0.262185 12 0.400994 12 0.54573C12 0.690467 11.9425 0.829275 11.8402 0.93162ZM4.90915 6.54543H1.63658C1.49193 6.54543 1.3532 6.60289 1.25091 6.70518C1.14862 6.80747 1.09116 6.9462 1.09116 7.09085C1.09116 7.23551 1.14862 7.37424 1.25091 7.47653C1.3532 7.57882 1.49193 7.63628 1.63658 7.63628H3.59262L0.159841 11.0684C0.0574964 11.1707 -2.8531e-09 11.3095 0 11.4543C2.8531e-09 11.599 0.0574964 11.7378 0.159841 11.8402C0.262185 11.9425 0.400994 12 0.54573 12C0.690467 12 0.829275 11.9425 0.93162 11.8402L4.36372 8.40738V10.3634C4.36372 10.5081 4.42118 10.6468 4.52347 10.7491C4.62576 10.8514 4.76449 10.9088 4.90915 10.9088C5.0538 10.9088 5.19253 10.8514 5.29482 10.7491C5.39711 10.6468 5.45457 10.5081 5.45457 10.3634V7.09085C5.45457 6.9462 5.39711 6.80747 5.29482 6.70518C5.19253 6.60289 5.0538 6.54543 4.90915 6.54543Z" fill="currentColor"/>
</svg>
