<svg width="16" height="16" viewBox="0 0 16 16" fill="currentColor" xmlns="http://www.w3.org/2000/svg">
<path d="M13.8402 2.93162L10.4074 6.36372H12.3634C12.5081 6.36372 12.6468 6.42118 12.7491 6.52347C12.8514 6.62576 12.9088 6.76449 12.9088 6.90915C12.9088 7.0538 12.8514 7.19253 12.7491 7.29482C12.6468 7.39711 12.5081 7.45457 12.3634 7.45457H9.09085C8.9462 7.45457 8.80747 7.39711 8.70518 7.29482C8.60289 7.19253 8.54543 7.0538 8.54543 6.90915V3.63658C8.54543 3.49193 8.60289 3.3532 8.70518 3.25091C8.80747 3.14862 8.9462 3.09116 9.09085 3.09116C9.23551 3.09116 9.37424 3.14862 9.47653 3.25091C9.57882 3.3532 9.63628 3.49193 9.63628 3.63658V5.59262L13.0684 2.15984C13.1707 2.0575 13.3095 2 13.4543 2C13.599 2 13.7378 2.0575 13.8402 2.15984C13.9425 2.26218 14 2.40099 14 2.54573C14 2.69047 13.9425 2.82928 13.8402 2.93162ZM6.90915 8.54543H3.63658C3.49193 8.54543 3.3532 8.60289 3.25091 8.70518C3.14862 8.80747 3.09116 8.9462 3.09116 9.09085C3.09116 9.23551 3.14862 9.37424 3.25091 9.47653C3.3532 9.57882 3.49193 9.63628 3.63658 9.63628H5.59262L2.15984 13.0684C2.0575 13.1707 2 13.3095 2 13.4543C2 13.599 2.0575 13.7378 2.15984 13.8402C2.26218 13.9425 2.40099 14 2.54573 14C2.69047 14 2.82928 13.9425 2.93162 13.8402L6.36372 10.4074V12.3634C6.36372 12.5081 6.42118 12.6468 6.52347 12.7491C6.62576 12.8514 6.76449 12.9088 6.90915 12.9088C7.0538 12.9088 7.19253 12.8514 7.29482 12.7491C7.39711 12.6468 7.45457 12.5081 7.45457 12.3634V9.09085C7.45457 8.9462 7.39711 8.80747 7.29482 8.70518C7.19253 8.60289 7.0538 8.54543 6.90915 8.54543Z" fill="currentColor"/>
</svg>
