<svg width="16" height="16" viewBox="0 0 16 16" fill="currentColor" xmlns="http://www.w3.org/2000/svg">
<path d="M14.8358 9.79636L12.5958 12.0363C12.4908 12.1414 12.3482 12.2004 12.1996 12.2004C12.051 12.2004 11.9085 12.1414 11.8035 12.0363C11.6984 11.9312 11.6394 11.7887 11.6394 11.6401C11.6394 11.4915 11.6984 11.349 11.8035 11.2439L13.0879 9.96016H6.83152L2.91164 13.88H4.91988C5.06839 13.88 5.21083 13.939 5.31584 14.0441C5.42086 14.1491 5.47986 14.2915 5.47986 14.44C5.47986 14.5885 5.42086 14.731 5.31584 14.836C5.21083 14.941 5.06839 15 4.91988 15H1.55998C1.41147 15 1.26903 14.941 1.16402 14.836C1.059 14.731 1 14.5885 1 14.44L1 11.0801C1 10.9316 1.059 10.7892 1.16402 10.6842C1.26903 10.5791 1.41147 10.5201 1.55998 10.5201C1.7085 10.5201 1.85093 10.5791 1.95595 10.6842C2.06097 10.7892 2.11996 10.9316 2.11996 11.0801V13.0884L6.03984 9.16848L6.03984 2.91208L4.75608 4.19654C4.65101 4.30162 4.50849 4.36065 4.35989 4.36065C4.2113 4.36065 4.06878 4.30162 3.96371 4.19654C3.85863 4.09146 3.7996 3.94895 3.7996 3.80035C3.7996 3.65175 3.85863 3.50924 3.96371 3.40417L6.20364 1.16424C6.25564 1.11217 6.3174 1.07087 6.38538 1.04269C6.45337 1.0145 6.52623 1 6.59982 1C6.67341 1 6.74628 1.0145 6.81426 1.04269C6.88224 1.07087 6.944 1.11217 6.99601 1.16424L9.23594 3.40417C9.34102 3.50924 9.40005 3.65175 9.40005 3.80035C9.40005 3.94895 9.34102 4.09146 9.23594 4.19654C9.13087 4.30162 8.98835 4.36065 8.83975 4.36065C8.69115 4.36065 8.54864 4.30162 8.44357 4.19654L7.15981 2.91208V8.84019H13.0879L11.8035 7.55644C11.6984 7.45136 11.6394 7.30885 11.6394 7.16025C11.6394 7.01165 11.6984 6.86913 11.8035 6.76406C11.9085 6.65898 12.051 6.59995 12.1996 6.59995C12.3482 6.59995 12.4908 6.65898 12.5958 6.76406L14.8358 9.00399C14.8878 9.056 14.9291 9.11776 14.9573 9.18574C14.9855 9.25372 15 9.32659 15 9.40018C15 9.47377 14.9855 9.54664 14.9573 9.61462C14.9291 9.6826 14.8878 9.74436 14.8358 9.79636Z" fill="currentColor"/>
</svg>
