<svg width="40" height="40" viewBox="0 0 40 40" fill="none" xmlns="http://www.w3.org/2000/svg">
<g clip-path="url(#clip0_28266_57779)">
<path d="M13.6279 19.8633C13.9699 19.8633 14.3075 19.9411 14.6118 20.0903L14.9048 20.2637L15.1685 20.4785C15.3322 20.6346 15.4714 20.8153 15.5811 21.0132L15.7227 21.3208L17.4561 26.0327L22.1704 27.771C22.4909 27.8893 22.7789 28.0801 23.0127 28.3252L23.23 28.5889L23.4009 28.8818C23.5501 29.1861 23.6303 29.5214 23.6304 29.8633C23.6304 30.3194 23.4907 30.7659 23.23 31.1401C23.0344 31.4207 22.7771 31.6521 22.4805 31.8164L22.1704 31.958L17.4561 33.6914L15.7227 38.4058C15.5647 38.8336 15.2789 39.2046 14.9048 39.4653C14.5307 39.7258 14.0838 39.8657 13.6279 39.8657C13.1726 39.8654 12.7272 39.7255 12.3535 39.4653C12.0731 39.2698 11.8416 39.0122 11.6772 38.7158L11.5356 38.4058L9.79736 33.6914L5.08789 31.958C4.66059 31.8 4.28886 31.5139 4.02832 31.1401C3.76771 30.766 3.62793 30.3192 3.62793 29.8633C3.62808 29.4077 3.76797 28.9628 4.02832 28.5889L4.24316 28.3252C4.47678 28.0799 4.76499 27.8895 5.08545 27.771L9.79736 26.0327L11.5356 21.3232C11.6936 20.8958 11.9797 20.5243 12.3535 20.2637L12.6465 20.0903C12.9503 19.9414 13.2866 19.8635 13.6279 19.8633ZM25.1367 2.13135C25.2348 2.1314 25.3323 2.13903 25.4272 2.1582C25.449 2.16258 25.4693 2.17241 25.4907 2.17773C25.654 2.21844 25.8095 2.28442 25.9497 2.37793C25.9951 2.40834 26.0351 2.4453 26.0766 2.48047C26.1076 2.50663 26.1429 2.52971 26.1719 2.55859L34.8095 11.1963C34.9157 11.3026 34.998 11.4266 35.0659 11.5576C35.1292 11.6789 35.1802 11.8075 35.2075 11.9458C35.226 12.0398 35.237 12.1367 35.2368 12.2339L35.1928 34.3823C35.1918 35.0961 34.909 35.7819 34.4043 36.2866C33.8989 36.7919 33.2122 37.0749 32.4975 37.0752H25.0928C24.2857 37.0748 23.6308 36.4198 23.6304 35.6128C23.6306 34.8055 24.2855 34.1508 25.0928 34.1504H32.268L32.3071 13.6938H25.1367C24.3294 13.6938 23.6749 13.0386 23.6743 12.2314V5.05615L8.89793 5.05615V18.4009C8.89743 19.2079 8.24258 19.8629 7.43552 19.8633C6.62812 19.8633 5.97362 19.2082 5.97312 18.4009L5.97312 4.82666C5.97339 4.11192 6.25631 3.42535 6.7617 2.91992L6.95945 2.7417C7.4391 2.34848 8.04281 2.13158 8.66843 2.13135L25.1367 2.13135ZM12.3096 27.6782C12.1615 28.0799 11.8446 28.3969 11.4429 28.5449L7.86377 29.8633L11.4429 31.1816C11.8443 31.3296 12.1613 31.647 12.3096 32.0483L13.6279 35.6274L14.9463 32.0483C15.0943 31.647 15.4118 31.3298 15.813 31.1816L19.3921 29.8633L15.813 28.5449C15.4119 28.3966 15.0942 28.0795 14.9463 27.6782L13.6279 24.0991L12.3096 27.6782ZM26.5991 10.769H30.2441L26.5991 7.12402V10.769Z" fill="#686C76"/>
</g>
<defs>
<clipPath id="clip0_28266_57779">
<rect width="40" height="40" fill="white"/>
</clipPath>
</defs>
</svg>
