<svg width="16" height="16" viewBox="0 0 16 16" fill="none" xmlns="http://www.w3.org/2000/svg">
<path d="M10.3536 5.64637C10.4001 5.6928 10.437 5.74794 10.4622 5.80864C10.4873 5.86934 10.5003 5.9344 10.5003 6.0001C10.5003 6.06581 10.4873 6.13087 10.4622 6.19157C10.437 6.25226 10.4001 6.30741 10.3536 6.35384L6.35377 10.3537C6.30731 10.4002 6.25217 10.437 6.19147 10.4622C6.13078 10.4873 6.06572 10.5002 6.00003 10.5002C5.93433 10.5002 5.86928 10.4873 5.80859 10.4622C5.74789 10.437 5.69274 10.4002 5.64629 10.3537C5.59984 10.3073 5.56299 10.2521 5.53785 10.1914C5.51271 10.1307 5.49977 10.0657 5.49977 9.99997C5.49977 9.93428 5.51271 9.86922 5.53785 9.80853C5.56299 9.74783 5.59984 9.69269 5.64629 9.64623L9.64616 5.64637C9.69259 5.59988 9.74774 5.563 9.80843 5.53784C9.86913 5.51268 9.93419 5.49973 9.9999 5.49973C10.0656 5.49973 10.1307 5.51268 10.1914 5.53784C10.2521 5.563 10.3072 5.59988 10.3536 5.64637ZM13.4748 2.52522C13.1498 2.20019 12.7639 1.94235 12.3393 1.76645C11.9146 1.59054 11.4595 1.5 10.9999 1.5C10.5402 1.5 10.0851 1.59054 9.66043 1.76645C9.23578 1.94235 8.84994 2.20019 8.52495 2.52522L6.64626 4.40328C6.55244 4.4971 6.49974 4.62434 6.49974 4.75702C6.49974 4.8897 6.55244 5.01694 6.64626 5.11076C6.74007 5.20457 6.86732 5.25728 7 5.25728C7.13267 5.25728 7.25992 5.20457 7.35373 5.11076L9.23242 3.23582C9.70296 2.77562 10.336 2.51954 10.9942 2.52317C11.6523 2.52679 12.2825 2.78982 12.7479 3.25518C13.2134 3.72054 13.4765 4.35067 13.4803 5.00884C13.484 5.667 13.228 6.30008 12.7679 6.7707L10.8886 8.64939C10.7948 8.74312 10.7421 8.87029 10.742 9.00291C10.7419 9.13553 10.7946 9.26274 10.8883 9.35655C10.982 9.45037 11.1092 9.50311 11.2418 9.50317C11.3744 9.50323 11.5017 9.4506 11.5955 9.35687L13.4748 7.47505C13.7998 7.15006 14.0576 6.76422 14.2336 6.33957C14.4095 5.91492 14.5 5.45978 14.5 5.00014C14.5 4.5405 14.4095 4.08536 14.2336 3.66071C14.0576 3.23606 13.7998 2.85022 13.4748 2.52522ZM8.64619 10.8887L6.7675 12.7674C6.53631 13.0038 6.26052 13.1919 5.9561 13.321C5.65169 13.4501 5.32469 13.5175 4.99405 13.5193C4.6634 13.5211 4.33568 13.4573 4.02986 13.3316C3.72404 13.2059 3.4462 13.0208 3.21241 12.787C2.97863 12.5531 2.79356 12.2753 2.6679 11.9694C2.54225 11.6636 2.47852 11.3358 2.4804 11.0052C2.48228 10.6746 2.54973 10.3476 2.67885 10.0432C2.80797 9.73878 2.9962 9.46302 3.23262 9.23187L5.11068 7.35381C5.2045 7.25999 5.25721 7.13275 5.25721 7.00007C5.25721 6.86739 5.2045 6.74015 5.11068 6.64633C5.01687 6.55251 4.88962 6.49981 4.75695 6.49981C4.62427 6.49981 4.49702 6.55251 4.40321 6.64633L2.52514 8.52502C1.86876 9.18141 1.5 10.0717 1.5 10.9999C1.5 11.9282 1.86876 12.8185 2.52514 13.4749C3.18153 14.1312 4.07179 14.5 5.00006 14.5C5.92834 14.5 6.81859 14.1312 7.47498 13.4749L9.35367 11.5955C9.4474 11.5017 9.50003 11.3745 9.49997 11.2419C9.49991 11.1093 9.44717 10.9821 9.35336 10.8884C9.25954 10.7946 9.13233 10.742 8.99971 10.7421C8.86709 10.7421 8.73993 10.7949 8.64619 10.8887Z" fill="currentColor"/>
</svg>
