<svg width="12" height="13" viewBox="0 0 12 13" fill="none" xmlns="http://www.w3.org/2000/svg">
<path d="M6 0C2.63562 0 0 1.5375 0 3.5V9.5C0 11.4625 2.63562 13 6 13C9.36438 13 12 11.4625 12 9.5V3.5C12 1.5375 9.36438 0 6 0ZM11 6.5C11 7.10125 10.5075 7.71438 9.64937 8.1825C8.68312 8.70938 7.38688 9 6 9C4.61312 9 3.31687 8.70938 2.35063 8.1825C1.4925 7.71438 1 7.10125 1 6.5V5.46C2.06625 6.3975 3.88937 7 6 7C8.11063 7 9.93375 6.395 11 5.46V6.5ZM2.35063 1.8175C3.31687 1.29063 4.61312 1 6 1C7.38688 1 8.68312 1.29063 9.64937 1.8175C10.5075 2.28562 11 2.89875 11 3.5C11 4.10125 10.5075 4.71438 9.64937 5.1825C8.68312 5.70937 7.38688 6 6 6C4.61312 6 3.31687 5.70937 2.35063 5.1825C1.4925 4.71438 1 4.10125 1 3.5C1 2.89875 1.4925 2.28562 2.35063 1.8175ZM9.64937 11.1825C8.68312 11.7094 7.38688 12 6 12C4.61312 12 3.31687 11.7094 2.35063 11.1825C1.4925 10.7144 1 10.1012 1 9.5V8.46C2.06625 9.3975 3.88937 10 6 10C8.11063 10 9.93375 9.395 11 8.46V9.5C11 10.1012 10.5075 10.7144 9.64937 11.1825Z" fill="currentColor"/>
</svg>
