<svg width="16" height="16" viewBox="0 0 16 16" fill="currentColor" xmlns="http://www.w3.org/2000/svg">
<path d="M14.7561 8.30315L12.8159 3.45268C12.7732 3.34584 12.6939 3.25766 12.5922 3.20391C12.4904 3.15015 12.3729 3.13431 12.2606 3.15922L8.48507 3.99836V2.66448C8.48507 2.53583 8.43397 2.41246 8.343 2.3215C8.25204 2.23053 8.12866 2.17943 8.00002 2.17943C7.87138 2.17943 7.748 2.23053 7.65704 2.3215C7.56608 2.41246 7.51497 2.53583 7.51497 2.66448V4.21541L3.5291 5.10123C3.45225 5.11821 3.38068 5.15363 3.32058 5.20443C3.26048 5.25524 3.21364 5.31991 3.18411 5.39287V5.3965L1.24392 10.2433C1.22071 10.3012 1.20897 10.3629 1.20936 10.4252C1.20936 11.8385 2.69724 12.3654 3.6346 12.3654C4.57195 12.3654 6.05983 11.8385 6.05983 10.4252C6.06022 10.3629 6.04848 10.3012 6.02527 10.2433L4.29669 5.9246L7.51497 5.21097L7.51497 12.8505H6.54488C6.41624 12.8505 6.29286 12.9016 6.2019 12.9925C6.11094 13.0835 6.05983 13.2069 6.05983 13.3355C6.05983 13.4642 6.11094 13.5875 6.2019 13.6785C6.29286 13.7695 6.41624 13.8206 6.54488 13.8206H9.45516C9.58381 13.8206 9.70718 13.7695 9.79814 13.6785C9.88911 13.5875 9.94021 13.4642 9.94021 13.3355C9.94021 13.2069 9.88911 13.0835 9.79814 12.9925C9.70718 12.9016 9.58381 12.8505 9.45516 12.8505H8.48507V4.99391L11.5772 4.30757L9.97477 8.30315C9.95156 8.36096 9.93982 8.42274 9.94021 8.48504C9.94021 9.89835 11.4281 10.4252 12.3654 10.4252C13.3028 10.4252 14.7907 9.89835 14.7907 8.48504C14.7911 8.42274 14.7793 8.36096 14.7561 8.30315ZM3.6346 11.3953C3.17805 11.3953 2.25464 11.1764 2.1837 10.5077L3.6346 6.88075L5.08549 10.5077C5.01456 11.1764 4.09115 11.3953 3.6346 11.3953ZM12.3654 9.45514C11.9089 9.45514 10.9855 9.23626 10.9145 8.5675L12.3654 4.94056L13.8163 8.5675C13.7454 9.23626 12.822 9.45514 12.3654 9.45514Z" fill="currentColor"/>
</svg>
