<svg width="16" height="16" viewBox="0 0 16 16" fill="none" xmlns="http://www.w3.org/2000/svg">
<path fill-rule="evenodd" clip-rule="evenodd" d="M5.5633 2C6.23474 2 6.87867 2.2634 7.35345 2.73224C7.43868 2.8164 7.51714 2.906 7.58863 3.00012C7.66011 2.906 7.73857 2.8164 7.82381 2.73224C8.29858 2.2634 8.94251 2 9.61395 2H14.1709C14.4506 2 14.6773 2.22386 14.6773 2.5V6.5625C14.6773 6.83864 14.4506 7.0625 14.1709 7.0625C13.8913 7.0625 13.6646 6.83864 13.6646 6.5625V3H9.61395C9.21109 3 8.82472 3.15803 8.53985 3.43933C8.25498 3.72064 8.09496 4.10218 8.09496 4.5V11.5093C8.27868 11.3824 8.46497 11.2944 8.6142 11.2352C8.72968 11.1894 8.83109 11.1575 8.90495 11.1368C8.94203 11.1265 8.97265 11.1188 8.99519 11.1134C9.00646 11.1107 9.01577 11.1086 9.02288 11.1071C9.02643 11.1063 9.02946 11.1056 9.0319 11.1051C9.03313 11.1048 9.03424 11.1046 9.03518 11.1044C9.03564 11.1043 9.03608 11.1043 9.03648 11.1042C9.03667 11.1041 9.03686 11.1041 9.03703 11.1041L9.03728 11.104C9.03728 11.104 9.03755 11.1039 9.13413 11.569L9.03753 11.1039C9.31146 11.0485 9.57909 11.2228 9.63527 11.4933C9.6914 11.7636 9.51521 12.0276 9.24168 12.0834C9.23989 12.0838 9.23671 12.0846 9.23222 12.0856C9.22169 12.0881 9.20421 12.0925 9.18123 12.0989C9.13492 12.1119 9.06813 12.1328 8.99173 12.1631C8.83253 12.2262 8.66254 12.3182 8.53985 12.4393C8.25498 12.7206 8.09496 13.1022 8.09496 13.5C8.09496 13.7761 7.86826 14 7.58863 14C7.30899 14 7.0823 13.7761 7.0823 13.5C7.0823 13.1022 6.92227 12.7206 6.6374 12.4393C6.35254 12.158 5.96617 12 5.5633 12H1.00633C0.726692 12 0.5 11.7761 0.5 11.5V2.5C0.5 2.22386 0.726692 2 1.00633 2H5.5633ZM1.51266 11H5.5633C6.11426 11 6.64664 11.1774 7.0823 11.5001V4.5C7.0823 4.10218 6.92227 3.72064 6.6374 3.43933C6.35254 3.15803 5.96617 3 5.5633 3H1.51266V11Z" fill="currentColor"/>
<path fill-rule="evenodd" clip-rule="evenodd" d="M11.9557 6.875C13.3539 6.875 14.4874 7.99429 14.4874 9.375C14.4874 9.88452 14.3329 10.3583 14.0678 10.7535L15.3517 12.0214C15.5494 12.2167 15.5494 12.5333 15.3517 12.7285C15.154 12.9238 14.8334 12.9238 14.6357 12.7285L13.3517 11.4607C12.9515 11.7224 12.4717 11.875 11.9557 11.875C10.5575 11.875 9.42407 10.7557 9.42407 9.375C9.42407 7.99429 10.5575 6.875 11.9557 6.875ZM11.9557 7.875C11.1168 7.875 10.4367 8.54657 10.4367 9.375C10.4367 10.2034 11.1168 10.875 11.9557 10.875C12.7946 10.875 13.4747 10.2034 13.4747 9.375C13.4747 8.54657 12.7946 7.875 11.9557 7.875Z" fill="currentColor"/>
</svg>
