<svg width="16" height="16" viewBox="0 0 16 16" fill="none" xmlns="http://www.w3.org/2000/svg">
<path d="M3.31515 2.63684C3.273 2.58934 3.22184 2.55067 3.16463 2.52309C3.10742 2.4955 3.04531 2.47954 2.98188 2.47613C2.91846 2.47271 2.85499 2.48192 2.79515 2.50321C2.73531 2.52451 2.68029 2.55746 2.63329 2.60016C2.58628 2.64287 2.54822 2.69448 2.52131 2.75199C2.49441 2.80951 2.47919 2.8718 2.47653 2.93524C2.47388 2.99868 2.48385 3.06202 2.50587 3.12158C2.52788 3.18114 2.5615 3.23574 2.60478 3.28222L5.49667 6.46113L2.28079 9.67722C2.19145 9.76612 2.12064 9.87185 2.07244 9.98829C2.02424 10.1047 1.99962 10.2296 2 10.3556V13.0361C2 13.2906 2.10114 13.5347 2.28117 13.7147C2.4612 13.8946 2.70537 13.9957 2.95997 13.9957H5.64127C5.76738 13.9961 5.89231 13.9715 6.0088 13.9232C6.12529 13.8749 6.23102 13.8039 6.31984 13.7144L9.34372 10.6921L12.205 13.8386C12.2472 13.8861 12.2983 13.9248 12.3555 13.9523C12.4127 13.9799 12.4749 13.9959 12.5383 13.9993C12.6017 14.0027 12.6652 13.9935 12.725 13.9722C12.7849 13.9509 12.8399 13.918 12.8869 13.8753C12.9339 13.8326 12.9719 13.781 12.9989 13.7234C13.0258 13.6659 13.041 13.6036 13.0436 13.5402C13.0463 13.4768 13.0363 13.4134 13.0143 13.3539C12.9923 13.2943 12.9587 13.2397 12.9154 13.1932L3.31515 2.63684ZM5.64127 13.0361H2.95997V10.3556L6.14345 7.17668L8.69695 9.98432L5.64127 13.0361ZM13.7188 4.96104L11.0375 2.28116C10.9483 2.19202 10.8425 2.12131 10.726 2.07307C10.6095 2.02483 10.4847 2 10.3586 2C10.2325 2 10.1077 2.02483 9.99117 2.07307C9.87469 2.12131 9.76885 2.19202 9.67971 2.28116L7.17961 4.7805C7.13505 4.82508 7.09971 4.878 7.07562 4.93624C7.05152 4.99447 7.03913 5.05688 7.03916 5.1199C7.03921 5.24717 7.08984 5.36921 7.17991 5.45917C7.26997 5.54913 7.39209 5.59963 7.51941 5.59958C7.64672 5.59952 7.7688 5.54891 7.85878 5.45887L8.23977 5.0774L10.9211 7.75788L10.3811 8.2977C10.2909 8.38765 10.2401 8.50976 10.2399 8.63714C10.2397 8.76453 10.2902 8.88677 10.3802 8.97696C10.4702 9.06716 10.5923 9.11792 10.7197 9.11809C10.8472 9.11826 10.9694 9.06782 11.0597 8.97786L13.7188 6.31837C13.8079 6.22926 13.8786 6.12345 13.9269 6.00701C13.9752 5.89056 14 5.76575 14 5.63971C14 5.51366 13.9752 5.38885 13.9269 5.27241C13.8786 5.15596 13.8079 5.05016 13.7188 4.96104ZM11.5996 7.07951L8.91894 4.39903L10.3589 2.95953L13.0396 5.64001L11.5996 7.07951Z" fill="currentColor"/>
</svg>
