<svg width="16" height="16" viewBox="0 0 16 16" fill="none" xmlns="http://www.w3.org/2000/svg">
<path fill-rule="evenodd" clip-rule="evenodd" d="M8.00461 9.86811C10.512 9.86811 12.3124 8.50396 13.344 7.29315C13.8448 6.70524 14.1858 6.25279 14.4162 5.80503C14.7766 6.6366 14.9963 7.48226 14.9963 8.57603C14.9963 10.8506 13.7426 13.1043 12.0409 14.3741C11.0455 12.4994 9.58365 11.3715 8 11.3715C6.41383 11.3715 4.93832 12.5908 3.9781 14.3741C2.17959 13.0938 1.00372 10.8492 1.00372 8.57603C1.00372 7.48226 1.12848 6.7277 1.58106 5.80779C1.61163 5.86718 1.65588 5.9253 1.69076 5.98918C2.0305 6.5441 2.48022 7.16709 3.19197 7.85013C4.08633 8.70841 5.46755 9.61933 7.14277 9.81803C7.41876 9.85077 7.70594 9.86811 8.00461 9.86811ZM13.8408 5.25385C13.8945 5.1482 13.9407 5.05149 13.9797 4.96592C13.9702 4.95042 13.9606 4.93495 13.951 4.91953C13.5345 4.25206 13.0072 3.65961 12.3945 3.16769C12.217 4.20019 11.9774 5.0999 11.6441 5.87804C11.2431 6.81447 10.6683 7.61365 9.94236 8.21773C9.54312 8.54996 8.92856 8.99796 8.21137 9.08771C10.3908 9.02493 11.9328 7.83605 12.8061 6.81086C13.2879 6.24538 13.6247 5.67895 13.8408 5.25385ZM8 1.62585C9.4538 1.62585 10.6126 1.94897 11.7305 2.70179C11.5752 3.70396 11.3096 4.9708 10.9547 5.68041C8.96729 3.80419 5.37102 4.03982 3.81931 7.44492C3.12242 6.84119 2.60028 6.06875 2.26897 5.46205C2.16606 5.27362 2.08373 5.10506 2.0203 4.96592C2.02981 4.95042 2.03938 4.93495 2.049 4.91953C3.28287 2.94229 5.48627 1.62585 8 1.62585Z" fill="#A9B7C1"/>
</svg>
