<svg width="33" height="28" viewBox="0 0 33 28" fill="none" xmlns="http://www.w3.org/2000/svg">
<path d="M26.6797 19.9292C27.3695 19.9296 27.9294 20.4894 27.9297 21.1792C27.9297 21.8693 27.3697 22.4288 26.6797 22.4292H17.2803C16.5901 22.429 16.0303 21.8695 16.0303 21.1792C16.0306 20.4892 16.5903 19.9294 17.2803 19.9292H26.6797Z" fill="#686C76"/>
<path d="M26.6797 15.5518C27.3694 15.5522 27.9292 16.1121 27.9297 16.8018C27.9297 17.4919 27.3697 18.0513 26.6797 18.0518H17.2803C16.5901 18.0516 16.0303 17.492 16.0303 16.8018C16.0308 16.1119 16.5904 15.5519 17.2803 15.5518H26.6797Z" fill="#686C76"/>
<path fill-rule="evenodd" clip-rule="evenodd" d="M10.8325 0C11.3732 0.00140502 11.9006 0.186153 12.334 0.524902L16.6675 3.92822L30 3.92822C30.6628 3.92822 31.2988 4.20399 31.7676 4.69482C32.2364 5.18599 32.5 5.85324 32.5 6.54785V25.0269C32.4991 25.6825 32.2492 26.3113 31.8066 26.7749C31.3641 27.2381 30.7648 27.4991 30.1392 27.5H2.5C1.83712 27.5 1.20123 27.2243 0.732422 26.7334C0.263581 26.2422 0 25.575 0 24.8804L0 2.61963C0 1.92501 0.263581 1.25777 0.732422 0.766602C1.20123 0.275657 1.83712 0 2.5 0L10.8325 0ZM2.5 24.8804H30V6.54785L16.6675 6.54785C16.1268 6.54645 15.5994 6.3617 15.166 6.02295L10.8325 2.61963L2.5 2.61963L2.5 24.8804Z" fill="#686C76"/>
</svg>
