<svg width="15" height="14" viewBox="0 0 15 14" fill="none" xmlns="http://www.w3.org/2000/svg">
<path d="M9.21328 12.8983C9.5126 12.8983 9.75524 13.1409 9.75524 13.4402C9.75522 13.7395 9.51258 13.9822 9.21328 13.9822H4.87762C4.57832 13.9822 4.33568 13.7395 4.33566 13.4402C4.33566 13.1409 4.5783 12.8983 4.87762 12.8983H9.21328ZM7.04545 0.975219C7.34477 0.975219 7.58741 1.21786 7.58741 1.51718C7.58739 1.81648 7.34475 2.05913 7.04545 2.05913L1.62587 2.05913C1.32656 2.05913 1.08392 2.30178 1.08392 2.60109L1.08392 10.1885C1.08393 10.4878 1.32657 10.7305 1.62587 10.7305H12.465C12.7643 10.7305 13.007 10.4878 13.007 10.1885V6.3948C13.007 6.09548 13.2496 5.85284 13.5489 5.85284C13.8483 5.85284 14.0909 6.09548 14.0909 6.3948V10.1885C14.0909 11.0864 13.363 11.8144 12.465 11.8144H1.62587C0.727939 11.8144 1.78778e-05 11.0864 0 10.1885L0 2.60109C0 1.70315 0.727928 0.975219 1.62587 0.975219L7.04545 0.975219ZM13.5489 0C13.8483 4.46918e-06 14.0909 0.242645 14.0909 0.541958C14.0909 1.75757 13.312 2.92873 12.4956 3.84259C11.7931 4.62895 10.9894 5.30448 10.3978 5.76207C10.4115 5.81477 10.4237 5.86792 10.4343 5.92151C10.5456 6.4807 10.4884 7.0604 10.2703 7.58714C10.0521 8.11387 9.68256 8.56409 9.20852 8.88084C8.73447 9.19759 8.17712 9.36669 7.60699 9.3667H4.18582C3.947 9.3667 3.73636 9.21035 3.66715 8.9818C3.59799 8.75338 3.68638 8.50662 3.8848 8.37408L3.88354 8.37487C3.88307 8.37519 3.88264 8.37549 3.88229 8.37573C3.88505 8.37376 3.89128 8.36915 3.90055 8.36197C3.9192 8.34754 3.9498 8.32274 3.9884 8.28735C4.06592 8.21629 4.17402 8.10425 4.28327 7.94948C4.4992 7.64355 4.7242 7.16544 4.7242 6.48391C4.72421 5.91378 4.89331 5.35643 5.21006 4.88238C5.52681 4.40834 5.97703 4.03882 6.50376 3.82063C7.0305 3.60245 7.6102 3.54533 8.16939 3.65656C8.22298 3.66722 8.27613 3.67945 8.32883 3.69308C8.78641 3.10147 9.46195 2.29783 10.2483 1.59531C11.1622 0.778884 12.3333 3.09094e-06 13.5489 0ZM7.95789 4.71964C7.60896 4.65024 7.24724 4.68591 6.91856 4.82205C6.5899 4.95819 6.30897 5.18876 6.11131 5.48454C5.91366 5.78035 5.80813 6.12815 5.80812 6.48391C5.80812 7.24184 5.60273 7.83908 5.35302 8.28278H7.60699C7.96275 8.28277 8.31055 8.17723 8.60636 7.97959C8.90214 7.78193 9.13271 7.501 9.26885 7.17234C9.40499 6.84366 9.44066 6.48193 9.37126 6.13301C9.30185 5.78408 9.13049 5.46354 8.87892 5.21198C8.62736 4.96041 8.30682 4.78905 7.95789 4.71964ZM12.9003 1.19056C12.2809 1.38358 11.6181 1.82508 10.9705 2.40368C10.3259 2.97951 9.75372 3.63876 9.32972 4.17278C9.4409 4.25567 9.54649 4.34669 9.64535 4.44555C9.74419 4.54438 9.83518 4.64996 9.91805 4.76112C10.4521 4.33711 11.1115 3.76498 11.6873 3.12042C12.2659 2.47277 12.7073 1.80994 12.9003 1.19056Z" fill="currentColor"/>
</svg>
