<svg width="16" height="16" viewBox="0 0 16 16" fill="none" xmlns="http://www.w3.org/2000/svg">
<path d="M6.91008 7.12979H9.08943V4.67987C9.08943 4.00027 8.81244 3.65222 8.15542 3.65222H7.84408C7.19436 3.65222 6.91008 4.00027 6.91008 4.67987V7.12979ZM6.91008 8.63237V11.3201C6.91008 11.9997 7.23687 12.3766 7.8866 12.3766H8.17131C8.82103 12.3766 9.16726 11.9997 9.16726 11.3201V10.0553H10.6461V11.295C10.6461 13.0123 9.80528 13.8497 8.15542 13.8497H7.84408C6.19422 13.8497 5.3534 12.9981 5.3534 11.4782V4.95948C5.3534 3.03761 6.19422 2.15027 7.84408 2.15027H8.15542C9.80528 2.15027 10.6461 3.03761 10.6461 4.75487V8.63237H6.91008Z" fill="#A9B7C1"/>
<path d="M0.700806 7.25589V8.79482L4.04269 12.6639V10.5225L1.85572 8.00358L4.04269 5.43387V3.336L0.700806 7.25589Z" fill="#A9B7C1"/>
<path d="M15.2991 7.25589V8.79482L11.9572 12.6639V10.5225L14.1441 8.00358L11.9572 5.43387V3.336L15.2991 7.25589Z" fill="#A9B7C1"/>
</svg>
