<svg width="16" height="16" viewBox="0 0 16 16" fill="currentColor" xmlns="http://www.w3.org/2000/svg">
<path d="M14 2.54545V5.81818C14 5.96285 13.9425 6.10158 13.8402 6.20388C13.7379 6.30617 13.5992 6.36364 13.4545 6.36364C13.3099 6.36364 13.1711 6.30617 13.0689 6.20388C12.9666 6.10158 12.9091 5.96285 12.9091 5.81818V3.86205L9.47682 7.295C9.37447 7.39735 9.23565 7.45485 9.09091 7.45485C8.94617 7.45485 8.80735 7.39735 8.705 7.295C8.60265 7.19265 8.54515 7.05383 8.54515 6.90909C8.54515 6.76435 8.60265 6.62553 8.705 6.52318L12.138 3.09091H10.1818C10.0372 3.09091 9.89842 3.03344 9.79612 2.93115C9.69383 2.82886 9.63636 2.69012 9.63636 2.54545C9.63636 2.40079 9.69383 2.26205 9.79612 2.15976C9.89842 2.05747 10.0372 2 10.1818 2H13.4545C13.5992 2 13.7379 2.05747 13.8402 2.15976C13.9425 2.26205 14 2.40079 14 2.54545ZM6.52318 8.705L3.09091 12.138V10.1818C3.09091 10.0372 3.03344 9.89842 2.93115 9.79612C2.82886 9.69383 2.69012 9.63636 2.54545 9.63636C2.40079 9.63636 2.26205 9.69383 2.15976 9.79612C2.05747 9.89842 2 10.0372 2 10.1818V13.4545C2 13.5992 2.05747 13.7379 2.15976 13.8402C2.26205 13.9425 2.40079 14 2.54545 14H5.81818C5.96285 14 6.10158 13.9425 6.20388 13.8402C6.30617 13.7379 6.36364 13.5992 6.36364 13.4545C6.36364 13.3099 6.30617 13.1711 6.20388 13.0689C6.10158 12.9666 5.96285 12.9091 5.81818 12.9091H3.86205L7.295 9.47682C7.39735 9.37447 7.45485 9.23565 7.45485 9.09091C7.45485 8.94617 7.39735 8.80735 7.295 8.705C7.19265 8.60265 7.05383 8.54515 6.90909 8.54515C6.76435 8.54515 6.62553 8.60265 6.52318 8.705Z" fill="currentColor"/>
</svg>
