<svg width="30" height="35" viewBox="0 0 30 35" fill="none" xmlns="http://www.w3.org/2000/svg">
<path d="M13.4615 25.5769H12.1154V24.9038C12.1154 23.6543 11.619 22.4559 10.7354 21.5723C9.85182 20.6887 8.65342 20.1923 7.40385 20.1923C6.15427 20.1923 4.95587 20.6887 4.07229 21.5723C3.1887 22.4559 2.69231 23.6543 2.69231 24.9038V25.5769H1.34615C0.989132 25.5769 0.646732 25.7187 0.39428 25.9712C0.141827 26.2237 0 26.5661 0 26.9231V33.6538C0 34.0109 0.141827 34.3533 0.39428 34.6057C0.646732 34.8582 0.989132 35 1.34615 35H13.4615C13.8186 35 14.161 34.8582 14.4134 34.6057C14.6659 34.3533 14.8077 34.0109 14.8077 33.6538V26.9231C14.8077 26.5661 14.6659 26.2237 14.4134 25.9712C14.161 25.7187 13.8186 25.5769 13.4615 25.5769ZM5.38462 24.9038C5.38462 24.3683 5.59735 23.8547 5.97603 23.476C6.35471 23.0974 6.86831 22.8846 7.40385 22.8846C7.93938 22.8846 8.45298 23.0974 8.83166 23.476C9.21034 23.8547 9.42308 24.3683 9.42308 24.9038V25.5769H5.38462V24.9038ZM12.1154 32.3077H2.69231V28.2692H12.1154V32.3077ZM29.2216 9.81683L19.7986 0.39375C19.6735 0.268781 19.5249 0.169685 19.3615 0.102124C19.1981 0.0345636 19.023 -0.000138635 18.8462 4.16229e-07H2.69231C1.97826 4.16229e-07 1.29346 0.283653 0.788559 0.788559C0.283653 1.29346 0 1.97826 0 2.69231V17.5C0 17.857 0.141827 18.1994 0.39428 18.4519C0.646732 18.7043 0.989132 18.8462 1.34615 18.8462C1.70318 18.8462 2.04558 18.7043 2.29803 18.4519C2.55048 18.1994 2.69231 17.857 2.69231 17.5V2.69231H17.5V10.7692C17.5 11.1263 17.6418 11.4687 17.8943 11.7211C18.1467 11.9736 18.4891 12.1154 18.8462 12.1154H26.9231V32.3077H20.1923C19.8353 32.3077 19.4929 32.4495 19.2404 32.702C18.988 32.9544 18.8462 33.2968 18.8462 33.6538C18.8462 34.0109 18.988 34.3533 19.2404 34.6057C19.4929 34.8582 19.8353 35 20.1923 35H26.9231C27.6371 35 28.3219 34.7163 28.8268 34.2114C29.3317 33.7065 29.6154 33.0217 29.6154 32.3077V10.7692C29.6155 10.5924 29.5808 10.4173 29.5133 10.2539C29.4457 10.0904 29.3466 9.94194 29.2216 9.81683ZM20.1923 4.59543L25.02 9.42308H20.1923V4.59543Z" fill="#686C76"/>
</svg>
