<svg width="20" height="20" viewBox="0 0 20 20" fill="none" xmlns="http://www.w3.org/2000/svg">
  <path
    d="M14.5733 11.543C14.6367 11.6055 14.687 11.6798 14.7213 11.7615C14.7556 11.8432 14.7733 11.9308 14.7733 12.0192C14.7733 12.1077 14.7556 12.1953 14.7213 12.277C14.687 12.3587 14.6367 12.4329 14.5733 12.4954L12.5278 14.5147C12.3999 14.641 12.2264 14.7119 12.0455 14.7119C11.8645 14.7119 11.691 14.641 11.5631 14.5147C11.4351 14.3884 11.3633 14.2171 11.3633 14.0385C11.3633 13.8599 11.4351 13.6886 11.5631 13.5623L13.127 12.0192L11.5631 10.4762C11.4351 10.3499 11.3633 10.1786 11.3633 10C11.3633 9.82139 11.4351 9.65009 11.5631 9.5238C11.691 9.3975 11.8645 9.32655 12.0455 9.32655C12.2264 9.32655 12.3999 9.3975 12.5278 9.5238L14.5733 11.543ZM8.43693 9.5238C8.37361 9.46122 8.29841 9.41157 8.21564 9.3777C8.13287 9.34383 8.04415 9.32639 7.95455 9.32639C7.86494 9.32639 7.77622 9.34383 7.69345 9.3777C7.61068 9.41157 7.53548 9.46122 7.47216 9.5238L5.4267 11.543C5.36331 11.6055 5.31302 11.6798 5.27871 11.7615C5.2444 11.8432 5.22674 11.9308 5.22674 12.0192C5.22674 12.1077 5.2444 12.1953 5.27871 12.277C5.31302 12.3587 5.36331 12.4329 5.4267 12.4954L7.47216 14.5147C7.53551 14.5772 7.61071 14.6268 7.69348 14.6606C7.77625 14.6945 7.86496 14.7119 7.95455 14.7119C8.04413 14.7119 8.13284 14.6945 8.21561 14.6606C8.29838 14.6268 8.37358 14.5772 8.43693 14.5147C8.50028 14.4521 8.55053 14.3779 8.58481 14.2962C8.6191 14.2145 8.63674 14.1269 8.63674 14.0385C8.63674 13.95 8.6191 13.8624 8.58481 13.7807C8.55053 13.699 8.50028 13.6248 8.43693 13.5623L6.87301 12.0192L8.43693 10.4762C8.50033 10.4137 8.55062 10.3395 8.58493 10.2577C8.61924 10.176 8.6369 10.0885 8.6369 10C8.6369 9.91155 8.61924 9.82396 8.58493 9.74225C8.55062 9.66054 8.50033 9.58631 8.43693 9.5238ZM17.5 6.63462V17.4038C17.5 17.7609 17.3563 18.1033 17.1006 18.3557C16.8449 18.6082 16.498 18.75 16.1364 18.75H3.86364C3.50198 18.75 3.15513 18.6082 2.8994 18.3557C2.64367 18.1033 2.5 17.7609 2.5 17.4038V2.59615C2.5 2.23913 2.64367 1.89673 2.8994 1.64428C3.15513 1.39183 3.50198 1.25 3.86364 1.25H12.0455C12.135 1.24993 12.2237 1.26728 12.3065 1.30106C12.3893 1.33484 12.4645 1.38439 12.5278 1.44688L17.3006 6.15841C17.3639 6.22097 17.4141 6.29522 17.4483 6.37693C17.4825 6.45864 17.5001 6.5462 17.5 6.63462ZM12.7273 5.96154H15.1724L12.7273 3.54772V5.96154ZM16.1364 17.4038V7.30769H12.0455C11.8646 7.30769 11.6912 7.23678 11.5633 7.11055C11.4355 6.98433 11.3636 6.81313 11.3636 6.63462V2.59615H3.86364V17.4038H16.1364Z"
    fill="currentColor" />
</svg>