<svg width="16" height="16" viewBox="0 0 16 16" fill="currentColor" xmlns="http://www.w3.org/2000/svg">
<path d="M10.8519 7H13.963C14.238 7 14.5018 6.89464 14.6963 6.70711C14.8907 6.51957 15 6.26522 15 6V3C15 2.73478 14.8907 2.48043 14.6963 2.29289C14.5018 2.10536 14.238 2 13.963 2L10.8519 2C10.5768 2 10.313 2.10536 10.1186 2.29289C9.92407 2.48043 9.81481 2.73478 9.81481 3V4H8.77778C8.36522 4 7.96956 4.15804 7.67783 4.43934C7.38611 4.72064 7.22222 5.10218 7.22222 5.5V7.5H5.14815V7C5.14815 6.73478 5.03889 6.48043 4.84441 6.29289C4.64992 6.10536 4.38615 6 4.11111 6H2.03704C1.762 6 1.49822 6.10536 1.30374 6.29289C1.10926 6.48043 1 6.73478 1 7L1 9C1 9.26522 1.10926 9.51957 1.30374 9.70711C1.49822 9.89464 1.762 10 2.03704 10H4.11111C4.38615 10 4.64992 9.89464 4.84441 9.70711C5.03889 9.51957 5.14815 9.26522 5.14815 9V8.5H7.22222L7.22222 10.5C7.22222 10.8978 7.38611 11.2794 7.67783 11.5607C7.96956 11.842 8.36522 12 8.77778 12H9.81481V13C9.81481 13.2652 9.92407 13.5196 10.1186 13.7071C10.313 13.8946 10.5768 14 10.8519 14H13.963C14.238 14 14.5018 13.8946 14.6963 13.7071C14.8907 13.5196 15 13.2652 15 13V10C15 9.73478 14.8907 9.48043 14.6963 9.29289C14.5018 9.10536 14.238 9 13.963 9H10.8519C10.5768 9 10.313 9.10536 10.1186 9.29289C9.92407 9.48043 9.81481 9.73478 9.81481 10V11H8.77778C8.64026 11 8.50837 10.9473 8.41113 10.8536C8.31389 10.7598 8.25926 10.6326 8.25926 10.5V5.5C8.25926 5.36739 8.31389 5.24021 8.41113 5.14645C8.50837 5.05268 8.64026 5 8.77778 5H9.81481V6C9.81481 6.26522 9.92407 6.51957 10.1186 6.70711C10.313 6.89464 10.5768 7 10.8519 7ZM4.11111 9H2.03704L2.03704 7H4.11111V9ZM10.8519 10H13.963V13H10.8519V10ZM10.8519 3L13.963 3V6H10.8519V3Z" fill="currentColor"/>
</svg>
