<svg width="16" height="11" viewBox="0 0 16 11" fill="none" xmlns="http://www.w3.org/2000/svg">
<path d="M7.3184 7.553C8.00024 7.06262 8.51791 6.34822 8.79483 5.51544C9.07176 4.68266 9.09326 3.77571 8.85614 2.92871C8.61903 2.0817 8.13588 1.33962 7.47816 0.812195C6.82045 0.284769 6.02307 0 5.20395 0C4.38482 0 3.58745 0.284769 2.92973 0.812195C2.27201 1.33962 1.78887 2.0817 1.55175 2.92871C1.31463 3.77571 1.33613 4.68266 1.61306 5.51544C1.88999 6.34822 2.40765 7.06262 3.08949 7.553C1.85611 8.04408 0.802767 8.95282 0.0866467 10.1436C0.0490099 10.204 0.0228673 10.272 0.00973857 10.3434C-0.00339018 10.4148 -0.00324318 10.4884 0.010171 10.5598C0.0235852 10.6311 0.049999 10.6989 0.087877 10.7592C0.125755 10.8194 0.174342 10.8709 0.230813 10.9107C0.287284 10.9505 0.350513 10.9778 0.416825 10.991C0.483137 11.0041 0.551208 11.0029 0.617083 10.9874C0.682958 10.9719 0.745322 10.9424 0.800549 10.9006C0.855777 10.8588 0.902767 10.8056 0.938788 10.744C1.40072 9.97653 2.03281 9.34583 2.77766 8.90923C3.5225 8.47262 4.35651 8.24393 5.20395 8.24393C6.05138 8.24393 6.88539 8.47262 7.63024 8.90923C8.37508 9.34583 9.00718 9.97653 9.46911 10.744C9.54372 10.8638 9.65899 10.9471 9.78998 10.9758C9.92097 11.0046 10.0572 10.9764 10.1691 10.8976C10.2811 10.8187 10.3598 10.6954 10.3883 10.5543C10.4167 10.4132 10.3927 10.2657 10.3212 10.1436C9.60513 8.95282 8.55179 8.04408 7.3184 7.553ZM2.40587 4.12358C2.40587 3.52574 2.56997 2.94132 2.87743 2.44424C3.18489 1.94715 3.62189 1.55972 4.13317 1.33094C4.64445 1.10216 5.20705 1.04229 5.74982 1.15893C6.2926 1.27556 6.79117 1.56345 7.18249 1.98618C7.5738 2.40892 7.84029 2.94752 7.94826 3.53387C8.05622 4.12022 8.00081 4.72799 7.78903 5.28032C7.57725 5.83265 7.21862 6.30474 6.75847 6.63688C6.29833 6.96902 5.75735 7.1463 5.20395 7.1463C4.46211 7.14539 3.7509 6.82664 3.22634 6.25996C2.70178 5.69329 2.40671 4.92497 2.40587 4.12358ZM15.7692 10.9041C15.6562 10.9837 15.5186 11.0116 15.3866 10.9816C15.2545 10.9515 15.139 10.8661 15.0653 10.744C14.6039 9.97607 13.9719 9.3451 13.2269 8.90868C12.4819 8.47225 11.6476 8.24425 10.8001 8.24548C10.6652 8.24548 10.5358 8.18758 10.4404 8.08451C10.345 7.98144 10.2914 7.84165 10.2914 7.69589C10.2914 7.55013 10.345 7.41034 10.4404 7.30727C10.5358 7.20421 10.6652 7.1463 10.8001 7.1463C11.2122 7.14588 11.619 7.04715 11.9917 6.85716C12.3643 6.66717 12.6935 6.39061 12.9558 6.04725C13.218 5.70388 13.4068 5.30219 13.5087 4.87086C13.6106 4.43953 13.623 3.98922 13.5451 3.55211C13.4672 3.11499 13.3009 2.70186 13.058 2.34222C12.8152 1.98259 12.5018 1.68534 12.1403 1.4717C11.7788 1.25807 11.3781 1.13333 10.9668 1.10639C10.5555 1.07945 10.1437 1.15098 9.761 1.31587C9.69859 1.34502 9.63141 1.36035 9.56343 1.36097C9.49544 1.36159 9.42803 1.34749 9.36518 1.31949C9.30232 1.29149 9.2453 1.25016 9.19749 1.19795C9.14967 1.14574 9.11202 1.08371 9.08677 1.01552C9.06152 0.947323 9.04918 0.874355 9.05048 0.800922C9.05177 0.72749 9.06668 0.655083 9.09432 0.58798C9.12196 0.520877 9.16177 0.46044 9.2114 0.410239C9.26102 0.360038 9.31946 0.321091 9.38326 0.295701C10.2592 -0.0816924 11.2335 -0.0952732 12.1182 0.257579C13.0029 0.61043 13.7353 1.30471 14.1741 2.20649C14.6129 3.10827 14.727 4.15364 14.4944 5.14094C14.2618 6.12824 13.699 6.98752 12.9146 7.553C14.1479 8.04408 15.2013 8.95282 15.9174 10.1436C15.9911 10.2657 16.0169 10.4144 15.9891 10.557C15.9613 10.6996 15.8822 10.8245 15.7692 10.9041Z" fill="currentColor"/>
</svg>
