<svg
  xmlns="http://www.w3.org/2000/svg"
  width="17"
  height="17"
  viewBox="0 0 17 17"
  fill="none"
>
  <path
    d="M14.5 6.42979L11.4625 6.42979L11.9919 3.51715C12.0131 3.38765 11.9827 3.25497 11.9071 3.14771C11.8316 3.04045 11.7169 2.96719 11.5879 2.94373C11.4588 2.92027 11.3258 2.94848 11.2173 3.02228C11.1089 3.09608 11.0337 3.20957 11.0081 3.33828L10.4456 6.42979H7.4625L7.99188 3.51715C8.01314 3.38765 7.98271 3.25497 7.90714 3.14771C7.83157 3.04045 7.71692 2.96719 7.58788 2.94373C7.45885 2.92027 7.32576 2.94848 7.21732 3.02228C7.10887 3.09608 7.03374 3.20957 7.00812 3.33828L6.44625 6.42979H3.5C3.36739 6.42979 3.24021 6.4825 3.14645 6.57634C3.05268 6.67017 3 6.79744 3 6.93014C3 7.06284 3.05268 7.1901 3.14645 7.28393C3.24021 7.37777 3.36739 7.43048 3.5 7.43048H6.26438L5.71875 10.4326H2.5C2.36739 10.4326 2.24021 10.4853 2.14645 10.5791C2.05268 10.6729 2 10.8002 2 10.9329C2 11.0656 2.05268 11.1929 2.14645 11.2867C2.24021 11.3805 2.36739 11.4332 2.5 11.4332H5.5375L5.00812 14.3459C4.98444 14.4764 5.01354 14.611 5.08902 14.7201C5.1645 14.8292 5.28018 14.9038 5.41062 14.9275C5.4401 14.933 5.47002 14.9357 5.5 14.9357C5.61699 14.9355 5.73021 14.8943 5.81997 14.8192C5.90973 14.7441 5.97034 14.6399 5.99125 14.5248L6.55375 11.4332H9.5375L9.00813 14.3459C8.98444 14.4764 9.01354 14.611 9.08902 14.7201C9.1645 14.8292 9.28018 14.9038 9.41063 14.9275C9.4401 14.933 9.47002 14.9357 9.5 14.9357C9.61699 14.9355 9.73021 14.8943 9.81997 14.8192C9.90973 14.7441 9.97034 14.6399 9.99125 14.5248L10.5538 11.4332H13.5C13.6326 11.4332 13.7598 11.3805 13.8536 11.2867C13.9473 11.1929 14 11.0656 14 10.9329C14 10.8002 13.9473 10.6729 13.8536 10.5791C13.7598 10.4853 13.6326 10.4326 13.5 10.4326H10.7356L11.2812 7.43048H14.5C14.6326 7.43048 14.7598 7.37777 14.8536 7.28393C14.9473 7.1901 15 7.06284 15 6.93014C15 6.79744 14.9473 6.67017 14.8536 6.57634C14.7598 6.4825 14.6326 6.42979 14.5 6.42979ZM9.71875 10.4326H6.73562L7.28125 7.43048L10.2644 7.43048L9.71875 10.4326Z"
    fill="currentColor"
  />
</svg>
