<svg width="16" height="16" viewBox="0 0 16 16" fill="none" xmlns="http://www.w3.org/2000/svg">
<path fill-rule="evenodd" clip-rule="evenodd" d="M6.94751 3.68144C7.23313 3.68144 7.46468 3.9016 7.46468 4.17319C7.46468 4.44478 7.23314 4.66494 6.94751 4.66494H2.03435V10.4046L4.66416 7.90359C4.76023 7.81215 4.87433 7.73957 4.9999 7.69007C5.12546 7.64058 5.26006 7.6151 5.39599 7.6151C5.53191 7.6151 5.66651 7.64058 5.79207 7.69007C5.91756 7.73954 6.03159 7.812 6.12762 7.90335L8.97195 10.6082L10.2668 9.37837C10.4608 9.19412 10.7238 9.09067 10.9979 9.09066C11.2636 9.09066 11.5187 9.18781 11.7107 9.36145L11.7291 9.37849L13.4122 10.9801V8.5375C13.4122 8.26591 13.6437 8.04574 13.9294 8.04574C14.215 8.04574 14.4465 8.26591 14.4465 8.5375V13.5165C14.4465 14.0597 13.9834 14.5 13.4122 14.5H2.03435C1.46309 14.5 1 14.0597 1 13.5165V4.66494C1.00001 4.12177 1.4631 3.68144 2.03435 3.68144H6.94751ZM2.03435 11.7955V13.5165H10.5675L8.61299 11.6578C8.61057 11.6556 8.60804 11.6534 8.60566 11.6512C8.60341 11.649 8.6013 11.6467 8.5991 11.6446L5.39599 8.5986L2.03435 11.7955ZM9.70327 11.3037L12.0302 13.5165H13.4122V12.3715L10.9979 10.0742L9.70327 11.3037Z" fill="currentColor"/>
<path fill-rule="evenodd" clip-rule="evenodd" d="M11.6738 1.58668C11.714 1.47359 11.887 1.47024 11.931 1.58206C12.5232 3.0876 13.1607 3.87949 14.9207 4.62424C15.0358 4.67297 15.0225 4.83865 14.901 4.8706L14.8222 4.89173C13.2348 5.32442 12.4839 6.01521 11.8648 7.65262L11.8354 7.73131L11.8035 7.81859C11.7628 7.93186 11.591 7.93206 11.5468 7.82424L11.5429 7.81349C11.5337 7.78367 11.5244 7.7541 11.515 7.72483L11.4895 7.64601C10.9528 6.00596 10.2721 5.24659 8.58243 4.77954L8.57119 4.77593C8.45873 4.73491 8.45334 4.57342 8.56905 4.53024C10.3254 3.87472 11.094 3.17072 11.6477 1.65926L11.6738 1.58668ZM11.8038 3.54325C11.6568 3.73652 11.494 3.91921 11.3116 4.09173C11.1069 4.28526 10.8851 4.45877 10.6461 4.61734C10.8751 4.77559 11.0867 4.95519 11.2812 5.16042C11.446 5.3343 11.5923 5.52032 11.724 5.71754C11.875 5.51269 12.041 5.32219 12.226 5.14643C12.4315 4.9512 12.6516 4.78231 12.8861 4.63475C12.6429 4.45479 12.4214 4.26022 12.2189 4.04617C12.0666 3.88511 11.9293 3.71744 11.8038 3.54325Z" fill="currentColor"/>
</svg>
