<svg width="16" height="16" viewBox="0 0 16 16" fill="none" xmlns="http://www.w3.org/2000/svg">
  <path
    d="M3.97378 11.9511C4.248 11.9511 4.47032 12.174 4.47032 12.4489C4.47032 12.7238 4.248 12.9467 3.97378 12.9467H3.33068L3.55574 13.1671C4.0978 13.6978 4.83416 14 5.60559 14.0044C6.37701 14.0088 7.1169 13.715 7.66532 13.1904C7.8637 13.0006 8.17801 13.008 8.36733 13.2069C8.55664 13.4057 8.54933 13.7208 8.35096 13.9106C7.61405 14.6156 6.62534 15.0058 5.59989 14.9999C4.59047 14.9942 3.62121 14.6051 2.89622 13.9124L2.86185 13.8793L2.60831 13.6309V14.3156C2.60831 14.5905 2.38599 14.8133 2.11177 14.8133C1.83754 14.8133 1.61523 14.5905 1.61523 14.3156V12.4489C1.61523 12.4459 1.61536 12.4429 1.61542 12.44C1.61549 12.4358 1.61554 12.4316 1.61572 12.4275C1.61592 12.4226 1.61629 12.4178 1.61663 12.413C1.61684 12.41 1.61702 12.4069 1.6173 12.4039C1.61775 12.3989 1.61833 12.3938 1.61893 12.3888C1.61931 12.3857 1.61965 12.3826 1.62008 12.3795C1.6208 12.3744 1.62164 12.3693 1.62251 12.3642C1.62298 12.3614 1.62344 12.3587 1.62396 12.3559C1.62494 12.3507 1.62598 12.3456 1.62711 12.3404C1.62776 12.3375 1.62847 12.3346 1.62918 12.3317C1.63039 12.3266 1.63169 12.3216 1.63305 12.3167C1.63375 12.3141 1.63444 12.3116 1.63518 12.3091C1.63668 12.3039 1.63824 12.2988 1.6399 12.2937C1.64086 12.2908 1.64186 12.2879 1.64287 12.2849C1.6444 12.2806 1.64596 12.2762 1.6476 12.2719C1.64901 12.2682 1.65052 12.2645 1.65203 12.2608C1.65341 12.2574 1.65481 12.254 1.65627 12.2506C1.65811 12.2464 1.66 12.2421 1.66197 12.2379C1.66349 12.2347 1.66504 12.2314 1.66663 12.2282C1.66837 12.2247 1.67014 12.2212 1.67197 12.2177C1.67413 12.2136 1.67636 12.2095 1.67863 12.2054C1.68042 12.2022 1.68223 12.199 1.68409 12.1959C1.68596 12.1927 1.68785 12.1896 1.68979 12.1864C1.69238 12.1823 1.69506 12.1781 1.69779 12.174C1.69961 12.1712 1.70149 12.1685 1.70336 12.1658C1.70582 12.1622 1.70832 12.1587 1.71088 12.1552C1.71367 12.1514 1.71654 12.1476 1.71943 12.1439C1.72124 12.1416 1.72303 12.1392 1.72488 12.1369C1.72837 12.1326 1.73193 12.1283 1.73555 12.1241C1.73743 12.1219 1.73933 12.1198 1.74125 12.1176C1.7451 12.1133 1.74901 12.109 1.75301 12.1048C1.7542 12.1036 1.75538 12.1023 1.75658 12.1011C1.75695 12.1007 1.7573 12.1003 1.75767 12.0999C1.76192 12.0956 1.7663 12.0914 1.77071 12.0872C1.77255 12.0855 1.77436 12.0837 1.77622 12.082C1.77908 12.0794 1.78203 12.0768 1.78495 12.0743C1.79427 12.0661 1.80373 12.0582 1.8135 12.0508C1.81668 12.0484 1.81996 12.0462 1.8232 12.0438C1.8512 12.0237 1.88083 12.0069 1.91157 11.9933C1.9141 11.9922 1.91659 11.991 1.91914 11.9899C1.92057 11.9893 1.92202 11.9888 1.92345 11.9882C1.97102 11.9687 2.02226 11.9563 2.07589 11.9525C2.07847 11.9523 2.08106 11.9521 2.08365 11.952C2.08788 11.9517 2.09212 11.9516 2.09638 11.9515C2.10034 11.9514 2.10429 11.9512 2.10826 11.9512C2.10942 11.9512 2.1106 11.9511 2.11177 11.9511H3.97378ZM10.4124 1C10.4209 1 10.4294 1.00018 10.4378 1.00061C10.5204 1.00477 10.5976 1.02928 10.6647 1.06903C10.6657 1.06966 10.6668 1.07027 10.6679 1.07091C10.6732 1.07409 10.6784 1.07738 10.6835 1.08076C10.6852 1.08184 10.6869 1.08287 10.6885 1.08398C10.6997 1.09146 10.7104 1.09951 10.7209 1.10786C10.7357 1.11965 10.7501 1.13222 10.7636 1.14577L14.2393 4.63022C14.2538 4.64471 14.2672 4.66009 14.2796 4.67609C14.282 4.67914 14.2844 4.68216 14.2867 4.68527C14.2884 4.68752 14.2899 4.68986 14.2916 4.69213C14.2947 4.69654 14.2979 4.70093 14.3009 4.70544C14.302 4.70712 14.3031 4.70885 14.3042 4.71055C14.3075 4.71558 14.3107 4.72064 14.3138 4.7258C14.3148 4.72742 14.3157 4.72908 14.3167 4.73072C14.3599 4.80454 14.3847 4.89045 14.3847 4.98222V12.9467C14.3847 13.2107 14.2801 13.4639 14.0939 13.6506C13.9076 13.8373 13.655 13.9422 13.3917 13.9422H10.9183C10.6441 13.9422 10.4218 13.7193 10.4218 13.4444C10.4218 13.1695 10.6441 12.9467 10.9183 12.9467H13.3917V5.48H10.4124C10.1382 5.47999 9.91591 5.25713 9.91591 4.98222V1.99556H4.45401V6.44444C4.45401 6.71936 4.23171 6.94222 3.95748 6.94222C3.68326 6.94221 3.46094 6.71935 3.46094 6.44444V1.99556C3.46094 1.73152 3.56559 1.47831 3.75182 1.29161C3.93805 1.10491 4.19064 1.00001 4.45401 1H10.4124ZM4.52002 8.21784C5.54546 8.22369 6.5295 8.62508 7.25806 9.3385L7.5116 9.58679V8.90222C7.5116 8.62731 7.73391 8.40444 8.00814 8.40444C8.28236 8.40445 8.50468 8.62731 8.50468 8.90222V10.7689C8.50468 10.7723 8.50444 10.7756 8.50437 10.779C8.5043 10.7827 8.50423 10.7864 8.50407 10.7902C8.5039 10.7942 8.50367 10.7982 8.5034 10.8022C8.50311 10.8066 8.50278 10.811 8.50237 10.8154C8.50198 10.8197 8.50147 10.8239 8.50098 10.8281C8.50058 10.8315 8.50018 10.8348 8.49971 10.8382C8.49899 10.8434 8.49815 10.8484 8.49728 10.8535C8.49679 10.8564 8.49631 10.8593 8.49577 10.8622C8.49488 10.8668 8.49393 10.8715 8.49292 10.8761C8.49215 10.8796 8.49134 10.8831 8.49049 10.8866C8.48939 10.8912 8.48821 10.8957 8.48698 10.9003C8.48606 10.9036 8.48512 10.907 8.48413 10.9103C8.48293 10.9144 8.48173 10.9184 8.48043 10.9224C8.4793 10.926 8.47813 10.9295 8.47691 10.9329C8.47522 10.9378 8.47343 10.9427 8.47158 10.9475C8.47068 10.9498 8.46973 10.9522 8.46879 10.9545C8.46684 10.9594 8.46483 10.9642 8.46273 10.969C8.46146 10.9719 8.46018 10.9748 8.45885 10.9777C8.45678 10.9821 8.45462 10.9866 8.45243 10.991C8.45094 10.994 8.44943 10.9969 8.44788 10.9999C8.44586 11.0038 8.44382 11.0076 8.4417 11.0114C8.43975 11.0149 8.43774 11.0184 8.4357 11.0218C8.43358 11.0254 8.43142 11.029 8.42921 11.0325C8.42712 11.0359 8.42497 11.0392 8.42279 11.0425C8.42068 11.0457 8.41854 11.0489 8.41636 11.052C8.41368 11.0559 8.41093 11.0598 8.40812 11.0636C8.40615 11.0663 8.40414 11.0689 8.40212 11.0716C8.39946 11.075 8.39682 11.0785 8.39406 11.0819C8.3912 11.0855 8.38828 11.0889 8.38533 11.0924C8.38307 11.095 8.38081 11.0977 8.37848 11.1003C8.37506 11.1041 8.37153 11.1079 8.36799 11.1116C8.36641 11.1133 8.36494 11.115 8.36333 11.1167C8.36273 11.1173 8.36205 11.1179 8.36145 11.1185C8.35782 11.1221 8.35409 11.1257 8.35036 11.1293C8.34811 11.1314 8.34591 11.1336 8.34363 11.1357C8.3401 11.139 8.33646 11.1421 8.33284 11.1452C8.33012 11.1476 8.32748 11.15 8.32472 11.1523C8.31483 11.1605 8.30456 11.1683 8.29405 11.1757C8.28813 11.1799 8.28216 11.184 8.27611 11.1879C8.26582 11.1945 8.25532 11.2008 8.24453 11.2067C8.23264 11.2131 8.22049 11.219 8.20822 11.2244C8.20569 11.2255 8.2032 11.2267 8.20064 11.2278C8.19922 11.2284 8.19777 11.2289 8.19634 11.2295C8.14892 11.249 8.09788 11.2613 8.04445 11.2651C8.04166 11.2653 8.03887 11.2656 8.03608 11.2658C8.03191 11.266 8.02773 11.2661 8.02353 11.2662C8.01955 11.2664 8.01558 11.2665 8.01159 11.2665C8.01044 11.2666 8.00929 11.2667 8.00814 11.2667H6.14613C5.8719 11.2667 5.64959 11.0438 5.64959 10.7689C5.64959 10.494 5.8719 10.2711 6.14613 10.2711H6.78923L6.56417 10.0507C6.02211 9.51992 5.28575 9.21779 4.51432 9.21339C3.7429 9.209 3.00301 9.50273 2.45459 10.0274C2.25621 10.2172 1.94191 10.2098 1.75258 10.0109C1.56326 9.81204 1.57057 9.49695 1.76895 9.30715C2.50586 8.60216 3.49457 8.21199 4.52002 8.21784ZM10.909 4.48444H12.6894L10.909 2.69957V4.48444Z"
    fill="currentColor" />
</svg>