<svg width="16" height="16" viewBox="0 0 16 16" fill="currentColor" xmlns="http://www.w3.org/2000/svg">
<path d="M8 15C6.61553 15 5.26215 14.5895 4.11101 13.8203C2.95987 13.0511 2.06266 11.9579 1.53285 10.6788C1.00303 9.3997 0.86441 7.99224 1.13451 6.63437C1.4046 5.2765 2.07129 4.02922 3.05026 3.05025C4.02922 2.07129 5.2765 1.4046 6.63437 1.13451C7.99224 0.864409 9.3997 1.00303 10.6788 1.53285C11.9579 2.06266 13.0511 2.95987 13.8203 4.11101C14.5895 5.26215 15 6.61553 15 8C14.998 9.85591 14.2599 11.6353 12.9476 12.9476C11.6353 14.2599 9.85592 14.998 8 15ZM8 2.07693C6.82853 2.07693 5.68336 2.42431 4.70932 3.07514C3.73527 3.72598 2.9761 4.65104 2.52779 5.73334C2.07949 6.81564 1.96219 8.00657 2.19074 9.15554C2.41928 10.3045 2.9834 11.3599 3.81175 12.1882C4.64011 13.0166 5.6955 13.5807 6.84447 13.8093C7.99343 14.0378 9.18436 13.9205 10.2667 13.4722C11.349 13.0239 12.274 12.2647 12.9249 11.2907C13.5757 10.3166 13.9231 9.17147 13.9231 8C13.9213 6.42965 13.2967 4.92413 12.1863 3.81372C11.0759 2.70332 9.57035 2.07871 8 2.07693ZM7.46154 7.46154V11.2308C7.46154 11.3736 7.51827 11.5105 7.61925 11.6115C7.72023 11.7125 7.85719 11.7692 8 11.7692C8.14281 11.7692 8.27977 11.7125 8.38075 11.6115C8.48173 11.5105 8.53846 11.3736 8.53846 11.2308V7.46154C8.53846 7.31873 8.48173 7.18177 8.38075 7.08079C8.27977 6.97981 8.14281 6.92308 8 6.92308C7.85719 6.92308 7.72023 6.97981 7.61925 7.08079C7.51827 7.18177 7.46154 7.31873 7.46154 7.46154ZM8.80769 5.03846C8.80769 4.87872 8.76032 4.72256 8.67157 4.58973C8.58282 4.45691 8.45668 4.35339 8.30909 4.29225C8.16151 4.23112 7.99911 4.21513 7.84243 4.24629C7.68575 4.27746 7.54183 4.35438 7.42888 4.46734C7.31592 4.5803 7.23899 4.72421 7.20783 4.88089C7.17666 5.03757 7.19266 5.19997 7.25379 5.34755C7.31492 5.49514 7.41845 5.62128 7.55127 5.71003C7.6841 5.79878 7.84026 5.84616 8 5.84616C8.21422 5.84616 8.41965 5.76106 8.57113 5.60959C8.7226 5.45812 8.80769 5.25268 8.80769 5.03846Z" fill="currentColor"/>
</svg>
