<svg width="16" height="16" viewBox="0 0 16 16" fill="none" xmlns="http://www.w3.org/2000/svg">
<path fill-rule="evenodd" clip-rule="evenodd" d="M7.27588 1.5C7.43785 1.5 7.59722 1.53921 7.73931 1.61398L7.73943 1.61404L10.2875 2.95582C10.3262 2.97032 10.363 2.98965 10.397 3.01352L13.0497 4.41033C13.2013 4.49014 13.328 4.60765 13.4163 4.75058C13.4327 4.77709 13.4476 4.8043 13.4611 4.83209C13.4654 4.84064 13.4694 4.8493 13.4731 4.85799C13.5245 4.9729 13.5515 5.09698 13.5518 5.22289V7.04174C13.5518 7.29818 13.3356 7.50606 13.069 7.50606C12.8024 7.50606 12.5862 7.29818 12.5862 7.04174V5.79598L7.75864 8.33727V13.2935L9.07998 12.5342C9.30886 12.4027 9.60526 12.4746 9.74201 12.6947C9.87876 12.9148 9.80411 13.1999 9.57524 13.3314L7.75522 14.3773C7.74999 14.3803 7.74466 14.3832 7.73931 14.386C7.59721 14.4608 7.43785 14.5 7.27588 14.5C7.11391 14.5 6.95455 14.4608 6.81245 14.386L6.81233 14.386L1.50197 11.5896C1.35038 11.5098 1.22377 11.3923 1.13548 11.2494C1.04717 11.1065 1.00039 10.9434 1 10.7771V5.22289C1.0003 5.09699 1.02722 4.97289 1.07861 4.85799C1.08235 4.8493 1.08631 4.84064 1.09064 4.83209C1.10413 4.80429 1.1191 4.77709 1.13548 4.75058C1.2238 4.60765 1.35044 4.49014 1.50209 4.41033L6.81233 1.61404L6.81245 1.61398C6.95454 1.53921 7.11391 1.5 7.27588 1.5ZM1.96552 10.775L1.96564 10.7751L6.79312 13.3171V8.33727L4.95619 7.37026V9.01511C4.95619 9.27154 4.74005 9.47943 4.47343 9.47943C4.20682 9.47941 3.99067 9.27153 3.99067 9.01511V6.86196L1.96552 5.79592V10.775ZM5.39599 6.54319L7.27588 7.53282L12.1231 4.9811L10.1142 3.92323L5.39599 6.54319ZM2.4286 4.9811L4.40472 6.02134L9.12306 3.40132L7.27588 2.42864L2.4286 4.9811Z" fill="currentColor"/>
<path fill-rule="evenodd" clip-rule="evenodd" d="M11.6207 7.94136C12.9538 7.94136 14.0345 8.98079 14.0345 10.263C14.0345 10.7361 13.8872 11.1762 13.6344 11.5432L14.8586 12.7206C15.0471 12.9019 15.0471 13.1959 14.8586 13.3772C14.6701 13.5585 14.3644 13.5585 14.1759 13.3772L12.9517 12.1998C12.5701 12.4429 12.1127 12.5846 11.6207 12.5846C10.2876 12.5846 9.20692 11.5451 9.20692 10.263C9.20693 8.98079 10.2876 7.94136 11.6207 7.94136ZM11.6207 8.87001C10.8209 8.87001 10.1725 9.49366 10.1724 10.263C10.1724 11.0323 10.8209 11.6559 11.6207 11.6559C12.4206 11.6559 13.069 11.0323 13.069 10.263C13.069 9.49366 12.4206 8.87001 11.6207 8.87001Z" fill="currentColor"/>
</svg>
