<svg width="16" height="16" viewBox="0 0 16 16" fill="none" xmlns="http://www.w3.org/2000/svg">
<path fill-rule="evenodd" clip-rule="evenodd" d="M8.04046 1.50109C4.20501 1.47825 1.03272 4.7358 1.00024 8.73296C0.983481 10.8485 1.83208 12.7595 3.19822 14.1017C3.69585 14.59 4.46378 14.6368 5.00332 14.2006C5.79953 13.5546 6.82309 13.1706 7.9996 13.1706C9.17611 13.1706 10.1986 13.5557 10.9959 14.2006C11.5396 14.6411 12.3107 14.5846 12.8115 14.0908C14.1587 12.7617 15 10.8789 15 8.79387C15 4.78039 11.8874 1.52284 8.0415 1.5M8.00065 12.4408C5.92315 12.4408 4.50149 10.8169 4.50149 8.80801C4.50149 6.7991 5.92315 5.14693 8.00065 5.14693C10.0781 5.14693 11.4998 6.79801 11.4998 8.80801C11.4998 10.818 10.0792 12.4408 8.00065 12.4408Z" fill="currentColor"/>
</svg>
