<svg width="16" height="16" viewBox="0 0 16 16" fill="currentColor" xmlns="http://www.w3.org/2000/svg">
<path d="M13.4812 2.52098C12.6576 1.69637 11.5801 1.17326 10.4227 1.03606C9.26523 0.898863 8.09529 1.15558 7.10167 1.76478C6.10805 2.37398 5.34871 3.30014 4.94617 4.39379C4.54363 5.48745 4.52138 6.68481 4.88301 7.79266L1.30398 11.3711C1.20727 11.467 1.13059 11.5812 1.0784 11.707C1.02622 11.8328 0.99957 11.9678 1.00001 12.104V13.9632C1.00001 14.2381 1.10926 14.5019 1.30374 14.6963C1.49822 14.8908 1.76199 15 2.03703 15H4.11107C4.24859 15 4.38047 14.9454 4.47771 14.8482C4.57495 14.7509 4.62958 14.6191 4.62958 14.4816V13.4447H5.66661C5.80412 13.4447 5.93601 13.3901 6.03325 13.2929C6.13049 13.1957 6.18512 13.0638 6.18512 12.9263V11.8895H7.22214C7.29025 11.8895 7.35771 11.8762 7.42065 11.8501C7.4836 11.8241 7.5408 11.786 7.58899 11.7378L8.20861 11.1177C8.72724 11.2863 9.26931 11.3719 9.81469 11.3711H9.82118C10.8462 11.3698 11.8478 11.0649 12.6995 10.4947C13.5513 9.92459 14.2149 9.11485 14.6065 8.1678C14.9982 7.22075 15.1003 6.17889 14.9 5.17383C14.6997 4.16877 14.206 3.24561 13.4812 2.52098ZM13.9628 6.32294C13.8921 8.53206 12.0346 10.3316 9.82182 10.3342H9.81469C9.28981 10.3351 8.76957 10.2359 8.28185 10.042C8.18644 10.0006 8.08078 9.9888 7.97861 10.0082C7.87643 10.0276 7.78246 10.0773 7.70889 10.1508L7.00761 10.8526H5.66661C5.52909 10.8526 5.3972 10.9073 5.29996 11.0045C5.20272 11.1017 5.14809 11.2336 5.14809 11.3711V12.4079H4.11107C3.97355 12.4079 3.84167 12.4625 3.74443 12.5597C3.64719 12.657 3.59256 12.7888 3.59256 12.9263L3.59256 13.9632H2.03703V12.104L5.85003 8.29229C5.92355 8.21874 5.97324 8.12478 5.99266 8.02262C6.01208 7.92046 6.00032 7.81483 5.95892 7.71943C5.76431 7.23017 5.66509 6.7082 5.66661 6.18167C5.66661 3.96931 7.46908 2.11207 9.67858 2.04144C10.2461 2.0225 10.8115 2.12028 11.3398 2.32872C11.868 2.53715 12.3478 2.85181 12.7494 3.2532C13.1511 3.65458 13.466 4.13415 13.6747 4.66218C13.8834 5.19022 13.9815 5.75547 13.9628 6.32294ZM11.8887 4.8908C11.8887 5.04461 11.8431 5.19495 11.7577 5.32283C11.6722 5.45071 11.5507 5.55038 11.4086 5.60924C11.2665 5.6681 11.1101 5.6835 10.9592 5.65349C10.8084 5.62349 10.6698 5.54943 10.561 5.44067C10.4522 5.33192 10.3782 5.19336 10.3481 5.04251C10.3181 4.89167 10.3335 4.73531 10.3924 4.59322C10.4513 4.45112 10.551 4.32968 10.6789 4.24423C10.8068 4.15878 10.9571 4.11317 11.111 4.11317C11.3172 4.11317 11.5151 4.1951 11.6609 4.34094C11.8068 4.48677 11.8887 4.68456 11.8887 4.8908Z" fill="currentColor"/>
</svg>
