<svg width="16" height="16" viewBox="0 0 16 16" fill="none" xmlns="http://www.w3.org/2000/svg">
<path d="M4.92466 3.30221C5.72239 3.30435 6.50471 3.51332 7.18882 3.90867L7.35339 4.00777L7.21488 4.11743C6.64072 4.5595 6.01889 4.94244 5.36076 5.25769L5.26888 5.29865L5.05357 5.38982L4.83963 5.47438C4.68229 5.5287 4.52921 5.59593 4.38296 5.67389L4.29382 5.72013C3.86489 5.95468 3.50245 6.2881 3.23922 6.68995C2.976 7.09188 2.81901 7.55039 2.78392 8.02443L2.77706 8.16713V8.34021L2.79626 8.70621C2.79626 8.89416 2.82493 9.24331 3.0198 9.62053L3.08425 9.73416C3.14171 9.82867 3.20292 9.91418 3.26528 9.98916C3.4029 10.163 3.56297 10.3049 3.73429 10.4199L3.90709 10.5282C4.19422 10.7041 4.54745 10.8631 4.90409 10.951L5.44167 11.0752C5.68575 11.1327 5.89552 11.1868 6.11365 11.251C6.69082 11.4208 7.25193 11.641 7.83612 11.942L7.94994 12.0345L7.84023 12.1151C7.36495 12.4553 6.24144 13.1135 4.72444 12.9832C4.06595 12.9262 3.42854 12.7267 2.86072 12.4005C2.41059 12.1424 2.01557 11.8025 1.69915 11.4003L1.60727 11.2642C1.21442 10.6868 0.946702 10.0382 0.818719 9.35891L0.769349 9.10391L0.747407 9.11448C0.635158 8.46499 0.62859 7.80267 0.726836 7.15107L0.744664 7.16825L0.811863 6.69787C0.83291 6.60527 0.855209 6.51489 0.879061 6.42701L0.932545 6.24468C1.06754 5.80479 1.2757 5.38841 1.54967 5.01325L1.75126 4.75825C2.45481 3.93717 3.46932 3.39794 4.59964 3.31542L4.71621 3.30749L4.92466 3.30221Z" fill="currentColor"/>
<path d="M4.25405 8.83173C5.64537 8.84052 6.46073 8.93797 7.07225 9.203C7.39809 9.34366 7.70487 9.5239 7.98423 9.73812L8.28182 9.98123C8.98538 10.5353 9.829 10.8447 10.7544 10.6762C10.9015 10.6492 11.0443 10.6131 11.1837 10.5679C11.7666 10.4912 12.3606 10.5295 12.9281 10.6789L13.1503 10.7423C13.5133 10.8553 13.8373 11.005 14.1308 11.1823L14.2954 11.2866L14.1857 11.4135C13.4751 12.1962 12.493 12.6866 11.4264 12.7665L11.3085 12.7731C10.3115 12.8218 9.42871 12.5411 8.62055 12.0107L8.63427 11.9988L8.41896 11.8482C8.33383 11.7886 8.24972 11.727 8.168 11.6632L8.0336 11.5549L7.79223 11.4346C6.92195 11.0134 6.17817 10.7964 5.6131 10.6564L5.05494 10.5256L4.8986 10.486L4.89037 10.4833L4.8794 10.519L4.88763 10.4833C4.70549 10.4338 4.52922 10.3659 4.36239 10.2798L4.17862 10.1821L3.99486 10.0711C3.82641 9.96686 3.67894 9.83424 3.55876 9.67998L3.48059 9.56371L3.41339 9.43687C3.33579 9.27903 3.28533 9.10953 3.26391 8.93611L3.25705 8.86872L3.41202 8.85419L3.5423 8.84494C3.65174 8.83818 3.76237 8.83376 3.88652 8.83173H4.25405Z" fill="currentColor"/>
<path d="M0.436102 9.69055C0.49223 9.91152 0.556615 10.1183 0.625354 10.3089L0.688438 10.478C0.804292 10.7743 0.951108 11.0571 1.12454 11.3223L0.04937 12.0041C0.0284656 12.0185 0.000310463 12.0036 3.20368e-08 11.9724V9.89667L0.00274281 9.88214L0.0137139 9.86628L0.436102 9.69055Z" fill="currentColor"/>
<path d="M12.0326 8.74188L12.3288 8.75642C12.4999 8.76563 12.6706 8.78125 12.8403 8.80398C13.5779 8.94888 14.2947 9.18163 14.9728 9.49633L15.2841 9.64695C15.4976 9.77142 15.6771 9.89227 15.8203 9.99577L15.9877 10.12L15.9959 10.1305L16 10.1451V11.831L15.9973 11.8416L15.9945 11.8482C15.9909 11.8535 15.9854 11.8588 15.9794 11.8614L15.9616 11.864L15.9534 11.8627L15.9438 11.8561L15.8395 11.7702C15.5271 11.5178 15.1903 11.2933 14.8343 11.1017L14.6698 11.0171L14.5957 10.9643C14.1147 10.6317 13.5754 10.3852 13.0035 10.2376L12.828 10.1966C12.2765 10.0762 11.7064 10.0484 11.1453 10.116L11.0356 10.1305L10.8957 10.1728L10.7695 10.2032L10.642 10.2296C9.74744 10.3906 8.99313 9.98397 8.54376 9.64167L8.33393 9.47387L8.48616 9.36288C8.6673 9.23639 8.85727 9.12333 9.05666 9.02728C9.41193 8.85684 9.87602 8.76845 10.4363 8.73395C10.9149 8.70423 11.4509 8.71418 12.0326 8.74188Z" fill="currentColor"/>
<path d="M15.2649 7.10747L15.2924 7.22506L15.3033 7.29905C15.3216 7.47683 15.3327 7.65756 15.3362 7.84209L15.3349 8.11163C15.3279 8.37947 15.3029 8.64338 15.2622 8.90175L15.2197 9.1343C14.5661 8.79088 13.8587 8.55196 13.1256 8.42742L13.1461 8.34021C13.1791 8.17792 13.1981 8.01112 13.2024 7.84342C13.2063 7.749 13.2019 7.65429 13.1887 7.56066L13.1845 7.5382C13.8012 7.44812 14.4053 7.28972 14.9838 7.06519L15.2293 6.97666L15.2649 7.10747Z" fill="currentColor"/>
<path d="M8.0912 3.95888C8.91265 3.33192 9.99915 2.90521 11.3098 3.01813C11.9673 3.07429 12.6035 3.27184 13.1708 3.59685L13.3258 3.69198C13.5811 3.85699 13.8245 4.06817 14.0567 4.31826L14.1843 4.46757L14.0211 4.53231L13.8716 4.61423C13.723 4.69306 13.5703 4.76453 13.4136 4.82695C13.3104 4.86415 13.2022 4.89951 13.0899 4.93266C12.4592 5.12263 11.7923 5.17392 11.1384 5.08196C10.4777 4.92095 9.76255 5.02479 9.13482 5.35018C8.85001 5.4922 8.58338 5.67867 8.34765 5.90511L8.11451 6.14294L7.98697 6.2645L7.71818 6.50233C7.48967 6.67958 7.24148 6.83191 6.979 6.95816C6.39762 7.23553 5.58412 7.3077 4.15805 7.24884L3.71235 7.2277L3.53818 7.21581L3.46962 7.20921L3.54778 7.0533C3.64324 6.88161 3.7638 6.71341 3.91395 6.55253C4.09575 6.35781 4.29186 6.20514 4.49541 6.08613L4.62844 6.01742L4.71758 5.97514L4.80123 5.93946L4.94797 5.88397C5.33165 5.73802 5.7034 5.56456 6.06154 5.36735C6.83738 4.95336 7.53673 4.45492 7.99383 4.03551L8.0912 3.95888Z" fill="currentColor"/>
<path d="M15.9849 3.99455C15.9886 3.99706 15.9921 4.00011 15.9945 4.0038L16 4.0223V6.09009L15.9959 6.10727L15.9835 6.11916C15.5686 6.36407 15.1306 6.57084 14.6752 6.73619C14.4913 6.79707 14.3379 6.84217 14.1596 6.88682C13.7988 6.9781 13.417 7.06182 13.0885 7.122L12.8664 7.16032C12.6664 7.1833 12.4591 7.19847 12.2451 7.20524L12.0079 7.20921C10.7496 7.21056 9.79577 7.15245 9.09643 6.89606L8.95106 6.83925C8.77525 6.76384 8.60455 6.67653 8.4409 6.57896L8.34216 6.51818C8.42782 6.43836 8.51301 6.35441 8.59587 6.26714L8.70558 6.15747C8.81863 6.05126 8.9392 5.954 9.06488 5.86944C9.65679 5.48656 10.3655 5.34844 11.0164 5.50741L11.2344 5.53516C11.8254 5.59317 12.4229 5.5473 12.9967 5.39906L13.1777 5.34886C13.3144 5.30831 13.4437 5.2614 13.5672 5.21276L13.91 5.07139C14.0691 5.0018 14.2163 4.92775 14.3516 4.85074L14.4133 4.82695C14.9554 4.60768 15.4698 4.32926 15.9451 3.99587C15.9489 3.99312 15.9529 3.99032 15.9575 3.98927C15.962 3.98825 15.9667 3.9885 15.9712 3.98927C15.9758 3.9901 15.981 3.99199 15.9849 3.99455Z" fill="currentColor"/>
<path d="M0.0507414 4.16235L0.239993 4.31694C0.434489 4.46983 0.642765 4.61634 0.865347 4.75164L1.1122 4.89434L1.01071 5.03968C0.892835 5.21747 0.785221 5.41082 0.69118 5.62104L0.614382 5.80602C0.567596 5.92574 0.525947 6.04728 0.490957 6.17069L0.452559 6.32131L0.0109711 5.90775C0.00418791 5.90053 -1.33843e-05 5.89107 3.20368e-08 5.88133V4.19142C4.98423e-05 4.16771 0.0171811 4.15382 0.0342848 4.15443L0.0507414 4.16235Z" fill="currentColor"/>
</svg>
