<svg
  xmlns="http://www.w3.org/2000/svg"
  width="16"
  height="16"
  viewBox="0 0 16 16"
  fill="none"
>
  <path
    d="M2.5 4.79281C2.5 4.31942 2.86631 3.93567 3.31818 3.93567C3.77005 3.93567 4.13636 4.31942 4.13636 4.79281C4.13636 5.2662 3.77005 5.64995 3.31818 5.64995C2.86631 5.64995 2.5 5.2662 2.5 4.79281Z"
    fill="currentColor"
  />
  <path
    d="M5.77273 4.79281C5.77273 4.31942 6.13904 3.93567 6.59091 3.93567H13.6818C14.1337 3.93567 14.5 4.31942 14.5 4.79281C14.5 5.2662 14.1337 5.64995 13.6818 5.64995L6.59091 5.64995C6.13904 5.64995 5.77273 5.2662 5.77273 4.79281Z"
    fill="currentColor"
  />
  <path
    d="M2.5 9.00704C2.5 8.53366 2.86631 8.1499 3.31818 8.1499C3.77005 8.1499 4.13636 8.53366 4.13636 9.00704C4.13636 9.48043 3.77005 9.86419 3.31818 9.86419C2.86631 9.86419 2.5 9.48043 2.5 9.00704Z"
    fill="currentColor"
  />
  <path
    d="M5.77273 9.00704C5.77273 8.53366 6.13904 8.1499 6.59091 8.1499H13.6818C14.1337 8.1499 14.5 8.53366 14.5 9.00705C14.5 9.48043 14.1337 9.86419 13.6818 9.86419H6.59091C6.13904 9.86419 5.77273 9.48043 5.77273 9.00704Z"
    fill="currentColor"
  />
  <path
    d="M3.31818 12.3641C2.86631 12.3641 2.5 12.7479 2.5 13.2213C2.5 13.6947 2.86631 14.0784 3.31818 14.0784C3.77005 14.0784 4.13636 13.6947 4.13636 13.2213C4.13636 12.7479 3.77005 12.3641 3.31818 12.3641Z"
    fill="currentColor"
  />
  <path
    d="M6.59091 12.3641C6.13904 12.3641 5.77273 12.7479 5.77273 13.2213C5.77273 13.6947 6.13904 14.0784 6.59091 14.0784H13.6818C14.1337 14.0784 14.5 13.6947 14.5 13.2213C14.5 12.7479 14.1337 12.3641 13.6818 12.3641H6.59091Z"
    fill="currentColor"
  />
</svg>
