<svg width="16" height="16" viewBox="0 0 16 16" fill="currentColor" xmlns="http://www.w3.org/2000/svg">
<path d="M8 7.74074C7.54473 7.74089 7.10472 7.89786 6.76038 8.18297C6.41605 8.46808 6.1904 8.86229 6.12467 9.29354C6.05894 9.72479 6.15752 10.1643 6.4024 10.5317C6.64727 10.8991 7.02209 11.1699 7.45833 11.2945V12.4074C7.45833 12.5449 7.5154 12.6768 7.61698 12.7741C7.71857 12.8713 7.85634 12.9259 8 12.9259C8.14366 12.9259 8.28143 12.8713 8.38302 12.7741C8.4846 12.6768 8.54167 12.5449 8.54167 12.4074V11.2945C8.97791 11.1699 9.35273 10.8991 9.59761 10.5317C9.84248 10.1643 9.94106 9.72479 9.87533 9.29354C9.8096 8.86229 9.58395 8.46808 9.23962 8.18297C8.89529 7.89786 8.45527 7.74089 8 7.74074ZM8 10.3333C7.8393 10.3333 7.68221 10.2877 7.5486 10.2023C7.41498 10.1168 7.31084 9.99532 7.24935 9.8532C7.18785 9.71108 7.17176 9.55469 7.20311 9.40382C7.23446 9.25294 7.31185 9.11436 7.42548 9.00558C7.53911 8.89681 7.68388 8.82273 7.84149 8.79272C7.9991 8.76271 8.16247 8.77811 8.31093 8.83698C8.45939 8.89585 8.58629 8.99554 8.67557 9.12345C8.76485 9.25135 8.8125 9.40173 8.8125 9.55556C8.8125 9.76184 8.7269 9.95967 8.57452 10.1055C8.42215 10.2514 8.21549 10.3333 8 10.3333ZM13.4167 5.66667H11.25V4.11111C11.25 3.28599 10.9076 2.49467 10.2981 1.91122C9.6886 1.32778 8.86195 1 8 1C7.13805 1 6.3114 1.32778 5.7019 1.91122C5.09241 2.49467 4.75 3.28599 4.75 4.11111V5.66667H2.58333C2.29602 5.66667 2.02047 5.77593 1.8173 5.97041C1.61414 6.16489 1.5 6.42866 1.5 6.7037L1.5 13.963C1.5 14.238 1.61414 14.5018 1.8173 14.6963C2.02047 14.8907 2.29602 15 2.58333 15H13.4167C13.704 15 13.9795 14.8907 14.1827 14.6963C14.3859 14.5018 14.5 14.238 14.5 13.963V6.7037C14.5 6.42866 14.3859 6.16489 14.1827 5.97041C13.9795 5.77593 13.704 5.66667 13.4167 5.66667ZM5.83333 4.11111C5.83333 3.56103 6.06161 3.03348 6.46794 2.64452C6.87426 2.25555 7.42536 2.03704 8 2.03704C8.57464 2.03704 9.12574 2.25555 9.53206 2.64452C9.93839 3.03348 10.1667 3.56103 10.1667 4.11111V5.66667L5.83333 5.66667V4.11111ZM13.4167 13.963H2.58333L2.58333 6.7037L13.4167 6.7037V13.963Z" fill="currentColor"/>
</svg>
