<svg width="99" height="20" viewBox="0 0 99 20" fill="none" xmlns="http://www.w3.org/2000/svg">
<path fill-rule="evenodd" clip-rule="evenodd" d="M15.1564 10.8697C14.7077 8.27667 12.5828 6.31283 10.0291 6.31283C7.47585 6.31283 5.35118 8.27614 4.90205 10.8687C4.11141 10.2409 3.419 9.47186 2.85516 8.59494C4.05026 5.62197 6.81258 3.54022 10.0294 3.54022C13.2465 3.54022 16.0091 5.62244 17.204 8.59596C16.6399 9.47295 15.9473 10.242 15.1564 10.8697Z" fill="url(#paint0_linear_19549_124490)"/>
<path fill-rule="evenodd" clip-rule="evenodd" d="M17.2002 8.60181C16.0053 5.62455 13.2445 3.53992 10.0295 3.53992C6.81476 3.53992 4.05412 5.62418 2.85909 8.60103C2.31835 7.76141 1.89555 6.82276 1.61736 5.81451C3.31838 2.95932 6.4494 1.0448 10.0304 1.0448C13.6109 1.0448 16.7416 2.95878 18.4427 5.8133C18.1645 6.82232 17.7414 7.76166 17.2002 8.60181Z" fill="url(#paint1_linear_19549_124490)"/>
<path fill-rule="evenodd" clip-rule="evenodd" d="M10.0299 12.6896C13.9949 12.6896 17.347 9.79186 18.4437 5.80975C19.3056 7.25658 19.8003 8.94493 19.8003 10.7481C19.8003 14.2051 17.982 17.2401 15.2439 18.9602C14.072 16.5375 12.1737 14.963 10.0312 14.963C7.88853 14.963 5.99005 16.5378 4.8181 18.9609C2.07937 17.241 0.260544 14.2056 0.260544 10.7481C0.260544 8.94544 0.754955 7.25753 1.61638 5.81098C2.71344 9.79246 6.06524 12.6896 10.0299 12.6896Z" fill="url(#paint2_linear_19549_124490)"/>
<path d="M16.3616 3.3562C15.6532 8.07061 12.8095 12.1954 10.1296 12.682C10.0965 12.682 10.0635 12.6816 10.0305 12.6808L10.0296 12.6814C10.0629 12.6818 10.0962 12.682 10.1296 12.682C14.1001 12.682 17.362 9.76888 18.454 5.81693C17.7554 4.71407 17.328 4.18726 16.3616 3.3562Z" fill="url(#paint3_linear_19549_124490)"/>
<path d="M74.6839 15.2312V6.50952H83.5404V8.36938H77.1097V9.8103H83.2093V11.6702H77.1097V13.3713H83.6295V15.2312H74.6839Z" fill="#53E2FB"/>
<path d="M66.7914 8.40747V15.2312H64.4293V8.40747H60.7174V6.50952H70.5097V8.40747H66.7914Z" fill="#53E2FB"/>
<path d="M54.1747 15.2312V6.50952H56.5368V15.2312H54.1747Z" fill="#53E2FB"/>
<path d="M40.9213 15.2312V6.50952H43.2834V13.3206H49.6695V15.2312H40.9213Z" fill="#53E2FB"/>
<path d="M27.0821 15.2312V6.50952H35.9385V8.36938H29.5079V9.8103H35.6074V11.6702H29.5079V13.3713H36.0276V15.2312H27.0821Z" fill="#53E2FB"/>
<path d="M95.9331 9.3974C94.5252 12.1808 92.449 14.6022 89.823 15.2312C93.1687 15.1186 95.6258 14.0792 97.1431 11.7094C96.7703 10.9795 96.3774 10.2454 95.9331 9.3974Z" fill="url(#paint4_linear_19549_124490)"/>
<path d="M96.3552 15.23L95.9784 14.4729L95.8637 14.2402C96.5033 13.7703 97.0723 13.1982 97.5646 12.5123L98.9911 15.23H96.3552Z" fill="#53E2FB"/>
<path d="M95.4727 8.52679L94.4133 6.50836H91.7773L87.1995 15.23H89.8354L90.1638 14.5702H90.1637L91.5037 11.8785H91.5036L93.108 8.66656L94.1745 10.8185C94.5494 10.2631 94.8971 9.66468 95.2151 9.03607L95.4727 8.52679Z" fill="#53E2FB"/>
<defs>
<linearGradient id="paint0_linear_19549_124490" x1="-1.40176" y1="8.93966" x2="23.4027" y2="8.50285" gradientUnits="userSpaceOnUse">
<stop stop-color="#3CB7BE"/>
<stop offset="1" stop-color="#BC2592"/>
</linearGradient>
<linearGradient id="paint1_linear_19549_124490" x1="19.2287" y1="3.87667" x2="1.05194" y2="5.55482" gradientUnits="userSpaceOnUse">
<stop stop-color="#F767CF"/>
<stop offset="1" stop-color="#24E1FA"/>
</linearGradient>
<linearGradient id="paint2_linear_19549_124490" x1="1.6476" y1="13.7514" x2="19.7799" y2="8.67118" gradientUnits="userSpaceOnUse">
<stop stop-color="#4BEDFF"/>
<stop offset="1" stop-color="#CB38BD"/>
</linearGradient>
<linearGradient id="paint3_linear_19549_124490" x1="27.0104" y1="-2.28129" x2="8.70093" y2="10.2892" gradientUnits="userSpaceOnUse">
<stop offset="0.368946" stop-color="#DD42BB"/>
<stop offset="1" stop-color="#FFB054"/>
</linearGradient>
<linearGradient id="paint4_linear_19549_124490" x1="102.901" y1="6.82779" x2="90.7205" y2="13.6268" gradientUnits="userSpaceOnUse">
<stop offset="0.368946" stop-color="#DD42BB"/>
<stop offset="1" stop-color="#FFB054"/>
</linearGradient>
</defs>
</svg>
