<svg width="16" height="16" viewBox="0 0 16 16" fill="currentColor" xmlns="http://www.w3.org/2000/svg">
<path d="M6.83314 14.4167C6.83314 14.5714 6.77169 14.7197 6.66229 14.8291C6.5529 14.9385 6.40453 15 6.24983 15H2.16663C1.85722 15 1.56048 14.8771 1.3417 14.6583C1.12291 14.4395 1 14.1428 1 13.8333L1 2.16667C1 1.85725 1.12291 1.5605 1.3417 1.34171C1.56048 1.12292 1.85722 1 2.16663 1L6.24983 1C6.40453 1 6.5529 1.06146 6.66229 1.17085C6.77169 1.28025 6.83314 1.42862 6.83314 1.58333C6.83314 1.73804 6.77169 1.88642 6.66229 1.99581C6.5529 2.10521 6.40453 2.16667 6.24983 2.16667H2.16663L2.16663 13.8333H6.24983C6.40453 13.8333 6.5529 13.8948 6.66229 14.0042C6.77169 14.1136 6.83314 14.262 6.83314 14.4167ZM14.8289 7.58729L11.9124 4.67062C11.8029 4.56117 11.6544 4.49968 11.4997 4.49968C11.3449 4.49968 11.1964 4.56117 11.087 4.67062C10.9775 4.78008 10.916 4.92854 10.916 5.08333C10.916 5.23813 10.9775 5.38658 11.087 5.49604L13.0083 7.41667L6.24983 7.41667C6.09512 7.41667 5.94676 7.47812 5.83736 7.58752C5.72797 7.69692 5.66651 7.84529 5.66651 8C5.66651 8.15471 5.72797 8.30308 5.83736 8.41248C5.94676 8.52188 6.09512 8.58333 6.24983 8.58333H13.0083L11.087 10.504C10.9775 10.6134 10.916 10.7619 10.916 10.9167C10.916 11.0715 10.9775 11.2199 11.087 11.3294C11.1964 11.4388 11.3449 11.5003 11.4997 11.5003C11.6544 11.5003 11.8029 11.4388 11.9124 11.3294L14.8289 8.41271C14.8832 8.35853 14.9262 8.2942 14.9555 8.22338C14.9849 8.15257 15 8.07666 15 8C15 7.92334 14.9849 7.84743 14.9555 7.77662C14.9262 7.7058 14.8832 7.64147 14.8289 7.58729Z" fill="currentColor"/>
</svg>
