<svg width="16" height="16" viewBox="0 0 16 16" fill="none" xmlns="http://www.w3.org/2000/svg">
<path d="M14.1824 4.20834L11.7917 1.81756C11.6914 1.71652 11.5721 1.63642 11.4407 1.5819C11.3092 1.52739 11.1682 1.49955 11.0259 1.50001H2.58333C2.29602 1.50001 2.02047 1.61414 1.8173 1.81731C1.61414 2.02047 1.5 2.29602 1.5 2.58334V13.4167C1.5 13.704 1.61414 13.9795 1.8173 14.1827C2.02047 14.3859 2.29602 14.5 2.58333 14.5H13.4167C13.704 14.5 13.9795 14.3859 14.1827 14.1827C14.3859 13.9795 14.5 13.704 14.5 13.4167V4.97412C14.5004 4.8318 14.4726 4.69081 14.4181 4.55935C14.3636 4.42789 14.2835 4.30857 14.1824 4.20834ZM10.7083 13.4167H5.29167V9.625H10.7083V13.4167ZM13.4167 13.4167H11.7917V9.625C11.7917 9.33768 11.6775 9.06213 11.4744 8.85897C11.2712 8.65581 10.9956 8.54167 10.7083 8.54167H5.29167C5.00435 8.54167 4.7288 8.65581 4.52563 8.85897C4.32247 9.06213 4.20833 9.33768 4.20833 9.625V13.4167H2.58333V2.58334H11.0259L13.4167 4.97412V13.4167ZM10.1667 4.20834C10.1667 4.352 10.1096 4.48977 10.008 4.59135C9.90643 4.69294 9.76866 4.75 9.625 4.75H5.83333C5.68967 4.75 5.5519 4.69294 5.45032 4.59135C5.34873 4.48977 5.29167 4.352 5.29167 4.20834C5.29167 4.06468 5.34873 3.9269 5.45032 3.82532C5.5519 3.72374 5.68967 3.66667 5.83333 3.66667H9.625C9.76866 3.66667 9.90643 3.72374 10.008 3.82532C10.1096 3.9269 10.1667 4.06468 10.1667 4.20834Z" fill="currentColor"/>
</svg>
