<svg width="13" height="13" viewBox="0 0 13 13" fill="none" xmlns="http://www.w3.org/2000/svg">
<path d="M12 3.12H10V1.04C10 0.764175 9.89464 0.499647 9.70711 0.304609C9.51957 0.109571 9.26522 0 9 0H1C0.734784 0 0.48043 0.109571 0.292893 0.304609C0.105357 0.499647 0 0.764175 0 1.04V9.36C0.000293571 9.45783 0.027117 9.55359 0.0773888 9.63628C0.127661 9.71896 0.199341 9.78523 0.284196 9.82745C0.369051 9.86967 0.463638 9.88615 0.55709 9.87498C0.650542 9.86381 0.739069 9.82544 0.8125 9.7643L3 7.93V9.88C3 10.1558 3.10536 10.4204 3.29289 10.6154C3.48043 10.8104 3.73478 10.92 4 10.92H9.84937L12.1875 12.8843C12.276 12.9587 12.3862 12.9995 12.5 13C12.6326 13 12.7598 12.9452 12.8536 12.8477C12.9473 12.7502 13 12.6179 13 12.48V4.16C13 3.88417 12.8946 3.61965 12.7071 3.42461C12.5196 3.22957 12.2652 3.12 12 3.12ZM2.65938 6.8757L1 8.27125V1.04H9V6.76H2.97375C2.85932 6.76002 2.74835 6.80085 2.65938 6.8757ZM12 11.3912L10.3406 9.9957C10.2522 9.92127 10.1419 9.88046 10.0281 9.88H4V7.8H9C9.26522 7.8 9.51957 7.69043 9.70711 7.49539C9.89464 7.30035 10 7.03582 10 6.76V4.16H12V11.3912Z" fill="currentColor"/>
</svg>
