<svg width="16" height="16" viewBox="0 0 16 16" fill="none" xmlns="http://www.w3.org/2000/svg">
<path fill-rule="evenodd" clip-rule="evenodd" d="M11.9668 1C13.6407 1 15 2.35933 15 4.0332V11.9668C15 13.6407 13.6407 15 11.9668 15H4.0332C2.35933 15 1 13.6407 1 11.9668V4.0332C1 2.35933 2.35933 1 4.0332 1H11.9668ZM4.58008 6.24902L3.04297 13.252H4.58008L7.52539 5.74805L6.11719 13.252H7.6543L10.4717 5.25098L9.19141 13.252H10.7285L13.5459 4.49707L10.7285 2.74805H9.19141L10.4717 4.99805L7.6543 2.74805H6.11719L7.52539 5.5L4.58008 2.74805H3.04297L4.58008 6.24902Z" fill="currentColor"/>
</svg>
