<svg width="16" height="16" viewBox="0 0 16 16" fill="none" xmlns="http://www.w3.org/2000/svg">
<path fill-rule="evenodd" clip-rule="evenodd" d="M1 3.03568C1 2.46369 1.468 2 2.0453 2H13.5436C14.121 2 14.5889 2.46369 14.5889 3.03568V5.93874C14.5889 6.22474 14.3549 6.45658 14.0663 6.45658C13.7776 6.45658 13.5436 6.22474 13.5436 5.93874V3.03568H2.0453V12.3568H6.65117C6.93983 12.3568 7.17383 12.5887 7.17383 12.8747C7.17383 13.1607 6.93983 13.3925 6.65117 13.3925H2.0453C1.468 13.3925 1 12.9288 1 12.3568V3.03568Z" fill="currentColor"/>
<path d="M3.87459 5.6249C4.30756 5.6249 4.65856 5.27713 4.65856 4.84813C4.65856 4.41914 4.30756 4.07137 3.87459 4.07137C3.44161 4.07137 3.09061 4.41914 3.09061 4.84813C3.09061 5.27713 3.44161 5.6249 3.87459 5.6249Z" fill="currentColor"/>
<path d="M6.48784 5.6249C6.92082 5.6249 7.27182 5.27713 7.27182 4.84813C7.27182 4.41914 6.92082 4.07137 6.48784 4.07137C6.05487 4.07137 5.70387 4.41914 5.70387 4.84813C5.70387 5.27713 6.05487 5.6249 6.48784 5.6249Z" fill="currentColor"/>
<path d="M11.257 11.127C11.69 11.127 12.041 10.7792 12.041 10.3502C12.041 9.92121 11.69 9.57344 11.257 9.57344C10.8241 9.57344 10.4731 9.92121 10.4731 10.3502C10.4731 10.7792 10.8241 11.127 11.257 11.127Z" fill="currentColor"/>
<path fill-rule="evenodd" clip-rule="evenodd" d="M12.5135 6.9638C12.7205 7.03782 12.9235 7.13085 13.1201 7.24334C13.3168 7.35584 13.4996 7.48352 13.6678 7.62412C13.789 7.72541 13.8486 7.88166 13.8253 8.03704L13.669 9.07947L14.6577 9.46634C14.8049 9.52393 14.9116 9.65283 14.9398 9.80713C15.0187 10.2396 15.0211 10.6873 14.9407 11.1291C14.9127 11.2835 14.8059 11.4126 14.6586 11.4702L13.669 11.8574L13.8253 12.9002C13.8486 13.0554 13.7892 13.2115 13.6683 13.3128C13.3223 13.6026 12.9297 13.8245 12.5123 13.973C12.3633 14.026 12.1973 13.9989 12.0734 13.9014L11.2408 13.2464L10.4079 13.9017C10.2837 13.9994 10.1173 14.0264 9.96821 13.9731C9.76122 13.8991 9.55821 13.806 9.36154 13.6935C9.16488 13.581 8.98207 13.4534 8.81387 13.3128C8.69269 13.2115 8.63311 13.0552 8.65641 12.8998L8.81273 11.8574L7.82396 11.4705C7.67676 11.413 7.57008 11.2841 7.54191 11.1298C7.46296 10.6973 7.46061 10.2496 7.54094 9.80779C7.56902 9.65337 7.67575 9.52433 7.82305 9.4667L8.81273 9.07947L8.65635 8.03665C8.63307 7.88144 8.6925 7.72535 8.81344 7.62404C9.1594 7.33423 9.55197 7.11235 9.96941 6.96389C10.1184 6.91091 10.2844 6.938 10.4083 7.03551L11.2408 7.6905L12.0738 7.03515C12.198 6.93747 12.3644 6.91047 12.5135 6.9638ZM12.4329 7.90987L11.5252 8.62394C11.3587 8.75496 11.123 8.75496 10.9565 8.62394L10.0488 7.90983C9.89245 7.98114 9.74226 8.06664 9.60038 8.1657L9.77081 9.30217C9.80207 9.51058 9.68421 9.71282 9.48643 9.79021L8.40787 10.2122C8.39221 10.3835 8.39258 10.5551 8.40841 10.7249L9.48643 11.1467C9.68421 11.2241 9.80207 11.4263 9.77081 11.6347L9.60048 12.7705C9.67041 12.8193 9.74321 12.8654 9.81886 12.9087C9.89452 12.952 9.97125 12.9914 10.0488 13.027L10.9565 12.3129C11.123 12.1819 11.3587 12.1819 11.5252 12.3129L12.4329 13.0271C12.5892 12.9557 12.7394 12.8702 12.8813 12.7712L12.7109 11.6347C12.6796 11.4263 12.7975 11.2241 12.9953 11.1467L14.0738 10.7247C14.0895 10.5534 14.0891 10.3818 14.0733 10.212L12.9953 9.79021C12.7975 9.71282 12.6796 9.51058 12.7109 9.30217L12.8812 8.16635C12.8113 8.11757 12.7385 8.07143 12.6628 8.02816C12.5872 7.98488 12.5104 7.94548 12.4329 7.90987Z" fill="currentColor"/>
</svg>
