<svg width="16" height="16" viewBox="0 0 16 16" fill="none" xmlns="http://www.w3.org/2000/svg">
<path d="M15 6.25C15 6.40471 14.9385 6.55308 14.8291 6.66248C14.7197 6.77187 14.5714 6.83333 14.4167 6.83333C14.262 6.83333 14.1136 6.77187 14.0042 6.66248C13.8948 6.55308 13.8333 6.40471 13.8333 6.25V2.99208L8.99677 7.82938C8.88731 7.93883 8.73886 8.00032 8.58406 8.00032C8.42927 8.00032 8.28081 7.93883 8.17135 7.82938C8.0619 7.71992 8.0004 7.57146 8.0004 7.41667C8.0004 7.26187 8.0619 7.11341 8.17135 7.00396L13.0079 2.16667H9.75C9.59529 2.16667 9.44692 2.10521 9.33752 1.99581C9.22812 1.88642 9.16667 1.73804 9.16667 1.58333C9.16667 1.42862 9.22812 1.28025 9.33752 1.17085C9.44692 1.06146 9.59529 1 9.75 1H14.4167C14.5714 1 14.7197 1.06146 14.8291 1.17085C14.9385 1.28025 15 1.42862 15 1.58333V6.25ZM12.0833 8C11.9286 8 11.7802 8.06146 11.6709 8.17085C11.5615 8.28025 11.5 8.42862 11.5 8.58333V13.8333H2.16667V4.5H7.41667C7.57138 4.5 7.71975 4.43854 7.82915 4.32915C7.93854 4.21975 8 4.07138 8 3.91667C8 3.76196 7.93854 3.61358 7.82915 3.50419C7.71975 3.39479 7.57138 3.33333 7.41667 3.33333H2.16667C1.85725 3.33333 1.5605 3.45625 1.34171 3.67504C1.12292 3.89383 1 4.19058 1 4.5V13.8333C1 14.1428 1.12292 14.4395 1.34171 14.6583C1.5605 14.8771 1.85725 15 2.16667 15H11.5C11.8094 15 12.1062 14.8771 12.325 14.6583C12.5437 14.4395 12.6667 14.1428 12.6667 13.8333V8.58333C12.6667 8.42862 12.6052 8.28025 12.4958 8.17085C12.3864 8.06146 12.238 8 12.0833 8Z" fill="currentColor"/>
</svg>
