<svg width="16" height="16" viewBox="0 0 16 16" fill="none" xmlns="http://www.w3.org/2000/svg">
<path d="M7.46154 8C7.46154 7.57147 7.33522 7.15257 7.09855 6.79626C6.86188 6.43996 6.5255 6.16225 6.13193 5.99826C5.73837 5.83427 5.3053 5.79136 4.8875 5.87497C4.46969 5.95857 4.08591 6.16492 3.78469 6.46794C3.48347 6.77095 3.27834 7.15701 3.19523 7.5773C3.11213 7.9976 3.15478 8.43324 3.3178 8.82915C3.48082 9.22505 3.75688 9.56344 4.11108 9.80152C4.46528 10.0396 4.8817 10.1667 5.30769 10.1667C5.87893 10.1667 6.42677 9.93839 6.83069 9.53206C7.23462 9.12574 7.46154 8.57464 7.46154 8ZM4.23077 8C4.23077 7.78574 4.29393 7.57629 4.41226 7.39813C4.5306 7.21998 4.69879 7.08113 4.89557 6.99913C5.09235 6.91714 5.30889 6.89568 5.51779 6.93748C5.72669 6.97928 5.91858 7.08246 6.06919 7.23397C6.2198 7.38547 6.32237 7.57851 6.36392 7.78865C6.40548 7.9988 6.38415 8.21662 6.30264 8.41457C6.22113 8.61253 6.0831 8.78172 5.906 8.90076C5.7289 9.0198 5.52069 9.08333 5.30769 9.08333C5.02207 9.08333 4.74816 8.9692 4.54619 8.76603C4.34423 8.56287 4.23077 8.28732 4.23077 8ZM14.4615 6.375H13.3846V2.04167C13.3846 1.89801 13.3279 1.76023 13.2269 1.65865C13.1259 1.55707 12.989 1.5 12.8462 1.5H6.38462C6.24181 1.5 6.10485 1.55707 6.00387 1.65865C5.90288 1.76023 5.84615 1.89801 5.84615 2.04167V3.66667H2.07692C1.79131 3.66667 1.51739 3.7808 1.31542 3.98397C1.11346 4.18713 1 4.46268 1 4.75V11.25C1 11.5373 1.11346 11.8129 1.31542 12.016C1.51739 12.2192 1.79131 12.3333 2.07692 12.3333H4.23077V13.4167C4.23077 13.704 4.34423 13.9795 4.54619 14.1827C4.74816 14.3859 5.02207 14.5 5.30769 14.5H13.9231C14.2087 14.5 14.4826 14.3859 14.6846 14.1827C14.8865 13.9795 15 13.704 15 13.4167V6.91667C15 6.77301 14.9433 6.63523 14.8423 6.53365C14.7413 6.43207 14.6043 6.375 14.4615 6.375ZM10.5348 10.4375L13.9231 7.9763V12.8987L10.5348 10.4375ZM6.92308 2.58333H12.3077V7.81313L9.61539 9.76922V4.75C9.61539 4.46268 9.50192 4.18713 9.29996 3.98397C9.098 3.7808 8.82408 3.66667 8.53846 3.66667H6.92308V2.58333ZM2.07692 4.75H8.53846V10.0245C8.53846 10.0326 8.53846 10.0407 8.53846 10.0489V11.25H2.07692V4.75ZM5.30769 12.3333H8.53846C8.82408 12.3333 9.098 12.2192 9.29996 12.016C9.50192 11.8129 9.61539 11.5373 9.61539 11.25V11.1058L12.7963 13.4167H5.30769V12.3333Z" fill="currentColor"/>
</svg>
