<svg width="16" height="16" viewBox="0 0 16 16" fill="none" xmlns="http://www.w3.org/2000/svg">
<path d="M10.1678 13.9072C10.4671 13.9072 10.7098 14.1498 10.7098 14.4492C10.7097 14.7485 10.4671 14.9911 10.1678 14.9911H5.83215C5.53284 14.9911 5.29021 14.7485 5.29019 14.4492C5.29019 14.1498 5.53283 13.9072 5.83215 13.9072H10.1678ZM7.99998 1.98413C8.29929 1.98413 8.54194 2.22677 8.54194 2.52609C8.54192 2.82539 8.29928 3.06805 7.99998 3.06805H2.5804C2.28109 3.06805 2.03844 3.31069 2.03844 3.61V11.1974C2.03846 11.4967 2.2811 11.7394 2.5804 11.7394H13.4196C13.7189 11.7394 13.9615 11.4967 13.9615 11.1974V7.40371C13.9615 7.10439 14.2042 6.86175 14.5035 6.86175C14.8028 6.86175 15.0454 7.10439 15.0454 7.40371V11.1974C15.0454 12.0953 14.3175 12.8233 13.4196 12.8233H2.5804C1.68247 12.8233 0.954547 12.0953 0.954529 11.1974V3.61C0.954529 2.71206 1.68246 1.98413 2.5804 1.98413H7.99998ZM14.5035 1.00891C14.8028 1.00892 15.0454 1.25156 15.0454 1.55087C15.0454 2.76648 14.2665 3.93765 13.4501 4.8515C12.7476 5.63786 11.9439 6.31339 11.3523 6.77098C11.366 6.82368 11.3782 6.87683 11.3889 6.93042C11.5001 7.48961 11.443 8.06931 11.2248 8.59605C11.0066 9.12278 10.6371 9.573 10.163 9.88975C9.689 10.2065 9.13165 10.3756 8.56152 10.3756H5.14034C4.90153 10.3756 4.69089 10.2193 4.62167 9.99071C4.55252 9.76229 4.64091 9.51553 4.83933 9.38299L4.83807 9.38378C4.8376 9.3841 4.83717 9.38441 4.83682 9.38464C4.83958 9.38267 4.84581 9.37806 4.85508 9.37088C4.87373 9.35645 4.90433 9.33165 4.94293 9.29626C5.02044 9.2252 5.12855 9.11316 5.23779 8.9584C5.45373 8.65246 5.67873 8.17436 5.67873 7.49282C5.67874 6.92269 5.84784 6.36534 6.16459 5.89129C6.48134 5.41725 6.93156 5.04773 7.45829 4.82954C7.98503 4.61136 8.56473 4.55424 9.12392 4.66547C9.17751 4.67613 9.23066 4.68836 9.28336 4.70199C9.74094 4.11039 10.4165 3.30674 11.2028 2.60422C12.1167 1.7878 13.2879 1.00891 14.5035 1.00891ZM8.91242 5.72855C8.56349 5.65915 8.20177 5.69482 7.87309 5.83096C7.54442 5.9671 7.26349 6.19767 7.06584 6.49345C6.86819 6.78926 6.76265 7.13706 6.76265 7.49282C6.76265 8.25075 6.55725 8.84799 6.30755 9.29169H8.56152C8.91728 9.29168 9.26508 9.18615 9.56089 8.9885C9.85667 8.79085 10.0872 8.50991 10.2234 8.18125C10.3595 7.85257 10.3952 7.49085 10.3258 7.14192C10.2564 6.79299 10.085 6.47245 9.83345 6.22089C9.58189 5.96932 9.26135 5.79796 8.91242 5.72855ZM13.8548 2.19947C13.2354 2.3925 12.5726 2.834 11.925 3.41259C11.2805 3.98842 10.7083 4.64767 10.2842 5.18169C10.3954 5.26458 10.501 5.3556 10.5999 5.45446C10.6987 5.5533 10.7897 5.65887 10.8726 5.77003C11.4066 5.34602 12.066 4.77389 12.6418 4.12934C13.2204 3.48168 13.6618 2.81885 13.8548 2.19947Z" fill="currentColor"/>
</svg>
