<svg width="16" height="16" viewBox="0 0 16 16" xmlns="http://www.w3.org/2000/svg">
<path d="M14.6842 5.39979L10.5996 1.31551C10.4996 1.21549 10.3809 1.13614 10.2502 1.082C10.1195 1.02786 9.9795 1 9.83807 1C9.69663 1 9.55659 1.02786 9.42592 1.082C9.29526 1.13614 9.17654 1.21549 9.07654 1.31551L5.46711 4.93671C4.74967 4.7119 3.11153 4.44065 1.40204 5.82114C1.28421 5.9159 1.18766 6.03441 1.11866 6.16896C1.04966 6.30351 1.00977 6.45108 1.00158 6.60207C0.993391 6.75306 1.01709 6.90408 1.07113 7.04531C1.12516 7.18653 1.20834 7.31479 1.31522 7.42174L4.56728 10.6727L1.69616 13.5421C1.59513 13.6431 1.53837 13.7802 1.53837 13.9231C1.53837 14.066 1.59513 14.203 1.69616 14.304C1.79719 14.4051 1.93421 14.4618 2.07709 14.4618C2.21996 14.4618 2.35699 14.4051 2.45802 14.304L5.32712 11.4327L8.57716 14.683C8.67707 14.7833 8.79579 14.863 8.92652 14.9174C9.05725 14.9718 9.19742 14.9998 9.33902 15C9.36459 15 9.3895 15 9.41507 15C9.56857 14.9894 9.71799 14.9458 9.85317 14.8723C9.98834 14.7988 10.1061 14.697 10.1985 14.5739C11.5203 12.8172 11.3931 11.3889 11.0862 10.5354L14.6848 6.92298C14.7848 6.82293 14.8641 6.70417 14.9182 6.57347C14.9723 6.44277 15.0001 6.30269 15 6.16125C14.9999 6.0198 14.972 5.87975 14.9178 5.7491C14.8636 5.61845 14.7842 5.49975 14.6842 5.39979ZM13.9223 6.16172L10.0679 10.0293C9.9883 10.1092 9.9358 10.2121 9.91781 10.3234C9.89982 10.4348 9.91724 10.5489 9.96762 10.6499C10.6043 11.924 9.84648 13.2473 9.33902 13.9224L2.07709 6.65913C2.8901 6.00355 3.66812 5.83057 4.26307 5.83057C4.64059 5.82541 5.01499 5.89948 5.36212 6.04797C5.46339 6.09866 5.57807 6.11612 5.68983 6.09788C5.8016 6.07963 5.90477 6.0266 5.98467 5.94634L9.8384 2.07677L13.9223 6.16105V6.16172Z" fill="currentColor"/>
</svg>
