<svg width="12" height="12" viewBox="0 0 12 12" fill="currentColor" xmlns="http://www.w3.org/2000/svg">
<path d="M11.7301 5.07651L8.64512 8.17189C8.90821 8.90289 9.01726 10.1272 7.88411 11.6336C7.80486 11.7396 7.70367 11.8271 7.58747 11.8904C7.47127 11.9536 7.34278 11.991 7.2108 12C7.18887 12 7.16752 12 7.1456 12C7.0243 12 6.90418 11.9761 6.79211 11.9297C6.68005 11.8833 6.57823 11.8152 6.49248 11.7294L3.70808 8.94213L1.2485 11.4034C1.16189 11.49 1.04442 11.5387 0.921938 11.5387C0.799454 11.5387 0.681988 11.49 0.595379 11.4034C0.50877 11.3168 0.460113 11.1994 0.460113 11.0769C0.460113 10.9544 0.50877 10.8369 0.595379 10.7503L3.05669 8.29074L0.269973 5.50404C0.178375 5.41232 0.107117 5.30235 0.0608395 5.18127C0.0145617 5.06019 -0.00569912 4.93073 0.0013764 4.8013C0.00845192 4.67187 0.0427049 4.54539 0.101906 4.43007C0.161106 4.31476 0.243928 4.21321 0.344978 4.13203C1.81161 2.94869 3.21535 3.1812 3.82981 3.37391L6.92232 0.270454C7.00804 0.184711 7.10982 0.116694 7.22183 0.0702894C7.33384 0.0238845 7.4539 0 7.57515 0C7.69639 0 7.81645 0.0238845 7.92846 0.0702894C8.04048 0.116694 8.14225 0.184711 8.22798 0.270454L11.7295 3.77143C11.9026 3.94446 11.9999 4.17913 12 4.42385C12.0001 4.66858 11.903 4.90333 11.7301 5.07651Z" fill="currentColor"/>
</svg>
