<svg width="16" height="16" viewBox="0 0 16 16" fill="none" xmlns="http://www.w3.org/2000/svg">
<path d="M8.89102 1.05764C5.05717 0.565884 1.54943 3.27493 1.05765 7.10924C0.565881 10.943 3.27442 14.45 7.10885 14.9424C10.9433 15.4341 14.4516 12.7251 14.9422 8.89076C15.4346 5.05704 12.726 1.54998 8.89102 1.05764ZM10.3325 5.42396C10.2026 5.42567 10.0785 5.47799 9.98657 5.5698L7.38887 8.16742L7.20977 7.98833L6.83467 7.61324C9.39504 5.06054 9.85648 5.03604 10.3325 5.42396ZM7.49562 8.25959L10.0857 5.66955C10.1197 5.63394 10.1605 5.60564 10.2058 5.58637C10.2511 5.56709 10.2998 5.55726 10.349 5.55746C10.3982 5.55766 10.4468 5.56789 10.4919 5.58754C10.537 5.60718 10.5776 5.63582 10.6113 5.6717C10.645 5.70758 10.6709 5.74995 10.6877 5.79621C10.7044 5.84248 10.7115 5.89167 10.7085 5.94077C10.7056 5.98988 10.6927 6.03787 10.6705 6.08181C10.6484 6.12574 10.6176 6.1647 10.5798 6.1963L7.83864 8.60259L7.49562 8.25959ZM7.68813 8.66443L7.04643 8.80326C7.03877 8.80499 7.03075 8.80409 7.02366 8.8007C7.01657 8.79731 7.01082 8.79164 7.00735 8.7846C7.00345 8.77786 7.0019 8.77002 7.00296 8.7623C7.00401 8.75459 7.00761 8.74745 7.01318 8.74201L7.38945 8.36576L7.68813 8.66443ZM6.05297 8.39667L6.73667 7.713L7.24944 8.22517L6.09497 8.47367C6.08535 8.47617 6.07516 8.47527 6.06613 8.47112C6.0571 8.46698 6.04977 8.45984 6.04539 8.45092C6.03995 8.44247 6.03772 8.43235 6.03912 8.42239C6.04051 8.41244 6.04542 8.40331 6.05297 8.39667ZM3.92604 11.9306C3.92021 11.93 3.91453 11.9284 3.90935 11.9257C3.90416 11.923 3.89957 11.9192 3.89582 11.9147C3.89208 11.9102 3.88927 11.905 3.88754 11.8994C3.88582 11.8939 3.88522 11.888 3.88579 11.8821C3.88689 11.872 3.89142 11.8625 3.89862 11.8553H3.89979L4.45165 11.3035L5.16451 12.0163L3.92604 11.9306ZM5.34069 11.1979C5.31424 11.2115 5.29314 11.2337 5.28076 11.2608C5.26839 11.2878 5.26546 11.3183 5.27243 11.3472L5.39086 11.8518C5.39468 11.8674 5.39328 11.8837 5.38688 11.8984C5.38047 11.9131 5.36941 11.9252 5.35541 11.933C5.34141 11.9408 5.32524 11.9437 5.3094 11.9414C5.29356 11.939 5.27893 11.9315 5.26777 11.9201H5.26602L4.72116 11.3752L4.54965 11.2031L6.74425 9.01093L7.80597 8.78168L8.31583 9.29152C7.58371 9.93436 6.58266 10.5755 5.34069 11.1979ZM8.42025 9.19818H8.41908L7.92964 8.70876L10.6709 6.30247C10.6962 6.27995 10.7194 6.25515 10.7403 6.22839C10.6539 7.01298 9.55663 8.12134 8.42025 9.19818ZM10.5536 5.42979L10.5518 5.42863C10.359 5.23484 10.2482 4.97418 10.2425 4.70084C10.2369 4.42749 10.3368 4.16248 10.5215 3.96089C10.7062 3.75929 10.9615 3.63663 11.2343 3.61839C11.5071 3.60014 11.7764 3.68773 11.9863 3.86294L11.0471 4.80387C11.0406 4.81032 11.0354 4.818 11.0319 4.82646C11.0284 4.83492 11.0266 4.84399 11.0266 4.85316C11.0266 4.86232 11.0284 4.8714 11.0319 4.87986C11.0354 4.88832 11.0406 4.896 11.0471 4.90245L11.7746 5.62988C11.5757 5.72858 11.3509 5.76236 11.1319 5.72646C10.9128 5.69056 10.7105 5.58679 10.5536 5.42979ZM12.0575 5.42979C12.0093 5.47743 11.9563 5.52004 11.8994 5.55696L11.1947 4.85287L12.089 3.9586C12.4746 4.37861 12.4606 5.02729 12.0575 5.42979ZM11.9992 4.52911C11.9851 4.53928 11.9746 4.55356 11.9691 4.56997C11.9635 4.58638 11.9633 4.60411 11.9682 4.6207C11.989 4.66276 11.9972 4.70994 11.9917 4.75653C11.9862 4.80312 11.9673 4.84712 11.9373 4.8832C11.9306 4.89162 11.9257 4.90128 11.9227 4.91161C11.9198 4.92195 11.9189 4.93277 11.9202 4.94345C11.9214 4.95412 11.9248 4.96445 11.93 4.97383C11.9353 4.98321 11.9423 4.99147 11.9507 4.99812C11.9648 5.0091 11.982 5.01524 11.9997 5.01562C12.0116 5.01552 12.0232 5.01285 12.0339 5.00782C12.0445 5.00278 12.054 4.99549 12.0616 4.98645C12.1117 4.92626 12.1432 4.85277 12.1522 4.77496C12.1612 4.69716 12.1474 4.61842 12.1123 4.54836C12.1062 4.5396 12.0984 4.53213 12.0894 4.52641C12.0804 4.52068 12.0703 4.51681 12.0598 4.51502C12.0493 4.51323 12.0385 4.51355 12.0281 4.51597C12.0177 4.51839 12.0078 4.52286 11.9992 4.52911Z" fill="currentColor"/>
</svg>
