<svg width="16" height="16" viewBox="0 0 16 16" fill="currentColor" xmlns="http://www.w3.org/2000/svg">
<path d="M7.12274 2.02914L1.12789 12.9493C1.02857 13.1333 0.985476 13.3445 1.00432 13.5546C1.02316 13.7647 1.10305 13.964 1.23338 14.1258C1.36371 14.2876 1.53831 14.4043 1.73397 14.4605C1.92964 14.5167 2.13713 14.5097 2.32886 14.4404L7.98486 12.4253C7.98694 12.4256 7.98903 12.4256 7.99111 12.4253C7.99318 12.4257 7.99529 12.4257 7.99736 12.4253L13.6659 14.4404C13.8167 14.4959 13.9781 14.513 14.1366 14.4902C14.2951 14.4674 14.446 14.4055 14.5767 14.3095C14.7074 14.2136 14.8141 14.0864 14.8877 13.9387C14.9614 13.7911 14.9999 13.6272 15 13.4608C14.9996 13.2803 14.9543 13.103 14.8687 12.946L8.86386 2.03174C8.77712 1.87074 8.65074 1.73664 8.4977 1.6432C8.34465 1.54976 8.17045 1.50033 7.99296 1.5C7.81548 1.49967 7.6411 1.54844 7.48774 1.64132C7.33437 1.73419 7.20753 1.86782 7.12024 2.02849L7.12274 2.02914ZM13.9997 13.4608L13.9941 13.4608L8.49813 11.5017L8.49813 7.74075C8.49813 7.60283 8.44544 7.47057 8.35164 7.37305C8.25785 7.27553 8.13063 7.22074 7.99799 7.22074C7.86534 7.22074 7.73813 7.27553 7.64433 7.37305C7.55054 7.47057 7.49784 7.60283 7.49784 7.74075L7.49784 11.4965L2.00376 13.4569L1.99626 13.4608L7.98736 2.54069L13.9997 13.4608Z" fill="currentColor"/>
</svg>
