<svg width="16" height="16" viewBox="0 0 16 16" fill="none" xmlns="http://www.w3.org/2000/svg">
<path d="M12.4514 10.7173C13.1089 10.1862 13.6342 9.51996 13.9885 8.76774C14.3428 8.01553 14.5171 7.19647 14.4987 6.37087C14.4337 3.51387 12.0543 1.15814 9.08879 1.00813C8.32363 0.968077 7.5579 1.07631 6.83708 1.3264C6.11626 1.57649 5.45505 1.96334 4.89272 2.46397C4.33038 2.9646 3.8784 3.56881 3.5636 4.2407C3.2488 4.9126 3.07761 5.63848 3.06019 6.37524L1.60113 9.07411C1.59529 9.08536 1.58944 9.09661 1.58424 9.10786C1.47963 9.34234 1.47218 9.60641 1.5634 9.846C1.65462 10.0856 1.83761 10.2826 2.07492 10.3967L2.09117 10.4035L3.58012 11.0592V13.0005C3.58012 13.2658 3.68968 13.5201 3.88469 13.7077C4.0797 13.8952 4.3442 14.0006 4.61998 14.0006H7.73957C7.87746 14.0006 8.00971 13.9479 8.10722 13.8541C8.20472 13.7604 8.2595 13.6332 8.2595 13.5006C8.2595 13.3679 8.20472 13.2408 8.10722 13.147C8.00971 13.0532 7.87746 13.0005 7.73957 13.0005H4.61998V10.7386C4.62006 10.6427 4.59149 10.5489 4.53768 10.4682C4.48387 10.3875 4.40709 10.3234 4.31647 10.2835L2.54026 9.50038L4.03961 6.72901C4.07869 6.65857 4.09943 6.58008 4.10005 6.50025C4.0999 5.48041 4.45994 4.49077 5.12119 3.69349C5.78243 2.8962 6.70565 2.33856 7.73957 2.11193V3.08635C7.39267 3.2043 7.10029 3.4364 6.91411 3.74162C6.72794 4.04683 6.65995 4.40552 6.72217 4.75429C6.78439 5.10305 6.97281 5.41943 7.25413 5.64751C7.53545 5.87559 7.89155 6.00069 8.2595 6.00069C8.62745 6.00069 8.98355 5.87559 9.26487 5.64751C9.54619 5.41943 9.73461 5.10305 9.79683 4.75429C9.85905 4.40552 9.79107 4.04683 9.60489 3.74162C9.41872 3.4364 9.12634 3.2043 8.77943 3.08635V2.00005C8.86392 2.00005 8.94841 2.00005 9.0329 2.0063C9.95492 2.05709 10.8409 2.3682 11.58 2.90071C12.3192 3.43321 12.8786 4.16349 13.1884 5.00018H11.899C11.8227 5.00015 11.7474 5.01627 11.6783 5.04737C11.6093 5.07848 11.5481 5.12383 11.4993 5.18019L9.84139 7.09402C9.49562 6.97012 9.11542 6.9678 8.76804 7.08748C8.42066 7.20717 8.12848 7.44114 7.94318 7.74802C7.75787 8.0549 7.69139 8.41491 7.75548 8.76439C7.81957 9.11386 8.01011 9.43029 8.29339 9.65769C8.57668 9.88509 8.93446 10.0088 9.30345 10.007C9.67245 10.0052 10.0289 9.8779 10.3097 9.64771C10.5906 9.41752 10.7777 9.09923 10.838 8.74914C10.8984 8.39905 10.8281 8.03971 10.6395 7.73468L12.1427 6.00023H13.4289C13.4445 6.13023 13.454 6.26149 13.4575 6.39399C13.4737 7.11018 13.3126 7.81979 12.9873 8.46425C12.6621 9.10872 12.1821 9.66954 11.5871 10.1004C11.5137 10.1533 11.4562 10.2238 11.4204 10.3049C11.3846 10.3861 11.3717 10.4748 11.383 10.5623L11.9029 14.5625C11.9187 14.6832 11.9798 14.7943 12.0747 14.8748C12.1696 14.9554 12.2917 14.9999 12.4183 15C12.44 15 12.4617 14.9987 12.4833 14.9962C12.5511 14.9881 12.6165 14.9673 12.6759 14.9348C12.7353 14.9024 12.7874 14.859 12.8294 14.8072C12.8713 14.7553 12.9022 14.6961 12.9204 14.6327C12.9385 14.5694 12.9434 14.5033 12.935 14.4381L12.4514 10.7173ZM8.2595 5.00018C8.15667 5.00018 8.05615 4.97086 7.97064 4.91591C7.88514 4.86097 7.8185 4.78288 7.77915 4.69151C7.7398 4.60014 7.7295 4.4996 7.74956 4.40261C7.76962 4.30562 7.81914 4.21652 7.89185 4.14659C7.96457 4.07666 8.05721 4.02904 8.15807 4.00974C8.25892 3.99045 8.36347 4.00035 8.45847 4.0382C8.55348 4.07604 8.63468 4.14013 8.69181 4.22236C8.74894 4.30459 8.77943 4.40126 8.77943 4.50016C8.77943 4.63277 8.72465 4.75996 8.62715 4.85373C8.52964 4.9475 8.3974 5.00018 8.2595 5.00018ZM9.29936 9.00036C9.19653 9.00036 9.09601 8.97103 9.01051 8.91609C8.925 8.86115 8.85836 8.78305 8.81901 8.69169C8.77966 8.60032 8.76936 8.49978 8.78942 8.40279C8.80948 8.30579 8.859 8.2167 8.93172 8.14677C9.00443 8.07684 9.09707 8.02921 9.19793 8.00992C9.29879 7.99063 9.40333 8.00053 9.49833 8.03838C9.59334 8.07622 9.67454 8.14031 9.73167 8.22254C9.7888 8.30477 9.81929 8.40144 9.81929 8.50034C9.81929 8.63295 9.76452 8.76013 9.66701 8.85391C9.5695 8.94768 9.43726 9.00036 9.29936 9.00036Z" fill="currentColor"/>
</svg>
