<svg width="16" height="16" viewBox="0 0 16 16" fill="currentColor" xmlns="http://www.w3.org/2000/svg">
<path d="M15.0015 5.13032V9.27882C15.0015 9.41635 14.9468 9.54825 14.8496 9.6455C14.7523 9.74275 14.6204 9.79738 14.4828 9.79738H10.3338C10.1963 9.79738 10.0644 9.74275 9.9671 9.6455C9.86984 9.54825 9.8152 9.41635 9.8152 9.27882C9.8152 9.14129 9.86984 9.00939 9.9671 8.91214C10.0644 8.81489 10.1963 8.76026 10.3338 8.76026H13.2252L11.7756 7.3206C10.9779 6.52259 9.96136 5.97905 8.85465 5.75873C7.74794 5.53842 6.60075 5.65122 5.55816 6.08287C4.51557 6.51452 3.62443 7.24563 2.99745 8.18373C2.37046 9.12183 2.0358 10.2248 2.03579 11.3531C2.03579 11.4906 1.98115 11.6225 1.88389 11.7197C1.78663 11.817 1.65471 11.8716 1.51716 11.8716C1.37961 11.8716 1.2477 11.817 1.15044 11.7197C1.05318 11.6225 0.998535 11.4906 0.998535 11.3531C0.998512 10.0197 1.39392 8.71636 2.13476 7.60773C2.87559 6.49911 3.92858 5.63504 5.16056 5.1248C6.39254 4.61455 7.74818 4.48105 9.05605 4.74118C10.3639 5.0013 11.5653 5.64337 12.5082 6.58618L13.9642 8.03232V5.13032C13.9642 4.99278 14.0189 4.86089 14.1161 4.76364C14.2134 4.66639 14.3453 4.61175 14.4828 4.61175C14.6204 4.61175 14.7523 4.66639 14.8496 4.76364C14.9468 4.86089 15.0015 4.99278 15.0015 5.13032Z" fill="currentColor"/>
</svg>
