<svg width="14" height="14" viewBox="0 0 14 14" fill="none" xmlns="http://www.w3.org/2000/svg">
  <path fill-rule="evenodd" clip-rule="evenodd" d="M12.9422 7C12.9422 10.2818 10.2818 12.9422 7 12.9422C5.54542 12.9422 4.21291 12.4196 3.18001 11.5519L11.5519 3.18001C12.4196 4.21291 12.9422 5.54542 12.9422 7ZM2.43348 10.8025L10.8025 2.43348C9.77204 1.57453 8.44637 1.05777 7 1.05777C3.7182 1.05777 1.05777 3.7182 1.05777 7C1.05777 8.44637 1.57453 9.77204 2.43348 10.8025ZM14 7C14 10.866 10.866 14 7 14C3.13401 14 0 10.866 0 7C0 3.13401 3.13401 0 7 0C10.866 0 14 3.13401 14 7Z" fill="currentColor"/>
</svg>
