<svg width="16" height="16" viewBox="0 0 16 16" fill="currentColor" xmlns="http://www.w3.org/2000/svg">
<path d="M2.07692 2C1.7913 2 1.51739 2.11037 1.31542 2.30684C1.11346 2.50331 1 2.76977 1 3.04762V6.34744C1 6.63674 1.24108 6.87125 1.53846 6.87125C1.83585 6.87125 2.07692 6.63674 2.07692 6.34744L2.07692 3.04762L5.66646 3.04764L7.67695 4.5143C7.77015 4.58229 7.8835 4.61905 8 4.61905H13.9231V11.9524H8C7.70262 11.9524 7.46154 12.1869 7.46154 12.4762C7.46154 12.7655 7.70262 13 8 13H13.983C14.2527 13 14.5114 12.8958 14.7021 12.7102C14.8928 12.5247 15 12.273 15 12.0107V4.61905C15 4.3412 14.8865 4.07474 14.6846 3.87827C14.4826 3.6818 14.2087 3.57143 13.9231 3.57143H8.17947L6.31257 2.20951C6.12617 2.07351 5.89945 2 5.66644 2H2.07692Z" fill="currentColor"/>
<path d="M3.85752 8.35355C4.05278 8.15829 4.05278 7.84171 3.85752 7.64645C3.66226 7.45118 3.34568 7.45118 3.15041 7.64645L1.15041 9.64645C0.955152 9.84171 0.955152 10.1583 1.15041 10.3536L3.15041 12.3536C3.34568 12.5488 3.66226 12.5488 3.85752 12.3536C4.05278 12.1583 4.05278 11.8417 3.85752 11.6464L2.71107 10.5H6.50397C6.78011 10.5 7.00397 10.2761 7.00397 10C7.00397 9.72386 6.78011 9.5 6.50397 9.5H2.71107L3.85752 8.35355Z" fill="currentColor"/>
</svg>
