<svg width="24" height="24" viewBox="0 0 24 24" fill="none" xmlns="http://www.w3.org/2000/svg">
<path d="M14.2495 21.7512C14.2495 21.9501 14.1705 22.1408 14.0298 22.2815C13.8892 22.4221 13.6984 22.5012 13.4995 22.5012H10.4995C10.3006 22.5012 10.1098 22.4221 9.96915 22.2815C9.8285 22.1408 9.74948 21.9501 9.74948 21.7512C9.74948 21.5523 9.8285 21.3615 9.96915 21.2208C10.1098 21.0802 10.3006 21.0012 10.4995 21.0012H13.4995C13.6984 21.0012 13.8892 21.0802 14.0298 21.2208C14.1705 21.3615 14.2495 21.5523 14.2495 21.7512ZM11.9995 11.2512C12.222 11.2512 12.4395 11.1852 12.6245 11.0616C12.8095 10.938 12.9537 10.7623 13.0388 10.5567C13.124 10.3511 13.1463 10.1249 13.1029 9.90669C13.0595 9.68846 12.9523 9.48801 12.795 9.33067C12.6376 9.17334 12.4372 9.06619 12.219 9.02278C12.0007 8.97938 11.7745 9.00166 11.569 9.0868C11.3634 9.17195 11.1877 9.31615 11.0641 9.50115C10.9405 9.68616 10.8745 9.90366 10.8745 10.1262C10.8745 10.4245 10.993 10.7107 11.204 10.9217C11.415 11.1326 11.7011 11.2512 11.9995 11.2512ZM20.9639 15.3602L19.8051 20.5755C19.7501 20.8232 19.6332 21.0529 19.4654 21.2431C19.2975 21.4333 19.0841 21.5778 18.8452 21.6631C18.6063 21.7484 18.3497 21.7718 18.0993 21.7309C17.8489 21.6901 17.613 21.5864 17.4135 21.4296L14.8598 19.5012H9.14105L6.58542 21.4296C6.386 21.5864 6.15007 21.6901 5.89969 21.7309C5.64931 21.7718 5.39266 21.7484 5.15375 21.6631C4.91484 21.5778 4.70147 21.4333 4.5336 21.2431C4.36572 21.0529 4.24883 20.8232 4.19386 20.5755L3.03511 15.3602C2.98596 15.1364 2.98844 14.9044 3.04237 14.6816C3.0963 14.4589 3.20026 14.2514 3.34636 14.0749L6.02386 10.863C6.11373 9.68267 6.38471 8.52317 6.8273 7.42523C8.03667 4.39336 10.2023 2.49117 11.0807 1.81429C11.3437 1.61056 11.6669 1.5 11.9995 1.5C12.3321 1.5 12.6553 1.61056 12.9182 1.81429C13.7939 2.49117 15.9623 4.39336 17.1717 7.42523C17.6143 8.52317 17.8852 9.68267 17.9751 10.863L20.6526 14.0749C20.7987 14.2514 20.9027 14.4589 20.9566 14.6816C21.0105 14.9044 21.013 15.1364 20.9639 15.3602ZM9.32105 18.0012H14.6779C16.6579 14.4818 17.0282 11.1124 15.7785 7.98117C14.676 5.21742 12.6079 3.46992 11.9995 3.00117C11.3892 3.46992 9.32105 5.21742 8.21855 7.98117C6.97073 11.1124 7.34105 14.4818 9.32105 18.0012ZM7.9148 18.5496C6.90542 16.7152 6.29292 14.9124 6.0773 13.1412L4.49949 15.0349L5.65824 20.2512L5.67511 20.239L7.9148 18.5496ZM19.4995 15.0349L17.9217 13.1412C17.7079 14.9087 17.0967 16.7115 16.0879 18.5496L18.3239 20.2371L18.3407 20.2493L19.4995 15.0349Z" fill="currentColor"/>
</svg>
