<svg width="16" height="16" viewBox="0 0 16 16" fill="none" xmlns="http://www.w3.org/2000/svg">
<path fill-rule="evenodd" clip-rule="evenodd" d="M6.5 1C8.20779 1 9.73339 1.77868 10.7422 3H13L13.2041 3.01074C14.2128 3.113 15 3.96435 15 5V13L14.9893 13.2041C14.8938 14.1457 14.1457 14.8938 13.2041 14.9893L13 15H5C3.96435 15 3.113 14.2128 3.01074 13.2041L3 13V10.7422C1.77868 9.73339 1 8.20779 1 6.5C1 3.46243 3.46243 1 6.5 1ZM11.3984 4C11.7821 4.75025 12 5.59948 12 6.5C12 7.2152 11.862 7.89783 11.6133 8.52441L12.6133 8.72852C13.1081 8.82973 13.3259 9.39789 13.0566 9.80078L12.9971 9.87793L10.2207 13.0127C9.86342 13.4158 9.20395 13.2814 9.0332 12.7705L8.63086 11.5674C7.97536 11.8442 7.25628 12 6.5 12C5.59948 12 4.75025 11.7821 4 11.3984V13C4 13.5523 4.44772 14 5 14H13C13.5523 14 14 13.5523 14 13V5C14 4.44772 13.5523 4 13 4H11.3984ZM9.81641 11.9609L11.9033 9.60449L8.81836 8.97559L9.81641 11.9609ZM6.5 2C4.01472 2 2 4.01472 2 6.5C2 8.98528 4.01472 11 6.5 11C7.14579 11 7.75863 10.8617 8.31348 10.6162L7.70703 8.7998C7.53644 8.28877 7.98284 7.78397 8.51074 7.8916L10.6123 8.32031C10.8598 7.76358 11 7.14858 11 6.5C11 4.01472 8.98528 2 6.5 2Z" fill="currentColor"/>
</svg>
