<svg width="16" height="16" viewBox="0 0 16 16" fill="currentColor" xmlns="http://www.w3.org/2000/svg">
<path d="M8 1C6.61553 1 5.26216 1.41054 4.11101 2.17971C2.95987 2.94888 2.06266 4.04213 1.53285 5.32122C1.00303 6.6003 0.86441 8.00776 1.13451 9.36563C1.4046 10.7235 2.07129 11.9708 3.05026 12.9497C4.02922 13.9287 5.2765 14.5954 6.63437 14.8655C7.99224 15.1356 9.3997 14.997 10.6788 14.4672C11.9579 13.9373 13.0511 13.0401 13.8203 11.889C14.5895 10.7378 15 9.38447 15 8C14.998 6.14409 14.2599 4.36475 12.9476 3.05242C11.6353 1.74009 9.85592 1.00196 8 1ZM8 13.9231C6.82853 13.9231 5.68336 13.5757 4.70932 12.9249C3.73527 12.274 2.9761 11.349 2.52779 10.2667C2.07949 9.18436 1.96219 7.99343 2.19074 6.84446C2.41928 5.6955 2.9834 4.64011 3.81175 3.81175C4.64011 2.98339 5.6955 2.41928 6.84447 2.19073C7.99343 1.96219 9.18436 2.07949 10.2667 2.52779C11.349 2.97609 12.274 3.73527 12.9249 4.70931C13.5757 5.68336 13.9231 6.82853 13.9231 8C13.9213 9.57035 13.2967 11.0759 12.1863 12.1863C11.0759 13.2967 9.57035 13.9213 8 13.9231ZM10.1538 5.30769H5.84616C5.70335 5.30769 5.56639 5.36442 5.46541 5.4654C5.36443 5.56638 5.30769 5.70334 5.30769 5.84615V10.1538C5.30769 10.2967 5.36443 10.4336 5.46541 10.5346C5.56639 10.6356 5.70335 10.6923 5.84616 10.6923H10.1538C10.2967 10.6923 10.4336 10.6356 10.5346 10.5346C10.6356 10.4336 10.6923 10.2967 10.6923 10.1538V5.84615C10.6923 5.70334 10.6356 5.56638 10.5346 5.4654C10.4336 5.36442 10.2967 5.30769 10.1538 5.30769ZM9.61539 9.61538H6.38462V6.38461H9.61539V9.61538Z" fill="currentColor"/>
</svg>
