<svg width="16" height="16" viewBox="0 0 16 16" fill="none" xmlns="http://www.w3.org/2000/svg">
<path fill-rule="evenodd" clip-rule="evenodd" d="M3 11C4.10457 11 5 11.8954 5 13C5 14.1046 4.10457 15 3 15C1.89543 15 1 14.1046 1 13C1 11.8954 1.89543 11 3 11ZM3 12C2.44772 12 2 12.4477 2 13C2 13.5523 2.44772 14 3 14C3.55228 14 4 13.5523 4 13C4 12.4477 3.55228 12 3 12Z" fill="currentColor"/>
<path fill-rule="evenodd" clip-rule="evenodd" d="M13 6C14.1046 6 15 6.89543 15 8C15 9.10457 14.1046 10 13 10C12.6607 10 12.3415 9.91474 12.0615 9.76562L9.76562 12.0615C9.91474 12.3415 10 12.6607 10 13C10 14.1046 9.10457 15 8 15C6.89543 15 6 14.1046 6 13C6 12.0683 6.63768 11.2877 7.5 11.0654V9.93359C6.6378 9.71129 6 8.93162 6 8C6 6.89543 6.89543 6 8 6C9.10457 6 10 6.89543 10 8C10 8.93162 9.3622 9.71129 8.5 9.93359V11.0654C8.71208 11.1201 8.91016 11.2079 9.08887 11.3242L11.3242 9.08887C11.1201 8.77535 11 8.40201 11 8C11 6.89543 11.8954 6 13 6ZM8 12C7.44772 12 7 12.4477 7 13C7 13.5523 7.44772 14 8 14C8.55228 14 9 13.5523 9 13C9 12.4477 8.55228 12 8 12ZM8 7C7.44772 7 7 7.44772 7 8C7 8.55228 7.44772 9 8 9C8.55228 9 9 8.55228 9 8C9 7.44772 8.55228 7 8 7ZM13 7C12.4477 7 12 7.44772 12 8C12 8.55228 12.4477 9 13 9C13.5523 9 14 8.55228 14 8C14 7.44772 13.5523 7 13 7Z" fill="currentColor"/>
<path fill-rule="evenodd" clip-rule="evenodd" d="M13 11C14.1046 11 15 11.8954 15 13C15 14.1046 14.1046 15 13 15C11.8954 15 11 14.1046 11 13C11 11.8954 11.8954 11 13 11ZM13 12C12.4477 12 12 12.4477 12 13C12 13.5523 12.4477 14 13 14C13.5523 14 14 13.5523 14 13C14 12.4477 13.5523 12 13 12Z" fill="currentColor"/>
<path fill-rule="evenodd" clip-rule="evenodd" d="M3 1C4.10457 1 5 1.89543 5 3C5 3.93162 4.3622 4.71129 3.5 4.93359V6.06543C4.36232 6.28765 5 7.06829 5 8C5 9.10457 4.10457 10 3 10C1.89543 10 1 9.10457 1 8C1 7.06829 1.63768 6.28765 2.5 6.06543V4.93359C1.6378 4.71129 1 3.93162 1 3C1 1.89543 1.89543 1 3 1ZM3 7C2.44772 7 2 7.44772 2 8C2 8.55228 2.44772 9 3 9C3.55228 9 4 8.55228 4 8C4 7.44772 3.55228 7 3 7ZM3 2C2.44772 2 2 2.44772 2 3C2 3.55228 2.44772 4 3 4C3.55228 4 4 3.55228 4 3C4 2.44772 3.55228 2 3 2Z" fill="currentColor"/>
<path fill-rule="evenodd" clip-rule="evenodd" d="M13 1C14.1046 1 15 1.89543 15 3C15 4.10457 14.1046 5 13 5C12.0683 5 11.2877 4.36232 11.0654 3.5H9.93457C9.71235 4.36232 8.93171 5 8 5C6.89543 5 6 4.10457 6 3C6 1.89543 6.89543 1 8 1C8.93171 1 9.71235 1.63768 9.93457 2.5H11.0654C11.2877 1.63768 12.0683 1 13 1ZM8 2C7.44772 2 7 2.44772 7 3C7 3.55228 7.44772 4 8 4C8.55228 4 9 3.55228 9 3C9 2.44772 8.55228 2 8 2ZM13 2C12.4477 2 12 2.44772 12 3C12 3.55228 12.4477 4 13 4C13.5523 4 14 3.55228 14 3C14 2.44772 13.5523 2 13 2Z" fill="currentColor"/>
</svg>
