<svg width="12" height="14" viewBox="0 0 12 14" fill="none" xmlns="http://www.w3.org/2000/svg">
<path d="M10.8075 2.1599C9.98455 0.767308 8.85818 0 7.63636 0H4.36364C3.14182 0 2.01545 0.767308 1.1925 2.1599C0.423409 3.46096 0 5.18269 0 7C0 8.81731 0.423409 10.539 1.1925 11.8401C2.01545 13.2327 3.14182 14 4.36364 14H7.63636C8.85818 14 9.98455 13.2327 10.8075 11.8401C11.5766 10.539 12 8.81731 12 7C12 5.18269 11.5766 3.46096 10.8075 2.1599ZM10.8948 6.46154H8.71295C8.67034 5.35659 8.44748 4.26566 8.05295 3.23077H10.1386C10.5559 4.13135 10.8314 5.25 10.8948 6.46154ZM9.49023 2.15385H7.53136C7.30353 1.76368 7.02882 1.40208 6.71318 1.07692H7.63636C8.31818 1.07692 8.95909 1.48077 9.49023 2.15385ZM1.09091 7C1.09091 3.78942 2.59091 1.07692 4.36364 1.07692C6.13636 1.07692 7.63636 3.78942 7.63636 7C7.63636 10.2106 6.13636 12.9231 4.36364 12.9231C2.59091 12.9231 1.09091 10.2106 1.09091 7ZM7.63636 12.9231H6.71523C7.03086 12.5979 7.30558 12.2363 7.53341 11.8462H9.49227C8.95909 12.5192 8.31818 12.9231 7.63636 12.9231ZM10.1386 10.7692H8.05364C8.44816 9.73434 8.67102 8.64341 8.71364 7.53846H10.8955C10.8314 8.75 10.5559 9.86865 10.1386 10.7692Z" fill="currentColor"/>
</svg>
