<svg width="16" height="16" viewBox="0 0 16 16" fill="currentColor" xmlns="http://www.w3.org/2000/svg">
<path d="M14.6473 4.02925C14.6147 3.94854 14.5629 3.87695 14.4965 3.82062C14.4301 3.7643 14.351 3.72492 14.266 3.70586C14.1811 3.6868 14.0927 3.68864 14.0086 3.71121C13.9245 3.73378 13.8472 3.77641 13.7832 3.83544L11.0708 6.33816L9.91119 6.08917L9.66217 4.92966L12.1652 2.21766C12.2242 2.15366 12.2669 2.07629 12.2894 1.99219C12.312 1.9081 12.3138 1.81978 12.2948 1.73482C12.2757 1.64986 12.2363 1.57079 12.18 1.50439C12.1237 1.43799 12.0521 1.38624 11.9713 1.35359C11.2357 1.05603 10.4382 0.943678 9.64893 1.02641C8.85967 1.10914 8.10282 1.38442 7.44486 1.82805C6.7869 2.27169 6.24798 2.87011 5.87545 3.57073C5.50291 4.27136 5.30817 5.05274 5.30833 5.84623C5.30746 6.51628 5.44493 7.17929 5.71215 7.79376L1.65982 11.2972C1.64972 11.3052 1.6403 11.3147 1.63088 11.3234C1.22693 11.7273 1 12.2751 1 12.8463C1 13.1291 1.05571 13.4092 1.16396 13.6705C1.27221 13.9318 1.43086 14.1692 1.63088 14.3692C1.83089 14.5692 2.06834 14.7278 2.32967 14.8361C2.591 14.9443 2.87109 15 3.15395 15C3.72521 15 4.27308 14.7731 4.67702 14.3692C4.68577 14.3604 4.69519 14.3504 4.70327 14.3409L8.2064 10.2877C8.94434 10.6116 9.75141 10.7464 10.5546 10.6798C11.3577 10.6132 12.1316 10.3474 12.8061 9.90642C13.4806 9.46544 14.0344 8.86321 14.4175 8.15427C14.8006 7.44532 15.0008 6.65203 15 5.84623C15.001 5.22347 14.8813 4.60641 14.6473 4.02925ZM10.1542 9.61477C9.51685 9.6139 8.89011 9.45185 8.33226 9.14371C8.22419 9.08401 8.09887 9.06326 7.97732 9.08495C7.85577 9.10663 7.74537 9.16943 7.66461 9.26282L3.90236 13.6195C3.69877 13.8129 3.42767 13.9192 3.14687 13.9156C2.86607 13.912 2.59778 13.7988 2.39921 13.6003C2.20063 13.4017 2.08749 13.1335 2.08389 12.8527C2.0803 12.5719 2.18654 12.3009 2.37996 12.0973L6.73381 8.33616C6.82737 8.25537 6.89028 8.14486 6.91197 8.02318C6.93366 7.90149 6.91282 7.77605 6.85294 7.66792C6.50971 7.04721 6.34863 6.34226 6.38823 5.6341C6.42782 4.92594 6.66648 4.24333 7.07676 3.66475C7.48704 3.08616 8.05229 2.63509 8.70752 2.36339C9.36275 2.09168 10.0814 2.01038 10.7808 2.12883L8.68089 4.40409C8.62247 4.46746 8.58011 4.54394 8.55739 4.62708C8.53467 4.71023 8.53225 4.79761 8.55032 4.88189L8.93126 6.65377C8.95305 6.75512 9.00363 6.84801 9.07694 6.92131C9.15024 6.99461 9.24315 7.04518 9.3445 7.06697L11.1179 7.44786C11.2022 7.46594 11.2896 7.46351 11.3728 7.44079C11.4559 7.41808 11.5324 7.37573 11.5958 7.31731L13.8713 5.21769C13.962 5.75808 13.9339 6.31174 13.789 6.84017C13.644 7.36859 13.3856 7.8591 13.0319 8.27758C12.6781 8.69606 12.2374 9.03246 11.7405 9.26338C11.2435 9.49431 10.7022 9.61422 10.1542 9.61477Z" fill="currentColor"/>
</svg>
