<svg width="16" height="16" viewBox="0 0 16 16" fill="currentColor" xmlns="http://www.w3.org/2000/svg">
<path d="M14.9992 11.1109C14.9992 11.2484 14.9446 11.3803 14.8473 11.4775C14.7501 11.5748 14.6182 11.6294 14.4807 11.6294C14.3432 11.6294 14.2114 11.5748 14.1141 11.4775C14.0169 11.3803 13.9623 11.2484 13.9623 11.1109C13.9621 9.98307 13.6276 8.88057 13.0009 7.94283C12.3742 7.00509 11.4836 6.27422 10.4416 5.84263C9.39956 5.41103 8.25297 5.29809 7.14677 5.51809C6.04058 5.73809 5.02445 6.28114 4.22686 7.07859L2.77646 8.51862H5.66689C5.80439 8.51862 5.93627 8.57324 6.0335 8.67047C6.13073 8.7677 6.18535 8.89957 6.18535 9.03708C6.18535 9.17458 6.13073 9.30646 6.0335 9.40369C5.93627 9.50092 5.80439 9.55554 5.66689 9.55554H1.51919C1.38169 9.55554 1.24982 9.50092 1.15259 9.40369C1.05536 9.30646 1.00073 9.17458 1.00073 9.03708V4.88938C1.00073 4.75188 1.05536 4.62001 1.15259 4.52278C1.24982 4.42555 1.38169 4.37092 1.51919 4.37092C1.6567 4.37092 1.78857 4.42555 1.8858 4.52278C1.98303 4.62001 2.03766 4.75188 2.03766 4.88938V7.79083L3.49453 6.34367C4.43729 5.40141 5.63826 4.75983 6.9456 4.50005C8.25295 4.24028 9.60797 4.37396 10.8393 4.88422C12.0707 5.39447 13.1232 6.25837 13.8636 7.3667C14.604 8.47503 14.9992 9.77802 14.9992 11.1109Z" fill="currentColor"/>
</svg>
