<svg
  width="16"
  height="16"
  viewBox="0 0 16 16"
  fill="none"
  xmlns="http://www.w3.org/2000/svg"
>
  <path
    d="M4.8624 1C5.15121 1 5.38533 1.23412 5.38533 1.52293C5.38533 1.81174 5.15121 2.04587 4.8624 2.04587C4.40492 2.04587 4.1135 2.13448 3.92288 2.24924C3.73812 2.36049 3.60778 2.52034 3.51243 2.74179C3.30267 3.22894 3.2936 3.9158 3.2936 4.76145C3.2936 5.53505 3.30266 6.46746 2.98949 7.19476C2.85895 7.49794 2.66918 7.77658 2.39807 7.99997C2.6692 8.22336 2.85894 8.50205 2.98949 8.80524C3.30266 9.53254 3.2936 10.4649 3.2936 11.2385C3.2936 12.0842 3.30267 12.7711 3.51243 13.2582C3.60778 13.4797 3.73812 13.6395 3.92288 13.7508C4.1135 13.8655 4.40491 13.9541 4.8624 13.9541C5.1512 13.9541 5.38532 14.1883 5.38533 14.4771C5.38533 14.7659 5.15121 15 4.8624 15C4.27403 15 3.78103 14.8862 3.38335 14.6468C2.97982 14.4038 2.71796 14.0576 2.55184 13.6719C2.23868 12.9446 2.24774 12.0122 2.24774 11.2385C2.24774 10.3929 2.23867 9.70604 2.02891 9.21889C1.93356 8.99744 1.80322 8.83759 1.61846 8.72634C1.42784 8.61157 1.13643 8.52296 0.678938 8.52296C0.390137 8.52296 0.156017 8.28883 0.156006 8.00003C0.156006 7.72026 0.375711 7.49176 0.652 7.47774L0.678938 7.4771L0.721325 7.47684C1.15452 7.47154 1.43379 7.3849 1.61846 7.27372C1.80322 7.16248 1.93356 7.00262 2.02891 6.78117C2.23868 6.29402 2.24774 5.60711 2.24774 4.76145C2.24774 3.98785 2.23868 3.05543 2.55184 2.32814C2.71795 1.94238 2.97984 1.59622 3.38335 1.35326C3.78103 1.11382 4.27403 1 4.8624 1Z"
    fill="currentColor"
  />
  <path
    d="M11.1376 1C11.726 1 12.219 1.11382 12.6166 1.35326C13.0202 1.59622 13.282 1.94238 13.4481 2.32814C13.7613 3.05543 13.7523 3.98785 13.7523 4.76145C13.7523 5.60711 13.7613 6.29402 13.9711 6.78117C14.0664 7.00262 14.1968 7.16248 14.3815 7.27372C14.5722 7.38849 14.8636 7.4771 15.3211 7.4771C15.6099 7.4771 15.844 7.71122 15.844 8.00003C15.844 8.28883 15.6099 8.52296 15.3211 8.52296C14.8636 8.52296 14.5722 8.61157 14.3815 8.72634C14.1968 8.83759 14.0664 8.99744 13.9711 9.21889C13.7613 9.70604 13.7523 10.3929 13.7523 11.2385C13.7523 12.0122 13.7613 12.9446 13.4481 13.6719C13.282 14.0576 13.0202 14.4038 12.6166 14.6468C12.219 14.8862 11.726 15 11.1376 15C10.8488 15 10.6147 14.7659 10.6147 14.4771C10.6147 14.1883 10.8488 13.9541 11.1376 13.9541C11.5951 13.9541 11.8865 13.8655 12.0771 13.7508C12.2619 13.6395 12.3922 13.4797 12.4876 13.2582C12.6973 12.7711 12.7064 12.0842 12.7064 11.2385C12.7064 10.4649 12.6973 9.53254 13.0105 8.80524C13.141 8.50206 13.3307 8.22335 13.6019 7.99997C13.3308 7.77659 13.141 7.49792 13.0105 7.19476C12.6973 6.46746 12.7064 5.53505 12.7064 4.76145C12.7064 3.9158 12.6973 3.22894 12.4876 2.74179C12.3922 2.52034 12.2619 2.36049 12.0771 2.24924C11.8865 2.13448 11.5951 2.04587 11.1376 2.04587C10.8488 2.04587 10.6147 1.81174 10.6147 1.52293C10.6147 1.23412 10.8488 1 11.1376 1Z"
    fill="currentColor"
  />
  <path
    d="M9.76955 4.63933C9.9381 4.40482 10.2649 4.35135 10.4994 4.5199C10.734 4.68845 10.7874 5.01526 10.6189 5.24978L8.64377 7.99786L10.6235 10.7501C10.7922 10.9845 10.7389 11.3113 10.5044 11.48C10.27 11.6486 9.94319 11.5953 9.77453 11.3609L7.99987 8.89378L6.22782 11.3595C6.05927 11.594 5.73251 11.6475 5.498 11.4789C5.26349 11.3104 5.20996 10.9836 5.3785 10.7491L7.35559 7.99812L5.38361 5.25674C5.21496 5.0223 5.26829 4.69551 5.50272 4.52686C5.73717 4.35821 6.06395 4.41154 6.23261 4.64597L7.99942 7.1022L9.76955 4.63933Z"
    fill="currentColor"
  />
</svg>
