<svg width="16" height="16" viewBox="0 0 16 16" fill="currentColor" xmlns="http://www.w3.org/2000/svg">
<path d="M1.75 1.75V14.25H4.25C4.41576 14.25 4.57473 14.3158 4.69194 14.4331C4.80915 14.5503 4.875 14.7092 4.875 14.875C4.875 15.0408 4.80915 15.1997 4.69194 15.3169C4.57473 15.4342 4.41576 15.5 4.25 15.5H1.125C0.95924 15.5 0.800269 15.4342 0.683058 15.3169C0.565848 15.1997 0.5 15.0408 0.5 14.875V1.125C0.5 0.95924 0.565848 0.800269 0.683058 0.683058C0.800269 0.565848 0.95924 0.5 1.125 0.5H4.25C4.41576 0.5 4.57473 0.565848 4.69194 0.683058C4.80915 0.800269 4.875 0.95924 4.875 1.125C4.875 1.29076 4.80915 1.44973 4.69194 1.56694C4.57473 1.68415 4.41576 1.75 4.25 1.75H1.75ZM14.875 0.5H11.75C11.5842 0.5 11.4253 0.565848 11.3081 0.683058C11.1908 0.800269 11.125 0.95924 11.125 1.125C11.125 1.29076 11.1908 1.44973 11.3081 1.56694C11.4253 1.68415 11.5842 1.75 11.75 1.75H14.25V14.25H11.75C11.5842 14.25 11.4253 14.3158 11.3081 14.4331C11.1908 14.5503 11.125 14.7092 11.125 14.875C11.125 15.0408 11.1908 15.1997 11.3081 15.3169C11.4253 15.4342 11.5842 15.5 11.75 15.5H14.875C15.0408 15.5 15.1997 15.4342 15.3169 15.3169C15.4342 15.1997 15.5 15.0408 15.5 14.875V1.125C15.5 0.95924 15.4342 0.800269 15.3169 0.683058C15.1997 0.565848 15.0408 0.5 14.875 0.5Z" fill="currentColor"/>
</svg>
