<svg
  width="16"
  height="16"
  viewBox="0 0 16 16"
  fill="none"
  xmlns="http://www.w3.org/2000/svg"
>
  <path
    fillRule="evenodd"
    clipRule="evenodd"
    d="M4.45676 1C5.6463 1 6.61061 1.96431 6.61061 3.15385C6.6106 4.15744 5.92419 5.00069 4.99523 5.23979V6.00706L8.53749 6.85689L8.55727 6.86201C8.57693 6.86753 8.59627 6.87415 8.61518 6.88186C8.80858 6.96072 8.98582 7.03783 9.14983 7.15359C9.29874 7.2587 9.4162 7.38061 9.53429 7.52326L9.58503 7.5857L9.60081 7.60641C9.6059 7.61345 9.61085 7.62062 9.6156 7.6279L11.6148 10.6936C12.7713 10.7313 13.6971 11.6806 13.6971 12.8462C13.6971 14.0357 12.7328 15 11.5433 15C10.3538 15 9.38943 14.0357 9.38942 12.8462C9.38942 12.034 9.83904 11.3268 10.5029 10.9599L8.7289 8.23972C8.62612 8.11281 8.5743 8.0655 8.52881 8.03339C8.47856 7.99792 8.41008 7.96242 8.24539 7.89431L4.99523 7.11455V10.7601C5.9242 10.9992 6.61061 11.8425 6.61061 12.8462C6.6106 14.0357 5.64629 15 4.45676 15C3.26724 15 2.30293 14.0357 2.30292 12.8462C2.30292 11.8425 2.98933 10.9992 3.9183 10.7601V5.23979C2.98935 5.00069 2.30293 4.15744 2.30292 3.15385C2.30292 1.96431 3.26723 1 4.45676 1ZM4.45676 11.7692C3.862 11.7692 3.37984 12.2514 3.37984 12.8462C3.37985 13.4409 3.86201 13.9231 4.45676 13.9231C5.05152 13.9231 5.53367 13.4409 5.53369 12.8462C5.53369 12.2514 5.05153 11.7692 4.45676 11.7692ZM11.5433 11.7692C10.9485 11.7692 10.4663 12.2514 10.4663 12.8462C10.4664 13.4409 10.9485 13.9231 11.5433 13.9231C12.138 13.9231 12.6202 13.4409 12.6202 12.8462C12.6202 12.2514 12.138 11.7692 11.5433 11.7692ZM4.45676 2.07692C3.862 2.07693 3.37984 2.55908 3.37984 3.15385C3.37985 3.7486 3.86201 4.23077 4.45676 4.23077C5.05152 4.23077 5.53367 3.7486 5.53369 3.15385C5.53369 2.55908 5.05153 2.07692 4.45676 2.07692Z"
    fill="currentColor"
  />
</svg>
