<svg width="24" height="24" viewBox="0 0 24 24" fill="none" xmlns="http://www.w3.org/2000/svg">
<path d="M20.0769 3.75H3.92308C3.28044 3.75 2.66412 4.00681 2.2097 4.46393C1.75529 4.92105 1.5 5.54103 1.5 6.1875V17.5625C1.5 18.209 1.75529 18.829 2.2097 19.2861C2.66412 19.7432 3.28044 20 3.92308 20H20.0769C20.7196 20 21.3359 19.7432 21.7903 19.2861C22.2447 18.829 22.5 18.209 22.5 17.5625V6.1875C22.5 5.54103 22.2447 4.92105 21.7903 4.46393C21.3359 4.00681 20.7196 3.75 20.0769 3.75ZM20.8846 17.5625C20.8846 17.778 20.7995 17.9847 20.648 18.137C20.4966 18.2894 20.2911 18.375 20.0769 18.375H3.92308C3.70886 18.375 3.50342 18.2894 3.35195 18.137C3.20048 17.9847 3.11538 17.778 3.11538 17.5625V6.1875C3.11538 5.97201 3.20048 5.76535 3.35195 5.61298C3.50342 5.4606 3.70886 5.375 3.92308 5.375H20.0769C20.2911 5.375 20.4966 5.4606 20.648 5.61298C20.7995 5.76535 20.8846 5.97201 20.8846 6.1875V17.5625ZM16.0385 22.4375C16.0385 22.653 15.9534 22.8597 15.8019 23.012C15.6504 23.1644 15.445 23.25 15.2308 23.25H8.76923C8.55502 23.25 8.34958 23.1644 8.19811 23.012C8.04663 22.8597 7.96154 22.653 7.96154 22.4375C7.96154 22.222 8.04663 22.0153 8.19811 21.863C8.34958 21.7106 8.55502 21.625 8.76923 21.625H15.2308C15.445 21.625 15.6504 21.7106 15.8019 21.863C15.9534 22.0153 16.0385 22.222 16.0385 22.4375ZM15.679 11.1986L10.8329 7.94859C10.7112 7.86694 10.5698 7.82004 10.4237 7.81292C10.2776 7.8058 10.1323 7.83872 10.0034 7.90817C9.87445 7.97761 9.76667 8.08097 9.69156 8.20722C9.61645 8.33347 9.57683 8.47787 9.57692 8.625V15.125C9.57683 15.2721 9.61645 15.4165 9.69156 15.5428C9.76667 15.669 9.87445 15.7724 10.0034 15.8418C10.1323 15.9113 10.2776 15.9442 10.4237 15.9371C10.5698 15.93 10.7112 15.8831 10.8329 15.8014L15.679 12.5514C15.7898 12.4772 15.8807 12.3767 15.9435 12.2587C16.0064 12.1407 16.0392 12.0089 16.0392 11.875C16.0392 11.7411 16.0064 11.6093 15.9435 11.4913C15.8807 11.3733 15.7898 11.2728 15.679 11.1986ZM11.1923 13.6066V10.1484L13.7749 11.875L11.1923 13.6066Z" fill="currentColor"/>
</svg>
