<svg width="16" height="16" viewBox="0 0 16 16" fill="none" xmlns="http://www.w3.org/2000/svg">
<path fill-rule="evenodd" clip-rule="evenodd" d="M11.3721 9.00293C11.9903 8.97165 12.5985 9.17113 13.0781 9.5625C13.5577 9.95378 13.8752 10.5092 13.9688 11.1211C14.0622 11.7331 13.9248 12.3582 13.584 12.875L14.8525 14.1436C14.8993 14.19 14.9366 14.2458 14.9619 14.3066C14.9872 14.3674 15 14.4332 15 14.499C14.9999 14.5647 14.9871 14.6298 14.9619 14.6904C14.9366 14.7513 14.8993 14.8071 14.8525 14.8535C14.8062 14.8999 14.751 14.9368 14.6904 14.9619C14.6299 14.987 14.5646 14.9999 14.499 15C14.4335 15 14.3682 14.987 14.3076 14.9619C14.2471 14.9368 14.1919 14.8999 14.1455 14.8535L12.875 13.585C12.3583 13.9259 11.733 14.0633 11.1211 13.9697C10.5092 13.8762 9.95379 13.5588 9.5625 13.0791C9.17125 12.5994 8.97171 11.9913 9.00293 11.373C9.0342 10.7549 9.29399 10.1702 9.73145 9.73242C10.1691 9.29469 10.7539 9.03427 11.3721 9.00293ZM11.793 10.0303C11.5022 9.97243 11.2006 10.0018 10.9268 10.1152C10.6528 10.2287 10.4186 10.4214 10.2539 10.668C10.0892 10.9145 10.001 11.2044 10.001 11.501C10.001 11.8986 10.1593 12.2803 10.4404 12.5615C10.7215 12.8425 11.1026 12.9999 11.5 13C11.7964 13 12.0865 12.9127 12.333 12.748C12.5795 12.5833 12.7723 12.3482 12.8857 12.0742C12.999 11.8004 13.0285 11.4987 12.9707 11.208C12.9128 10.9173 12.7701 10.6501 12.5605 10.4404C12.3509 10.2308 12.0837 10.0882 11.793 10.0303Z" fill="currentColor"/>
<path fill-rule="evenodd" clip-rule="evenodd" d="M7.5 1C9.22335 1.00182 10.8752 1.68766 12.0938 2.90625C13.3123 4.12484 13.9982 5.77665 14 7.5C14 7.63261 13.9473 7.75975 13.8535 7.85352C13.7597 7.94728 13.6326 8 13.5 8C13.3674 8 13.2403 7.94728 13.1465 7.85352C13.0527 7.75975 13 7.63261 13 7.5C13.0004 6.99278 12.9305 6.48794 12.792 6H10.3848C10.462 6.49625 10.5007 6.99777 10.5 7.5C10.5 7.63261 10.4473 7.75975 10.3535 7.85352C10.2597 7.94728 10.1326 8 10 8C9.86739 8 9.74025 7.94728 9.64648 7.85352C9.55272 7.75975 9.5 7.63261 9.5 7.5C9.5013 6.99724 9.45821 6.49533 9.37207 6H5.62988C5.45739 6.99255 5.45739 8.00745 5.62988 9H7.49609C7.62867 9 7.75585 9.05276 7.84961 9.14648C7.94338 9.24025 7.99609 9.36739 7.99609 9.5C7.99609 9.63261 7.94338 9.75975 7.84961 9.85352C7.75585 9.94724 7.62867 10 7.49609 10H5.87109C6.50694 12.0268 7.74107 13.0523 7.8125 13.1104C7.89299 13.1752 7.95119 13.2639 7.97949 13.3633C8.00776 13.4627 8.00495 13.5685 7.9707 13.666C7.93642 13.7635 7.8723 13.8474 7.78809 13.9072C7.70382 13.9671 7.60336 13.9998 7.5 14C5.77609 14 4.12231 13.3157 2.90332 12.0967C1.68433 10.8777 1 9.22391 1 7.5C1 5.77609 1.68433 4.12231 2.90332 2.90332C4.12231 1.68433 5.77609 1 7.5 1ZM2.59961 10C2.96254 10.7083 3.47392 11.3303 4.09961 11.8223C4.72531 12.3142 5.4506 12.6641 6.22461 12.8496C5.58443 11.9961 5.11164 11.0293 4.83105 10H2.59961ZM2.20801 6C1.93051 6.98073 1.93051 8.01927 2.20801 9H4.61523C4.4619 8.00588 4.4619 6.99412 4.61523 6H2.20801ZM6.22461 2.15039C5.4511 2.33621 4.72679 2.68684 4.10156 3.17871C3.4763 3.67064 2.96423 4.29189 2.60156 5H4.83105C5.11164 3.97066 5.58443 3.00387 6.22461 2.15039ZM7.5 2.1875C6.75101 2.98886 6.19518 3.95088 5.875 5H9.125C8.80449 3.95102 8.2487 2.98908 7.5 2.1875ZM8.77832 2.15039C9.41844 3.00385 9.89132 3.97071 10.1719 5H12.4033C12.0404 4.29162 11.5281 3.66967 10.9023 3.17773C10.2768 2.68601 9.55208 2.33587 8.77832 2.15039Z" fill="currentColor"/>
</svg>
