<svg width="16" height="16" viewBox="0 0 16 16" fill="none" xmlns="http://www.w3.org/2000/svg">
<path d="M13.8405 4.92673L10.0223 1.1575C9.97158 1.10751 9.91141 1.06787 9.84519 1.04085C9.77898 1.01383 9.70801 0.999945 9.63636 1H3.09091C2.80158 1 2.5241 1.11346 2.31952 1.31542C2.11493 1.51739 2 1.79131 2 2.07692V13.9231C2 14.2087 2.11493 14.4826 2.31952 14.6846C2.5241 14.8865 2.80158 15 3.09091 15H12.9091C13.1984 15 13.4759 14.8865 13.6805 14.6846C13.8851 14.4826 14 14.2087 14 13.9231V5.30769C14.0001 5.23696 13.986 5.16691 13.9586 5.10154C13.9312 5.03618 13.8911 4.97677 13.8405 4.92673ZM10.1818 2.83817L12.138 4.76923H10.1818V2.83817ZM12.9091 13.9231H3.09091V2.07692H9.09091V5.30769C9.09091 5.4505 9.14838 5.58746 9.25067 5.68844C9.35296 5.78942 9.4917 5.84615 9.63636 5.84615H12.9091V13.9231ZM9.80409 10.6351C10.126 10.1301 10.2482 9.52579 10.1472 8.93753C10.0463 8.34927 9.72937 7.81834 9.25697 7.44618C8.78458 7.07402 8.18984 6.88672 7.5864 6.92007C6.98296 6.95342 6.41312 7.20508 5.98576 7.62697C5.55839 8.04885 5.30346 8.61139 5.26968 9.20709C5.2359 9.80279 5.42563 10.3899 5.80262 10.8562C6.17961 11.3226 6.71744 11.6355 7.31334 11.7351C7.90924 11.8347 8.52143 11.7141 9.03295 11.3963L9.79591 12.1502C9.84659 12.2002 9.90675 12.2399 9.97297 12.267C10.0392 12.2941 10.1101 12.308 10.1818 12.308C10.2535 12.308 10.3245 12.2941 10.3907 12.267C10.4569 12.2399 10.517 12.2002 10.5677 12.1502C10.6184 12.1002 10.6586 12.0408 10.686 11.9754C10.7135 11.91 10.7276 11.84 10.7276 11.7692C10.7276 11.6985 10.7135 11.6284 10.686 11.5631C10.6586 11.4977 10.6184 11.4383 10.5677 11.3883L9.80409 10.6351ZM6.36364 9.34615C6.36364 9.07991 6.44361 8.81964 6.59345 8.59827C6.74329 8.3769 6.95626 8.20436 7.20543 8.10247C7.4546 8.00058 7.72879 7.97392 7.99331 8.02587C8.25782 8.07781 8.5008 8.20602 8.69151 8.39428C8.88222 8.58254 9.01209 8.8224 9.06471 9.08353C9.11732 9.34466 9.09032 9.61533 8.98711 9.86131C8.8839 10.1073 8.70912 10.3175 8.48487 10.4654C8.26062 10.6134 7.99697 10.6923 7.72727 10.6923C7.36561 10.6923 7.01877 10.5505 6.76304 10.298C6.50731 10.0456 6.36364 9.70318 6.36364 9.34615Z" fill="currentColor"/>
</svg>
