<svg width="16" height="16" viewBox="0 0 16 16" fill="currentColor" xmlns="http://www.w3.org/2000/svg">
<path d="M9.62084 6.93147C9.62084 7.07412 9.56417 7.21093 9.4633 7.31181C9.36243 7.41268 9.22562 7.46935 9.08297 7.46935H7.46935V9.08297C7.46935 9.22562 7.41268 9.36243 7.31181 9.4633C7.21093 9.56417 7.07412 9.62084 6.93147 9.62084C6.78882 9.62084 6.65201 9.56417 6.55114 9.4633C6.45027 9.36243 6.3936 9.22562 6.3936 9.08297V7.46935H4.77998C4.63732 7.46935 4.50051 7.41268 4.39964 7.31181C4.29877 7.21093 4.2421 7.07412 4.2421 6.93147C4.2421 6.78882 4.29877 6.65201 4.39964 6.55114C4.50051 6.45027 4.63732 6.3936 4.77998 6.3936H6.3936V4.77998C6.3936 4.63732 6.45027 4.50051 6.55114 4.39964C6.65201 4.29877 6.78882 4.2421 6.93147 4.2421C7.07412 4.2421 7.21093 4.29877 7.31181 4.39964C7.41268 4.50051 7.46935 4.63732 7.46935 4.77998V6.3936H9.08297C9.22562 6.3936 9.36243 6.45027 9.4633 6.55114C9.56417 6.65201 9.62084 6.78882 9.62084 6.93147ZM14.8422 14.8422C14.7923 14.8923 14.733 14.9319 14.6677 14.959C14.6024 14.9861 14.5324 15 14.4617 15C14.391 15 14.321 14.9861 14.2557 14.959C14.1904 14.9319 14.1311 14.8923 14.0812 14.8422L10.7154 11.4758C9.54399 12.4516 8.0415 12.9381 6.52049 12.8343C4.99948 12.7304 3.57706 12.0442 2.54913 10.9183C1.52119 9.79241 0.966892 8.31357 1.00153 6.78941C1.03617 5.26525 1.65708 3.81312 2.7351 2.7351C3.81312 1.65708 5.26525 1.03617 6.78941 1.00153C8.31357 0.966892 9.79241 1.52119 10.9183 2.54913C12.0442 3.57706 12.7304 4.99948 12.8343 6.52049C12.9381 8.0415 12.4516 9.54399 11.4758 10.7154L14.8422 14.0812C14.8923 14.1311 14.9319 14.1904 14.959 14.2557C14.9861 14.321 15 14.391 15 14.4617C15 14.5324 14.9861 14.6024 14.959 14.6677C14.9319 14.733 14.8923 14.7923 14.8422 14.8422ZM6.93147 11.7723C7.8889 11.7723 8.82484 11.4884 9.62091 10.9565C10.417 10.4246 11.0375 9.66854 11.4038 8.78399C11.7702 7.89944 11.8661 6.9261 11.6793 5.98707C11.4925 5.04803 11.0315 4.18547 10.3545 3.50846C9.67747 2.83146 8.81491 2.37041 7.87588 2.18362C6.93684 1.99684 5.96351 2.0927 5.07895 2.4591C4.1944 2.82549 3.43836 3.44596 2.90644 4.24203C2.37452 5.03811 2.09061 5.97404 2.09061 6.93147C2.09203 8.21491 2.60251 9.44538 3.51004 10.3529C4.41757 11.2604 5.64803 11.7709 6.93147 11.7723Z" fill="currentColor"/>
</svg>
